<?xml version="1.0" encoding="UTF-8" standalone="no"?>
<svg width="143px" height="83px" viewBox="0 0 143 83" version="1.1" xmlns="http://www.w3.org/2000/svg" xmlns:xlink="http://www.w3.org/1999/xlink" xmlns:sketch="http://www.bohemiancoding.com/sketch/ns">
    <!-- Generator: Sketch 3.4.2 (15855) - http://www.bohemiancoding.com/sketch -->
    <title>Illustra_Sobre3_Pessoas</title>
    <desc>Created with Sketch.</desc>
    <defs>
        <path id="path-1" d="M0,0 L143,0 L143,83 L0,83"></path>
    </defs>
    <g id="HomePage" stroke="none" stroke-width="1" fill="none" fill-rule="evenodd" sketch:type="MSPage">
        <g id="OnePage---Large-Desktops" sketch:type="MSArtboardGroup" transform="translate(-726.000000, -1721.000000)">
            <g id="About-us" sketch:type="MSLayerGroup" transform="translate(60.000000, 1458.000000)">
                <g id="Illustra_Sobre3_Pessoas" transform="translate(666.000000, 263.000000)">
                    <g id="Group-3">
                        <mask id="mask-2" sketch:name="Clip 2" fill="white">
                            <use xlink:href="#path-1"></use>
                        </mask>
                        <g id="Clip-2"></g>
                        <path d="M125.068214,36.8700525 C127.368649,38.7022775 130.576823,39.4243775 134.709316,39.4243775 C132.185055,38.3308525 130.564388,36.3118775 130.564388,33.1993775 L130.564388,16.5993775 C130.564388,8.2993775 128.491925,-2.0756225 116.057142,2.0743775 C97.4049681,-5.1881225 89.115113,8.2993775 89.115113,16.5993775 L89.115113,33.1993775 C89.115113,36.3118775 87.4965188,38.3308525 84.9701855,39.4243775 C89.1026783,39.4243775 92.3108522,38.7022775 94.6133594,36.8700525 C93.7595043,38.9969275 92.3087797,40.5303525 91.1875768,41.4993775 C95.3325043,41.4993775 100.190359,39.3932525 101.549896,33.1993775 L101.549896,16.5993775 L118.129606,16.5993775 L118.129606,33.1993775 C119.491214,39.3932525 124.346997,41.4993775 128.491925,41.4993775 C127.370722,40.5303525 125.92207,38.9969275 125.068214,36.8700525" id="Fill-1" fill="#434854" sketch:type="MSShapeGroup" mask="url(#mask-2)"></path>
                    </g>
                    <path d="M120.202899,43.5752075 L120.202899,33.2002075 L99.4782609,33.2002075 L99.4782609,43.5752075 C89.1760435,43.5752075 76.6811594,49.8603825 76.6811594,60.1752075 C76.6811594,63.6134825 79.4644783,66.4002075 82.8985507,66.4002075 L136.782609,66.4002075 C140.216681,66.4002075 143,63.6134825 143,60.1752075 C143,49.8603825 130.505116,43.5752075 120.202899,43.5752075" id="Fill-4" fill="#EDD87E" sketch:type="MSShapeGroup"></path>
                    <path d="M118.130435,2.0752075 L101.550725,2.0752075 C96.9726522,2.0752075 93.2608696,5.7915325 93.2608696,10.3752075 L93.2608696,20.7502075 C93.2608696,32.2083575 100.684435,41.5002075 109.84058,41.5002075 C118.996725,41.5002075 126.42029,32.2083575 126.42029,20.7502075 L126.42029,10.3752075 C126.42029,5.7915325 122.708507,2.0752075 118.130435,2.0752075" id="Fill-6" fill="#EDD87E" sketch:type="MSShapeGroup"></path>
                    <path d="M120.202899,39.71716 L120.202899,36.93251 C117.363623,39.785635 113.763754,41.499585 109.84058,41.499585 C105.915333,41.499585 102.317536,39.785635 99.4782609,36.93251 L99.4782609,39.71716 C102.446029,42.151135 106.006522,43.574585 109.84058,43.574585 C113.674638,43.574585 117.23513,42.151135 120.202899,39.71716" id="Fill-8" opacity="0.2" fill="#000000" sketch:type="MSShapeGroup"></path>
                    <path d="M116.057971,2.067115 C115.863159,1.992415 115.260072,1.531765 114.665275,1.33049 C97.7063043,-4.16826 89.1283768,8.541115 89.1283768,18.27494 C90.4692609,18.521865 91.8474493,18.667115 93.2608696,18.667115 C100.543507,18.667115 107.013739,15.235065 111.185609,9.91269 C111.183536,11.653615 110.425014,13.931965 107.768116,16.592115 C113.985507,14.517115 116.057971,12.442115 117.728377,8.354365 C120.694072,12.87579 125.230696,16.260115 130.55071,17.774865 C130.55071,8.41039 128.053391,-1.937635 116.057971,2.067115" id="Fill-10" fill="#434854" sketch:type="MSShapeGroup"></path>
                    <path d="M120.202899,43.5752075 C120.202899,48.1588825 115.564725,51.8752075 109.84058,51.8752075 C104.116435,51.8752075 99.4782609,48.1588825 99.4782609,43.5752075 C89.1760435,43.5752075 76.6811594,49.8603825 76.6811594,60.1752075 C76.6811594,63.6134825 79.4644783,66.4002075 82.8985507,66.4002075 L136.782609,66.4002075 C140.216681,66.4002075 143,63.6134825 143,60.1752075 C143,49.8603825 130.505116,43.5752075 120.202899,43.5752075" id="Fill-12" fill="#EF4D4D" sketch:type="MSShapeGroup"></path>
                    <g id="Group-20" transform="translate(103.623188, 49.800000)" fill="#000000" sketch:type="MSShapeGroup">
                        <path d="M6.2173913,2.0752075 L6.2173913,16.6002075 L8.28985507,16.6002075 L8.28985507,1.9071325 C7.62044928,2.0171075 6.92824638,2.0752075 6.2173913,2.0752075" id="Fill-14"></path>
                        <path d="M2.07246377,4.1502075 C0.926391304,4.1502075 0,5.0777325 0,6.2252075 C0,7.3726825 0.926391304,8.3002075 2.07246377,8.3002075 C3.21853623,8.3002075 4.14492754,7.3726825 4.14492754,6.2252075 C4.14492754,5.0777325 3.21853623,4.1502075 2.07246377,4.1502075" id="Fill-16"></path>
                        <path d="M2.07246377,10.3752075 C0.926391304,10.3752075 0,11.3027325 0,12.4502075 C0,13.5976825 0.926391304,14.5252075 2.07246377,14.5252075 C3.21853623,14.5252075 4.14492754,13.5976825 4.14492754,12.4502075 C4.14492754,11.3027325 3.21853623,10.3752075 2.07246377,10.3752075" id="Fill-18"></path>
                    </g>
                    <path d="M116.057971,2.067115 C115.863159,1.992415 115.260072,1.531765 114.665275,1.33049 C97.7063043,-4.16826 89.1283768,8.541115 89.1283768,18.27494 C90.4692609,18.521865 91.8474493,18.667115 93.2608696,18.667115 C100.543507,18.667115 107.013739,15.235065 111.185609,9.91269 C111.183536,11.653615 110.425014,13.931965 107.768116,16.592115 C113.985507,14.517115 116.057971,12.442115 117.728377,8.354365 C120.694072,12.87579 125.230696,16.260115 130.55071,17.774865 C130.55071,8.41039 128.053391,-1.937635 116.057971,2.067115" id="Fill-21" fill="#434854" sketch:type="MSShapeGroup"></path>
                    <path d="M43.5217391,45.65 L43.5217391,35.275 L22.7971014,35.275 L22.7971014,45.65 C12.4948841,45.65 0,51.935175 0,62.25 C0,65.688275 2.78331884,68.475 6.2173913,68.475 L60.1014493,68.475 C63.5355217,68.475 66.3188406,65.688275 66.3188406,62.25 C66.3188406,51.935175 53.8239565,45.65 43.5217391,45.65" id="Fill-23" fill="#EDD87E" sketch:type="MSShapeGroup"></path>
                    <path d="M41.4492754,4.15 L24.8695652,4.15 C20.2914928,4.15 16.5797101,7.866325 16.5797101,12.45 L16.5797101,22.825 C16.5797101,34.28315 24.0032754,43.575 33.1594203,43.575 C42.3155652,43.575 49.7391304,34.28315 49.7391304,22.825 L49.7391304,12.45 C49.7391304,7.866325 46.0273478,4.15 41.4492754,4.15" id="Fill-25" fill="#EDD87E" sketch:type="MSShapeGroup"></path>
                    <path d="M43.5217391,41.7919525 L43.5217391,39.0073025 C40.6824638,41.8604275 37.0825942,43.5743775 33.1594203,43.5743775 C29.2341739,43.5743775 25.6363768,41.8604275 22.7971014,39.0073025 L22.7971014,41.7919525 C25.7648696,44.2259275 29.3253623,45.6493775 33.1594203,45.6493775 C36.9934783,45.6493775 40.553971,44.2259275 43.5217391,41.7919525" id="Fill-27" opacity="0.2" fill="#000000" sketch:type="MSShapeGroup"></path>
                    <path d="M51.8115942,12.45 C51.8115942,10.895825 50.9473768,9.555375 49.6852464,8.845725 C49.7080435,8.6652 49.7391304,8.48675 49.7391304,8.3 C49.7391304,6.0092 47.8822029,4.15 45.5942029,4.15 C44.7341304,4.15 43.9362319,4.413525 43.2751159,4.861725 C42.7072609,3.243225 41.1860725,2.075 39.3768116,2.075 C38.1312609,2.075 37.0266377,2.637325 36.2681159,3.504675 C35.5095942,2.637325 34.4028986,2.075 33.1594203,2.075 C31.9138696,2.075 30.8092464,2.637325 30.0507246,3.504675 C29.2922029,2.637325 28.1855072,2.075 26.942029,2.075 C25.1327681,2.075 23.6095072,3.243225 23.0437246,4.861725 C22.3826087,4.413525 21.5847101,4.15 20.7246377,4.15 C18.4345652,4.15 16.5797101,6.0092 16.5797101,8.3 C16.5797101,8.48675 16.6107971,8.6652 16.6335942,8.845725 C15.3714638,9.555375 14.5072464,10.895825 14.5072464,12.45 C14.5072464,16.6332 15.3403768,20.0279 16.5672754,20.75 C16.5009565,25.503825 16.3538116,24.6842 20.7246377,26.238375 L20.7246377,12.45 C20.7246377,12.45 24.8695652,8.3 33.1594203,8.3 C41.4492754,8.3 45.5942029,12.45 45.5942029,12.45 L45.5942029,26.238375 C49.965029,24.6842 49.7515652,20.75 49.7515652,20.75 C49.7515652,20.75 51.8115942,16.6332 51.8115942,12.45" id="Fill-29" fill="#434854" sketch:type="MSShapeGroup"></path>
                    <path d="M51.8115942,25.9375 C51.8115942,28.803075 50.8852029,31.125 49.7391304,31.125 C48.593058,31.125 47.6666667,28.803075 47.6666667,25.9375 C47.6666667,23.071925 48.593058,20.75 49.7391304,20.75 C50.8852029,20.75 51.8115942,23.071925 51.8115942,25.9375" id="Fill-31" fill="#EBCF60" sketch:type="MSShapeGroup"></path>
                    <path d="M18.6521739,25.9375 C18.6521739,28.803075 17.7257826,31.125 16.5797101,31.125 C15.4336377,31.125 14.5072464,28.803075 14.5072464,25.9375 C14.5072464,23.071925 15.4336377,20.75 16.5797101,20.75 C17.7257826,20.75 18.6521739,23.071925 18.6521739,25.9375" id="Fill-33" fill="#EBCF60" sketch:type="MSShapeGroup"></path>
                    <path d="M43.5217391,35.4939125 L43.5217391,35.2760375 L43.302058,35.2760375 C43.3766667,35.3486625 43.4492029,35.4212875 43.5217391,35.4939125" id="Fill-35" fill="#EBEBEB" sketch:type="MSShapeGroup"></path>
                    <path d="M23.0155391,35.275 L22.7979304,35.275 L22.7979304,35.492875 L23.0155391,35.275" id="Fill-37" fill="#EBEBEB" sketch:type="MSShapeGroup"></path>
                    <path d="M47.6502942,45.9743225 C47.4762072,53.8447975 41.0619319,60.1756225 33.1596275,60.1756225 C25.2552507,60.1756225 18.8430478,53.8447975 18.6689609,45.9743225 C9.43613478,47.3728725 0.000207246377,53.2866225 0.000207246377,62.2506225 C0.000207246377,65.6888975 2.78352609,68.4756225 6.21759855,68.4756225 L60.1016565,68.4756225 C63.535729,68.4756225 66.3190478,65.6888975 66.3190478,62.2506225 C66.3190478,53.2866225 56.8831203,47.3728725 47.6502942,45.9743225" id="Fill-39" fill="#EBEBEB" sketch:type="MSShapeGroup"></path>
                    <path d="M22.7971014,45.65 C12.4948841,45.65 0,51.935175 0,62.25 C0,65.688275 2.78331884,68.475 6.2173913,68.475 L29.0144928,68.475 L29.0144928,53.24865 C25.3565942,51.968375 22.7971014,49.053 22.7971014,45.65" id="Fill-41" fill="#84BF56" sketch:type="MSShapeGroup"></path>
                    <path d="M43.5217391,45.65 C43.5217391,49.053 40.9622464,51.968375 37.3043478,53.24865 L37.3043478,68.475 L60.1014493,68.475 C63.5355217,68.475 66.3188406,65.688275 66.3188406,62.25 C66.3188406,51.935175 53.8239565,45.65 43.5217391,45.65" id="Fill-43" fill="#84BF56" sketch:type="MSShapeGroup"></path>
                    <path d="M22.7971014,41.5 L18.6521739,45.971625 L29.0144928,58.1 L29.0144928,49.8 L22.7971014,41.5 Z" id="Fill-45" fill="#84BF56" sketch:type="MSShapeGroup"></path>
                    <path d="M43.5217391,41.5 L47.6666667,45.971625 L37.3043478,58.1 L37.3043478,49.8 L43.5217391,41.5 Z" id="Fill-47" fill="#84BF56" sketch:type="MSShapeGroup"></path>
                    <path d="M43.5217391,24.9 L37.3043478,24.9 L37.3043478,20.75 L43.5217391,20.75 L43.5217391,24.9 Z M29.0144928,24.9 L22.7971014,24.9 L22.7971014,20.75 L29.0144928,20.75 L29.0144928,24.9 Z M43.5217391,18.675 L37.3043478,18.675 C36.1582754,18.675 35.2318841,19.602525 35.2318841,20.75 L35.2318841,21.1318 C34.579058,20.8994 33.8889275,20.75 33.1594203,20.75 C32.4278406,20.75 31.7377101,20.8994 31.0869565,21.1318 L31.0869565,20.75 C31.0869565,19.602525 30.1605652,18.675 29.0144928,18.675 L22.7971014,18.675 C21.651029,18.675 20.7246377,19.602525 20.7246377,20.75 L20.7246377,24.9 C20.7246377,26.047475 21.651029,26.975 22.7971014,26.975 L29.0144928,26.975 C30.1605652,26.975 31.0869565,26.047475 31.0869565,24.9 L31.0869565,23.399775 C31.6983333,23.042875 32.4008986,22.825 33.1594203,22.825 C33.917942,22.825 34.6205072,23.042875 35.2318841,23.399775 L35.2318841,24.9 C35.2318841,26.047475 36.1582754,26.975 37.3043478,26.975 L43.5217391,26.975 C44.6678116,26.975 45.5942029,26.047475 45.5942029,24.9 L45.5942029,20.75 C45.5942029,19.602525 44.6678116,18.675 43.5217391,18.675 L43.5217391,18.675 Z" id="Fill-49" fill="#434854" sketch:type="MSShapeGroup"></path>
                    <path d="M22.7971014,41.5 L18.6521739,45.971625 L29.0144928,58.1 L29.0144928,49.8 L22.7971014,41.5 Z" id="Fill-51" opacity="0.2" fill="#000000" sketch:type="MSShapeGroup"></path>
                    <path d="M43.5217391,41.5 L47.6666667,45.971625 L37.3043478,58.1 L37.3043478,49.8 L43.5217391,41.5 Z" id="Fill-52" opacity="0.2" fill="#000000" sketch:type="MSShapeGroup"></path>
                    <path d="M78.7536232,60.175 L78.7536232,49.8 L58.0289855,49.8 L58.0289855,60.175 C47.7267681,60.175 35.2318841,66.460175 35.2318841,76.775 C35.2318841,80.213275 38.0152029,83 41.4492754,83 L95.3333333,83 C98.7674058,83 101.550725,80.213275 101.550725,76.775 C101.550725,66.460175 89.0558406,60.175 78.7536232,60.175" id="Fill-53" fill="#EDD87E" sketch:type="MSShapeGroup"></path>
                    <path d="M76.6811594,18.675 L60.1014493,18.675 C55.5233768,18.675 51.8115942,22.391325 51.8115942,26.975 L51.8115942,37.35 C51.8115942,48.80815 59.2351594,58.1 68.3913043,58.1 C77.5474493,58.1 84.9710145,48.80815 84.9710145,37.35 L84.9710145,26.975 C84.9710145,22.391325 81.2592319,18.675 76.6811594,18.675" id="Fill-54" fill="#EDD87E" sketch:type="MSShapeGroup"></path>
                    <path d="M72.5362319,16.6 L64.2463768,16.6 C55.9565217,16.6 49.7391304,22.825 49.7391304,31.125 C49.7391304,36.54075 51.1338986,39.049425 55.9565217,40.763375 L55.9565217,33.2 C63.8215217,33.2 71.0088261,30.41535 76.6915217,25.831675 C78.2355072,28.3694 80.826087,29.05 80.826087,29.05 L80.826087,40.763375 C85.6487101,39.049425 87.0434783,36.54075 87.0434783,31.125 C87.0434783,22.825 80.826087,16.6 72.5362319,16.6" id="Fill-55" fill="#434854" sketch:type="MSShapeGroup"></path>
                    <path d="M87.0434783,40.4625 C87.0434783,43.328075 86.117087,45.65 84.9710145,45.65 C83.824942,45.65 82.8985507,43.328075 82.8985507,40.4625 C82.8985507,37.596925 83.824942,35.275 84.9710145,35.275 C86.117087,35.275 87.0434783,37.596925 87.0434783,40.4625" id="Fill-56" fill="#EDD87E" sketch:type="MSShapeGroup"></path>
                    <path d="M53.884058,40.4625 C53.884058,43.328075 52.9576667,45.65 51.8115942,45.65 C50.6655217,45.65 49.7391304,43.328075 49.7391304,40.4625 C49.7391304,37.596925 50.6655217,35.275 51.8115942,35.275 C52.9576667,35.275 53.884058,37.596925 53.884058,40.4625" id="Fill-57" fill="#EDD87E" sketch:type="MSShapeGroup"></path>
                    <path d="M78.7536232,56.3169525 L78.7536232,53.5323025 C75.9143478,56.3854275 72.3165507,58.0993775 68.3913043,58.0993775 C64.466058,58.0993775 60.8682609,56.3854275 58.0289855,53.5323025 L58.0289855,56.3169525 C60.9967536,58.7509275 64.5572464,60.1743775 68.3913043,60.1743775 C72.2253623,60.1743775 75.7858551,58.7509275 78.7536232,56.3169525" id="Fill-58" opacity="0.2" fill="#000000" sketch:type="MSShapeGroup"></path>
                    <path d="M78.7536232,60.175 C78.7536232,64.758675 74.1154493,68.475 68.3913043,68.475 C62.6671594,68.475 58.0289855,64.758675 58.0289855,60.175 C47.7267681,60.175 35.2318841,66.460175 35.2318841,76.775 C35.2318841,80.213275 38.0152029,83 41.4492754,83 L95.3333333,83 C98.7674058,83 101.550725,80.213275 101.550725,76.775 C101.550725,66.460175 89.0558406,60.175 78.7536232,60.175" id="Fill-59" fill="#469FCC" sketch:type="MSShapeGroup"></path>
                </g>
            </g>
        </g>
    </g>
</svg>