<?xml version="1.0" encoding="UTF-8" standalone="no"?>
<svg width="134px" height="106px" viewBox="0 0 134 106" version="1.1" xmlns="http://www.w3.org/2000/svg" xmlns:xlink="http://www.w3.org/1999/xlink" xmlns:sketch="http://www.bohemiancoding.com/sketch/ns">
    <!-- Generator: Sketch 3.4.2 (15855) - http://www.bohemiancoding.com/sketch -->
    <title>Illustra_Sobre2_Livros</title>
    <desc>Created with Sketch.</desc>
    <defs></defs>
    <g id="HomePage" stroke="none" stroke-width="1" fill="none" fill-rule="evenodd" sketch:type="MSPage">
        <g id="OnePage---Large-Desktops" sketch:type="MSArtboardGroup" transform="translate(-442.000000, -1694.000000)">
            <g id="About-us" sketch:type="MSLayerGroup" transform="translate(60.000000, 1458.000000)">
                <g id="Illustra_Sobre2_Livros" transform="translate(382.000000, 236.000000)" sketch:type="MSShapeGroup">
                    <g id="Group-7" transform="translate(43.506494, 46.918033)" fill="#000000">
                        <path d="M58.6742494,3.44308852 C58.517626,3.2224 58.3540416,3.00344918 58.1921974,2.78623607 L60.9644312,0.68882623 C61.1523792,0.933842623 61.3351065,1.18233443 61.512613,1.43082623 L58.6742494,3.44308852 Z" id="Fill-1"></path>
                        <path d="M60.380574,6.18379672 C60.1264961,5.71287869 59.8602364,5.24891148 59.5748338,4.79015738 L62.5280545,2.95514098 C62.8552234,3.47645246 63.1632494,4.00819016 63.4503922,4.54861639 L60.380574,6.18379672 Z M61.720574,9.11878033 C61.5291455,8.62005902 61.3220545,8.1213377 61.097561,7.63130492 L64.2648338,6.18900984 C64.5206519,6.74681311 64.755587,7.30982951 64.9731195,7.87805902 L61.720574,9.11878033 Z M33.5649117,10.4776656 L33.0306519,7.04222295 C33.6658468,6.94317377 34.3236649,6.88756721 34.9849636,6.87540328 L35.0458727,10.3508131 C34.5429377,10.3595016 34.0452234,10.4029443 33.5649117,10.4776656 L33.5649117,10.4776656 Z M38.0391195,10.6792393 C37.5431455,10.5628131 37.0454312,10.4759279 36.5459766,10.4203213 L36.9288338,6.96576393 C37.5605481,7.03527213 38.2027039,7.14822295 38.8344182,7.29592787 L38.0391195,10.6792393 Z M30.7317688,11.3256656 L29.2734312,8.16999344 C29.8738208,7.89196066 30.491613,7.6591082 31.1163662,7.47143607 L32.1152753,10.8008787 C31.6488857,10.9398951 31.1842364,11.117141 30.7317688,11.3256656 L30.7317688,11.3256656 Z M40.9349117,11.706223 C40.4667818,11.482059 39.9882104,11.2856984 39.5061584,11.1119279 L40.6790935,7.83982951 C41.2707818,8.0500918 41.8555091,8.2951082 42.4332753,8.56966557 L40.9349117,11.706223 Z M62.6655351,12.1962557 C62.5419766,11.6749443 62.4010156,11.1571082 62.2409117,10.6410098 L65.5682883,9.62097705 C65.7492753,10.2065836 65.9111195,10.799141 66.0520805,11.3916984 L62.6655351,12.1962557 Z M28.1840286,12.9399934 L26.0017429,10.2309115 L26.4768338,9.85904262 C26.8388078,9.58274754 27.1938208,9.33773115 27.5523143,9.1100918 L29.4248338,12.0381246 C29.1446519,12.2171082 28.8679506,12.4099934 28.5929896,12.6150426 L28.1840286,12.9399934 Z M43.6062104,13.3153377 C43.1781065,13.0042885 42.7430416,12.7106164 42.2975351,12.4430098 L44.1021844,9.46979672 C44.6329636,9.79127213 45.1533013,10.1388131 45.6631974,10.5124197 L43.6062104,13.3153377 Z M25.9965221,15.1138623 L23.3043403,12.9104525 C23.7046,12.4256328 24.1309636,11.9547148 24.5816909,11.5063869 L27.0389377,13.9687148 C26.6700026,14.3336328 26.3219506,14.7159279 25.9965221,15.1138623 L25.9965221,15.1138623 Z M63.2067558,15.3658295 C63.1510675,14.8340918 63.0779766,14.3023541 62.9874831,13.7723541 L66.4175351,13.1884852 C66.5202104,13.7932066 66.6037429,14.3996656 66.6663922,15.0061246 L63.2067558,15.3658295 Z M45.9590416,15.3953705 L45.6388338,15.068682 C45.3708338,14.7976 45.1010935,14.5456328 44.8243922,14.3006164 L47.1284961,11.6975344 C47.462626,11.9929443 47.7915351,12.300518 48.1065221,12.618518 L48.4737169,12.9921246 L45.9590416,15.3953705 Z M24.2841065,17.6856656 L21.2038468,16.0661246 C21.4979506,15.5083213 21.8233792,14.9644197 22.1783922,14.432682 L25.0741844,16.3563213 C24.7870416,16.7907475 24.5242623,17.2321246 24.2841065,17.6856656 L24.2841065,17.6856656 Z M47.9272753,17.8316328 C47.6523143,17.4145836 47.3442883,16.9957967 47.0049377,16.5770098 L49.7110416,14.3927148 C50.1234831,14.9018623 50.4958987,15.4092721 50.8335091,15.9184197 L47.9272753,17.8316328 Z M66.8212753,18.672682 L63.3407558,18.5875344 L63.3477169,18.0175672 C63.3459766,17.6735016 63.3390156,17.3259607 63.3250935,16.976682 L66.8021325,16.8341902 C66.8195351,17.2251738 66.8264961,17.6161574 66.8282364,18.0088787 L66.8212753,18.672682 Z M49.2637948,20.5076984 C49.1106519,20.0576328 48.9192234,19.5988787 48.6895091,19.1418623 L51.7993532,17.5848787 C52.1021584,18.1843869 52.3597169,18.7943213 52.561587,19.3955672 L49.2637948,20.5076984 Z M23.121613,20.5546164 L19.7803143,19.5762885 C19.9578208,18.9698295 20.1666519,18.3737967 20.4050675,17.7847148 L23.6315091,19.0914689 C23.4366,19.5728131 23.2660545,20.0593705 23.121613,20.5546164 L23.121613,20.5546164 Z M66.5028078,22.3201246 L63.0623143,21.7970754 C63.1423662,21.2670754 63.2067558,20.7336 63.2520026,20.1983869 L66.7203403,20.4972721 C66.6663922,21.1072066 66.5950416,21.7154033 66.5028078,22.3201246 L66.5028078,22.3201246 Z M49.7649896,23.3575344 C49.7580286,22.8727148 49.7127818,22.3896328 49.6292494,21.9221902 L53.0558208,21.3139934 C53.1706779,21.9656328 53.2368078,22.6363869 53.2455091,23.307141 L49.7649896,23.3575344 Z M22.5473273,23.5956 L19.0807299,23.2967148 C19.1346779,22.6659279 19.2199506,22.0386164 19.3382883,21.416518 L22.7578987,22.0612066 C22.6621844,22.5686164 22.5908338,23.0812393 22.5473273,23.5956 L22.5473273,23.5956 Z M65.7266519,25.9032721 L62.3783922,24.9492721 C62.5263143,24.4314361 62.658574,23.9101246 62.7716909,23.3836 L66.1738987,24.1238623 C66.0433792,24.7216328 65.8954571,25.3141902 65.7266519,25.9032721 L65.7266519,25.9032721 Z M19.1294571,27.0796984 C19.0598468,26.4523869 19.0198208,25.8216 19.0111195,25.1908131 L22.491639,25.1404197 C22.4968597,25.6582557 22.5299247,26.1743541 22.5890935,26.6904525 L19.1294571,27.0796984 Z M52.695587,27.2048131 L49.3542883,26.2264852 C49.4969896,25.745141 49.6031455,25.262059 49.6727558,24.7894033 L53.1149896,25.2881246 C53.0244961,25.9206492 52.8817948,26.5653377 52.695587,27.2048131 L52.695587,27.2048131 Z M64.4945481,29.3543541 L61.2994312,27.9798295 C61.5117429,27.4863213 61.7083922,26.9876 61.8858987,26.4836656 L65.1662883,27.6479279 C64.9609377,28.2231082 64.7381844,28.7930754 64.4945481,29.3543541 L64.4945481,29.3543541 Z M51.1641584,30.7288787 L48.1465481,28.9946492 C48.4058468,28.5428459 48.6390416,28.0875672 48.8391714,27.6305508 L52.0273273,29.0224525 C51.7767299,29.5958951 51.489587,30.1658623 51.1641584,30.7288787 L51.1641584,30.7288787 Z M19.9351974,30.786223 C19.7385481,30.1815016 19.5732234,29.5680918 19.4409636,28.9512066 L22.8431714,28.2213705 C22.9510675,28.7235672 23.0850675,29.2205508 23.2451714,29.7105836 L19.9351974,30.786223 Z M62.8360805,32.6247148 L59.837613,30.8557311 C60.112574,30.3952393 60.3718727,29.9225836 60.6155091,29.4447148 L63.7183922,31.0190754 C63.4416909,31.5612393 63.147587,32.0981902 62.8360805,32.6247148 L62.8360805,32.6247148 Z M49.0253792,33.7872393 L46.3366779,31.5768787 C46.6812494,31.1615672 47.0031974,30.7410426 47.3025221,30.3153049 L50.1513273,32.3101902 C49.8015351,32.8071738 49.4238987,33.2989443 49.0253792,33.7872393 L49.0253792,33.7872393 Z M21.466626,34.2529443 C21.151639,33.7003541 20.8679766,33.1338623 20.6121584,32.5604197 L23.798574,31.1546164 C24.0056649,31.6272721 24.2371195,32.0877639 24.4946779,32.5430426 L21.466626,34.2529443 Z M60.7669117,35.6552721 L58.0242623,33.5161574 C58.3549117,33.0921574 58.6733792,32.6577311 58.9744442,32.2163541 L61.8510935,34.1712721 C61.5065221,34.6769443 61.1445481,35.1704525 60.7669117,35.6552721 L60.7669117,35.6552721 Z M46.5159247,36.4580918 L44.1230675,33.936682 C44.5233273,33.5578623 44.9044442,33.1738295 45.2681584,32.7863213 L47.8071974,35.1652393 C47.3964961,35.6014033 46.9666519,36.0323541 46.5159247,36.4580918 L46.5159247,36.4580918 Z M23.6297688,37.3321574 C23.3774312,37.0332721 23.1303143,36.7256984 22.8901584,36.4111738 C22.7509377,36.2287148 22.6134571,36.0427803 22.4794571,35.8516328 L25.3265221,33.8532721 C25.4344182,34.0061902 25.5440545,34.1556328 25.6571714,34.3033377 C25.8660026,34.5744197 26.076574,34.8368131 26.2941065,35.0957311 L23.6297688,37.3321574 Z M58.3253273,38.3938951 L55.8785221,35.9194033 C56.2648597,35.5423213 56.6355351,35.1496 56.9922883,34.7499279 L59.5887558,37.0645508 C59.1850156,37.5180918 58.7621325,37.9612066 58.3253273,38.3938951 L58.3253273,38.3938951 Z M43.7889377,38.8092066 L41.6240545,36.0879607 C42.0626,35.7404197 42.4907039,35.391141 42.9048857,35.0349115 L45.1724442,37.6710098 C44.7234571,38.0550426 44.2605481,38.4356 43.7889377,38.8092066 L43.7889377,38.8092066 Z M26.2558208,39.9769443 C25.7876909,39.5772721 25.3317429,39.1550098 24.8914571,38.7136328 L27.3591455,36.2599934 C27.7350416,36.6353377 28.1231195,36.9967803 28.521639,37.3408459 L26.2558208,39.9769443 Z M55.5583143,40.7954033 L53.4438987,38.0324525 C53.8772234,37.7040262 54.2931455,37.3616984 54.698626,37.0124197 L56.976626,39.6398295 C56.5189377,40.0360262 56.045587,40.4217967 55.5583143,40.7954033 L55.5583143,40.7954033 Z M40.8931455,40.9153049 L38.9353532,38.0446164 C39.3982623,37.7283541 39.8559506,37.4103541 40.3031974,37.0836656 L42.3532234,39.8935344 C41.8746519,40.2410754 41.3873792,40.5799279 40.8931455,40.9153049 L40.8931455,40.9153049 Z M29.2647299,42.162977 C28.7356909,41.8415016 28.220574,41.4939607 27.7141584,41.1273049 L29.7676649,38.3209115 C30.1940286,38.6336984 30.6360545,38.9256328 31.0833013,39.2001902 L29.2647299,42.162977 Z M52.4293273,42.811141 L50.7760805,39.7527803 C51.2372494,39.5042885 51.6949377,39.236682 52.1421844,38.9464852 L54.0321065,41.8658295 C53.5065481,42.204682 52.9705481,42.5209443 52.4293273,42.811141 L52.4293273,42.811141 Z M49.0149377,44.3073049 L47.8750675,41.0230426 C48.3727818,40.8510098 48.8652753,40.6598623 49.3508078,40.4461246 L50.7517169,43.6296 C50.1774312,43.8798295 49.5996649,44.1057311 49.0149377,44.3073049 L49.0149377,44.3073049 Z M45.3986779,45.2352393 L44.8104701,41.810223 C45.3290675,41.7198623 45.8424442,41.6103869 46.3558208,41.480059 L47.2259506,44.842518 C46.6220805,45.0006492 46.0112494,45.130977 45.3986779,45.2352393 L45.3986779,45.2352393 Z M39.8281065,45.520223 C39.208574,45.4767803 38.5907818,45.4090098 37.9747299,45.3186492 L38.397613,42.5035672 C38.2253273,42.6095672 38.0513013,42.7120918 37.8772753,42.8146164 L36.1039506,39.8240262 C36.5860026,39.5390426 37.064574,39.2488459 37.5344442,38.9516984 L39.3930416,41.8918951 C39.3460545,41.9196984 39.3008078,41.9492393 39.2520805,41.980518 C39.523561,42.0083213 39.7950416,42.0326492 40.0665221,42.0517639 L39.8281065,45.520223 Z M41.6867039,45.5723541 L41.6553792,42.0969443 C42.1826779,42.0917311 42.7099766,42.0656656 43.2337948,42.0170098 L43.5540026,45.478518 C42.9309896,45.5358623 42.3079766,45.567141 41.6867039,45.5723541 L41.6867039,45.5723541 Z M31.5931974,46.084977 L30.1348597,42.9293049 C30.5003143,42.7607475 30.8640286,42.5887148 31.2277429,42.4149443 L32.4650675,39.9682557 C32.9366779,40.208059 33.4204701,40.4252721 33.9094831,40.6251082 L33.6832494,41.1759607 C34.0086779,41.0021902 34.3288857,40.8284197 34.6490935,40.6529115 L35.2286,41.6990098 L35.3974052,41.1655344 C35.9038208,41.3236656 36.4154571,41.4644197 36.9270935,41.5825836 L36.1457169,44.9693705 C35.5418468,44.8303541 34.9414571,44.6670098 34.3497688,44.4776 L34.5011714,43.9979934 L33.392626,41.8832066 L32.5903662,43.8433377 C32.5381584,43.8207475 32.4876909,43.7981574 32.4337429,43.7790426 L33.1907558,45.3256 C32.6617169,45.584518 32.1291974,45.838223 31.5931974,46.084977 L31.5931974,46.084977 Z M28.3493532,47.4838295 L27.0371974,44.2656 C27.5557948,44.0536 28.0761325,43.8363869 28.5929896,43.612223 L29.9764961,46.8026492 C29.4352753,47.0372393 28.890574,47.2648787 28.3493532,47.4838295 L28.3493532,47.4838295 Z M25.0480805,48.7332393 L23.8751455,45.4628787 C24.4024442,45.2734689 24.9349636,45.0805836 25.4674831,44.8807475 L26.699587,48.128518 C26.1479247,48.3387803 25.5962623,48.5386164 25.0480805,48.7332393 L25.0480805,48.7332393 Z M21.6806779,49.8297311 L20.6713273,46.5037639 C21.2021065,46.3421574 21.7433273,46.1753377 22.2845481,45.9980918 L23.3635091,49.3032066 C22.7961844,49.4874033 22.2358208,49.6629115 21.6806779,49.8297311 L21.6806779,49.8297311 Z M18.2419247,50.7541902 L17.4361844,47.3743541 C17.9687039,47.2475016 18.5099247,47.110223 19.0598468,46.9607803 L19.9665221,50.3162885 C19.3835351,50.472682 18.8075091,50.6203869 18.2419247,50.7541902 L18.2419247,50.7541902 Z M5.35704156,51.4162557 C4.5164961,51.1486492 3.80821039,50.7750426 3.24784675,50.3093377 L5.4806,47.640223 C5.69117143,47.8174689 6.01485974,47.9790754 6.41685974,48.1076656 L5.35704156,51.4162557 Z M14.7387818,51.4718623 L14.1610156,48.0433705 C14.6952753,47.9530098 15.2434571,47.852223 15.8003403,47.7375344 L16.4999247,51.1416984 C15.9012753,51.2633377 15.3148078,51.3745508 14.7387818,51.4718623 L14.7387818,51.4718623 Z M11.1381844,51.9028131 L10.9032494,48.4326164 C11.4253273,48.3996 11.9682883,48.3474689 12.5286519,48.2796984 L12.9532753,51.7273049 C12.3285221,51.8055016 11.7211714,51.8611082 11.1381844,51.9028131 L11.1381844,51.9028131 Z M9.28132727,51.9549443 C8.59566494,51.9497311 7.95350909,51.9097639 7.35834026,51.8350426 L7.78992468,48.3874361 C8.25979481,48.4447803 8.76969091,48.4743213 9.31091169,48.4795344 L9.28132727,51.9549443 Z" id="Fill-3"></path>
                        <path d="M1.75052727,47.6900951 C1.68613766,47.2695705 1.68091688,46.8229803 1.73312468,46.3642262 L5.19102078,46.7621607 C5.17361818,46.9150787 5.17361818,47.0506197 5.19102078,47.1635705 L1.75052727,47.6900951 Z" id="Fill-5"></path>
                    </g>
                    <path d="M46.987013,102.52459 L6.96103896,102.52459 C5.03805195,102.52459 3.48051948,100.969344 3.48051948,99.0491803 L3.48051948,95.5737705 C3.48051948,93.6553443 5.03805195,92.0983607 6.96103896,92.0983607 L46.987013,92.0983607 C47.9493766,92.0983607 48.7272727,91.3216066 48.7272727,90.3606557 C48.7272727,89.3997049 47.9493766,88.6229508 46.987013,88.6229508 L3.48051948,88.6229508 C1.55753247,88.6229508 0,90.1799344 0,92.0983607 L0,102.52459 C0,104.444754 1.55753247,106 3.48051948,106 L46.987013,106 C47.9493766,106 48.7272727,105.223246 48.7272727,104.262295 C48.7272727,103.301344 47.9493766,102.52459 46.987013,102.52459" id="Fill-8" fill="#EF4D4D"></path>
                    <path d="M6.96103896,92.0983607 C5.03805195,92.0983607 3.48051948,93.6553443 3.48051948,95.5737705 L3.48051948,99.0491803 C3.48051948,100.969344 5.03805195,102.52459 6.96103896,102.52459 L46.987013,102.52459 L46.987013,92.0983607 L6.96103896,92.0983607 Z" id="Fill-10" fill="#EBEBEB"></path>
                    <g id="Group-16" fill="#000000">
                        <path d="M3.48051948,97.3114754 L46.987013,97.3114754 L46.987013,95.5737705 L3.48051948,95.5737705 L3.48051948,97.3114754 Z" id="Fill-12"></path>
                        <path d="M6.96103896,92.0983607 C5.67672727,92.0983607 4.56644156,92.8003934 3.96257143,93.8360656 L46.987013,93.8360656 L46.987013,92.0983607 L6.96103896,92.0983607 Z" id="Fill-14"></path>
                        <path d="M3.96309351,100.786885 L46.9875351,100.786885 L46.9875351,99.0491803 L3.48104156,99.0491803 C3.48104156,99.6851803 3.66376883,100.274262 3.96309351,100.786885" id="Fill-15"></path>
                    </g>
                    <path d="M8.7012987,74.7213115 L48.7272727,74.7213115 C50.6485195,74.7213115 52.2077922,76.2782951 52.2077922,78.1967213 L52.2077922,81.6721311 C52.2077922,83.5922951 50.6485195,85.147541 48.7272727,85.147541 L8.7012987,85.147541 C7.73893506,85.147541 6.96103896,85.9242951 6.96103896,86.8852459 C6.96103896,87.8461967 7.73893506,88.6229508 8.7012987,88.6229508 L52.2077922,88.6229508 C54.129039,88.6229508 55.6883117,87.0677049 55.6883117,85.147541 L55.6883117,74.7213115 C55.6883117,72.8028852 54.129039,71.2459016 52.2077922,71.2459016 L8.7012987,71.2459016 C7.73893506,71.2459016 6.96103896,72.0226557 6.96103896,72.9836066 C6.96103896,73.9445574 7.73893506,74.7213115 8.7012987,74.7213115" id="Fill-17" fill="#434854"></path>
                    <path d="M48.7272727,85.147541 C50.6485195,85.147541 52.2077922,83.5922951 52.2077922,81.6721311 L52.2077922,78.1967213 C52.2077922,76.2782951 50.6485195,74.7213115 48.7272727,74.7213115 L8.7012987,74.7213115 L8.7012987,85.147541 L48.7272727,85.147541 Z" id="Fill-19" fill="#EBEBEB"></path>
                    <g id="Group-25" fill="#000000">
                        <path d="M52.2077922,79.9344262 L8.7012987,79.9344262 L8.7012987,81.6721311 L52.2077922,81.6721311 L52.2077922,79.9344262 Z" id="Fill-21"></path>
                        <path d="M48.7272727,85.147541 C50.0115844,85.147541 51.1218701,84.4455082 51.7257403,83.4098361 L8.7012987,83.4098361 L8.7012987,85.147541 L48.7272727,85.147541 Z" id="Fill-23"></path>
                        <path d="M51.7250442,76.4590164 L8.7006026,76.4590164 L8.7006026,78.1967213 L52.2070961,78.1967213 C52.2070961,77.5607213 52.0243688,76.9716393 51.7250442,76.4590164" id="Fill-24"></path>
                    </g>
                    <path d="M50.4675325,67.7671902 L10.4415584,67.7671902 C8.51857143,67.7671902 6.96103896,66.2102066 6.96103896,64.2917803 L6.96103896,60.8163705 C6.96103896,58.8962066 8.51857143,57.3409607 10.4415584,57.3409607 L50.4675325,57.3409607 C51.4298961,57.3409607 52.2077922,56.5642066 52.2077922,55.6032557 C52.2077922,54.6423049 51.4298961,53.8655508 50.4675325,53.8655508 L6.96103896,53.8655508 C5.03805195,53.8655508 3.48051948,55.4207967 3.48051948,57.3409607 L3.48051948,67.7671902 C3.48051948,69.6856164 5.03805195,71.2426 6.96103896,71.2426 L50.4675325,71.2426 C51.4298961,71.2426 52.2077922,70.4658459 52.2077922,69.5048951 C52.2077922,68.5439443 51.4298961,67.7671902 50.4675325,67.7671902" id="Fill-26" fill="#469FCC"></path>
                    <path d="M10.4415584,57.3409607 C8.51857143,57.3409607 6.96103896,58.8962066 6.96103896,60.8163705 L6.96103896,64.2917803 C6.96103896,66.2102066 8.51857143,67.7671902 10.4415584,67.7671902 L50.4675325,67.7671902 L50.4675325,57.3409607 L10.4415584,57.3409607 Z" id="Fill-28" fill="#EBEBEB"></path>
                    <g id="Group-34" transform="translate(6.000000, 57.000000)" fill="#000000">
                        <path d="M0.961038961,5.55390164 L44.4675325,5.55390164 L44.4675325,3.81619672 L0.961038961,3.81619672 L0.961038961,5.55390164 Z" id="Fill-30"></path>
                        <path d="M4.44155844,0.340960656 C3.15724675,0.340960656 2.04696104,1.04299344 1.44309091,2.07866557 L44.4675325,2.07866557 L44.4675325,0.340960656 L4.44155844,0.340960656 Z" id="Fill-32"></path>
                        <path d="M1.44361299,9.02948525 L44.4680545,9.02948525 L44.4680545,7.29178033 L0.961561039,7.29178033 C0.961561039,7.92778033 1.14428831,8.5168623 1.44361299,9.02948525" id="Fill-33"></path>
                    </g>
                    <path d="M12.1818182,66.0327869 L12.1818182,79.9344262 L14.7922078,78.1967213 L17.4025974,79.9344262 L17.4025974,66.0327869 L12.1818182,66.0327869 Z" id="Fill-35" fill="#EBCA44"></path>
                    <path d="M12.1818182,79.9344262 L12.1818182,81.6721311 L14.7922078,79.9344262 L17.4025974,81.6721311 L17.4025974,79.9344262 L14.7922078,78.1967213 L12.1818182,79.9344262 Z" id="Fill-37" opacity="0.5" fill="#000000"></path>
                    <path d="M14.7922078,78.1967213 L15.6623377,78.775377 L15.6623377,66.0327869 L13.9220779,66.0327869 L13.9220779,78.775377 L14.7922078,78.1967213 Z" id="Fill-39" opacity="0.3" fill="#000000"></path>
                    <path d="M93.9849896,27.8114459 L99.2057688,45.1884951 L102.686288,31.2868557 L130.530444,3.48357705 L93.9849896,27.8114459 Z" id="Fill-41" fill="#E6E6E6"></path>
                    <path d="M133.236026,0.700642623 C132.078753,-0.533127869 129.811195,0.11677377 128.010026,0.723232787 L80.0623896,20.8614951 C77.7791688,21.8380852 77.8870649,24.7713311 79.8674805,25.3708393 L93.9844675,27.8123148 L102.685766,31.2877246 L119.218234,47.7959213 C120.251948,48.7655607 122.890182,49.4241508 123.568883,46.9270689 L133.631065,6.00933115 C133.928649,4.37936393 134.445506,1.99001967 133.236026,0.700642623" id="Fill-43" fill="#EBEBEB"></path>
                    <path d="M93.9849896,27.8114459 L99.2057688,45.1884951 L102.686288,31.2868557 L130.530444,3.48357705 L93.9849896,27.8114459 Z" id="Fill-45" opacity="0.2" fill="#000000"></path>
                    <path d="M99.2057688,45.1884951 L107.907068,36.4999705 L102.686288,31.2868557 L99.2057688,45.1884951 Z" id="Fill-47" opacity="0.75" fill="#434854"></path>
                </g>
            </g>
        </g>
    </g>
</svg>