<svg xmlns="http://www.w3.org/2000/svg" viewBox="0 0 750 500"><g id="freepik--Floor--inject-2"><path d="M739.09,415.92h-724a.5.5,0,0,1-.5-.5.5.5,0,0,1,.5-.5h724a.5.5,0,0,1,.5.5A.5.5,0,0,1,739.09,415.92Z" style="fill:#263238"></path></g><g id="freepik--Lamp--inject-2"><rect x="697.97" y="142.29" width="4.66" height="273.14" style="fill:#263238"></rect><path d="M702.63,415.92H698a.5.5,0,0,1-.5-.5V142.29a.5.5,0,0,1,.5-.5h4.66a.5.5,0,0,1,.5.5V415.42A.5.5,0,0,1,702.63,415.92Zm-4.16-1h3.66V142.79h-3.66Z" style="fill:#263238"></path><rect x="676.05" y="132.98" width="50.04" height="55.87" style="fill:#92E3A9"></rect><path d="M726.09,189.34h-50a.5.5,0,0,1-.5-.5V133a.5.5,0,0,1,.5-.5h50a.5.5,0,0,1,.5.5v55.86A.5.5,0,0,1,726.09,189.34Zm-49.54-1h49V133.48h-49Z" style="fill:#263238"></path><rect x="676.05" y="408.82" width="50.04" height="6.61" style="fill:#263238"></rect><path d="M726.09,415.92h-50a.5.5,0,0,1-.5-.5v-6.6a.5.5,0,0,1,.5-.5h50a.5.5,0,0,1,.5.5v6.6A.5.5,0,0,1,726.09,415.92Zm-49.54-1h49v-5.6h-49Z" style="fill:#263238"></path></g><g id="freepik--Plant--inject-2"><path d="M35.45,268.7s-2.44,6.71-7.62,7.62S13.5,267.17,19.29,262,33,265,35.45,268.7Z" style="fill:#92E3A9"></path><path d="M27.14,276.88c-3.39,0-7.54-3.53-9.26-7.07-1.56-3.2-1.17-6.19,1.08-8.19a6.65,6.65,0,0,1,5.47-1.74c4.61.59,9.36,5.43,11.44,8.54a.48.48,0,0,1,.05.45c-.1.29-2.6,7-8,7.94A3.94,3.94,0,0,1,27.14,276.88Zm-3.63-16.05a5.71,5.71,0,0,0-3.89,1.53c-2.58,2.31-1.63,5.39-.84,7,1.85,3.8,6.19,6.93,9,6.45,4.31-.76,6.67-5.91,7.15-7.07-2-3-6.41-7.35-10.58-7.88A5.46,5.46,0,0,0,23.51,260.83Z" style="fill:#263238"></path><path d="M43.38,235.77s-7.62,18.6-4.58,27.75,22,15.85,27.45,4S59.54,238.82,55,235.16,44.9,232.72,43.38,235.77Z" style="fill:#92E3A9"></path><path d="M55.69,274.37l-1,0c-7.21-.4-14.56-5.18-16.39-10.67-3.07-9.21,4.27-27.33,4.59-28.09v0a6,6,0,0,1,4.16-2.95,9.86,9.86,0,0,1,8.19,2.18c4.68,3.75,17,20.77,11.42,32.92C64.7,272,60.81,274.37,55.69,274.37ZM43.83,236c-.26.66-7.47,18.63-4.55,27.38,1.68,5,8.78,9.61,15.5,10,3,.16,8.4-.4,11-6.07,5.38-11.65-6.6-28.09-11.14-31.72a8.84,8.84,0,0,0-7.34-2A5,5,0,0,0,43.83,236Z" style="fill:#263238"></path><path d="M87.9,243.7s-13.12,11.89-14.64,23.78,7.32,16.16,16.47,14.64,13.72-24.7,11-35.38S87.9,243.7,87.9,243.7Z" style="fill:#92E3A9"></path><path d="M86.2,282.92a14.29,14.29,0,0,1-10.07-3.59c-2.85-2.75-4-6.87-3.37-11.91,1.53-11.94,14.26-23.6,14.8-24.09l0,0c.21-.16,5.14-3.84,9.24-2.42,2.1.74,3.57,2.67,4.36,5.74,2,7.72.21,23-5.06,31.05-1.87,2.89-4,4.55-6.32,4.94A22.67,22.67,0,0,1,86.2,282.92Zm2-38.84c-.55.5-13,12.09-14.46,23.46-.61,4.73.45,8.55,3.06,11.07,2.9,2.79,7.57,3.89,12.82,3,2-.34,3.94-1.85,5.66-4.49,5.12-7.88,6.85-22.74,4.92-30.26-.7-2.73-2-4.42-3.72-5C93,240.61,88.53,243.85,88.22,244.08Z" style="fill:#263238"></path><path d="M90.34,309.56s-14.64.61-15.25,7.62,6.4,8.54,13.42,2.44S96.43,309.86,90.34,309.56Z" style="fill:#92E3A9"></path><path d="M80.16,323.94a6.11,6.11,0,0,1-2.78-.63c-2-1-3-3.24-2.79-6.17.64-7.37,15.11-8.06,15.72-8.08h0c2.49.12,4,.82,4.41,2.06.66,1.93-1.28,4.83-5.94,8.88C85.88,322.56,82.78,323.94,80.16,323.94Zm10.17-13.88c-.63,0-14.19.79-14.74,7.16-.22,2.51.58,4.35,2.25,5.2,2.56,1.3,6.62.06,10.34-3.18,5.58-4.85,5.93-7,5.64-7.79C93.47,310.43,91.74,310.13,90.33,310.06Z" style="fill:#263238"></path><path d="M75.54,319.31l-.42-.91c.48-.22,11.66-5.32,16.85-6.23l.18,1C87.08,314.05,75.65,319.25,75.54,319.31Z" style="fill:#263238"></path><path d="M93.6,355.45S82.85,345.5,77.44,350s-1.54,10.56,7.73,11.23S97.68,360,93.6,355.45Z" style="fill:#92E3A9"></path><path d="M88.5,361.88c-1,0-2.14-.05-3.36-.14-5.41-.39-9.41-2.61-10.43-5.78-.71-2.2.15-4.45,2.41-6.34,5.68-4.74,16.37,5,16.82,5.46l0,0c1.67,1.86,2.22,3.4,1.64,4.58C94.89,361.15,92.56,361.88,88.5,361.88Zm-7.6-12.55a4.78,4.78,0,0,0-3.14,1.06c-1.92,1.61-2.67,3.48-2.1,5.26.88,2.74,4.63,4.74,9.55,5.09,7.37.54,9.12-.7,9.5-1.49.48-1-.53-2.41-1.47-3.45C92.86,355.45,86.06,349.33,80.9,349.33Z" style="fill:#263238"></path><path d="M92.33,359.27c-4.21-3-16-7.4-16.08-7.44l.36-.94c.48.18,12,4.52,16.29,7.56Z" style="fill:#263238"></path><path d="M36.89,352.52S51.71,338.8,59.16,345s2.12,14.56-10.66,15.49S31.26,358.77,36.89,352.52Z" style="fill:#92E3A9"></path><path d="M43.89,361.19c-5.5,0-8.65-1-9.6-2.9-.77-1.56,0-3.61,2.23-6.11l0,0c.62-.57,15.23-13.94,22.93-7.51,3.05,2.55,4.21,5.57,3.26,8.52-1.38,4.3-6.82,7.31-14.2,7.85Q46,361.19,43.89,361.19Zm-6.64-8.32c-1.34,1.48-2.77,3.55-2.07,5,.56,1.12,3,2.91,13.29,2.16,6.85-.5,12.08-3.31,13.32-7.15.82-2.54-.23-5.18-2.95-7.46C51.91,339.62,37.81,352.36,37.25,352.87Z" style="fill:#263238"></path><path d="M38.53,357.63l-.57-.82c5.92-4.18,21.75-10.14,22.42-10.4l.35.94C60.57,347.41,44.36,353.52,38.53,357.63Z" style="fill:#263238"></path><path d="M54.05,324.19s-1.52,7.32-7,10.07S31.79,331.21,37,322.36,51.31,320.53,54.05,324.19Z" style="fill:#92E3A9"></path><path d="M44,335.43a9.59,9.59,0,0,1-6.87-2.95c-2.6-2.77-2.8-6.55-.57-10.37,1.67-2.84,3.88-4.36,6.56-4.52,4.63-.28,9.42,3.73,11.35,6.3a.51.51,0,0,1,.09.41c-.06.3-1.64,7.58-7.28,10.4A7.27,7.27,0,0,1,44,335.43Zm-.45-16.85h-.38c-2.32.13-4.26,1.49-5.74,4-2,3.4-1.84,6.75.43,9.18s6.27,3.37,9,2c4.69-2.34,6.39-8.29,6.7-9.5C51.56,321.82,47.35,318.58,43.53,318.58Z" style="fill:#263238"></path><path d="M41.24,301.33s-2.74-6.1-13.41-2.14-14.94,10.06-8.23,12.2S41.24,301.33,41.24,301.33Z" style="fill:#92E3A9"></path><path d="M21.34,312.13a6.15,6.15,0,0,1-1.9-.27c-2.9-.92-3.54-2.44-3.56-3.56-.08-3.13,4.54-6.89,11.77-9.58,11-4.08,14,2.33,14.05,2.4a.49.49,0,0,1-.14.59C41,302.17,28.7,312.13,21.34,312.13Zm13-13.79A18.39,18.39,0,0,0,28,299.66c-7.71,2.87-11.17,6.47-11.12,8.61,0,1.44,1.58,2.23,2.87,2.64,5.84,1.86,18.64-8,20.85-9.71C40.07,300.38,38.37,298.34,34.36,298.34Z" style="fill:#263238"></path><path d="M22.11,307.84l-.65-.76c6.16-5.23,17.22-6.48,17.69-6.53l.1,1C39.14,301.56,28,302.81,22.11,307.84Z" style="fill:#263238"></path><path d="M71.74,228.15s1.83,4.26,5.48,3.35,4.58-6.4,10.37-4.88,10.67,8.23,10.67,5.18-7.31-11-15.55-11S72,224.18,71.74,228.15Z" style="fill:#92E3A9"></path><path d="M97.8,233.09c-.69,0-1.61-.7-3.07-1.82-1.9-1.45-4.5-3.44-7.27-4.17-3.3-.86-4.84.7-6.47,2.35A8,8,0,0,1,77.35,232c-3.23.81-5.38-2-6.07-3.64a.37.37,0,0,1,0-.23c.39-5.17,4.26-7.78,11.47-7.78,8.29,0,16.05,7.89,16.05,11.47,0,.23,0,.93-.55,1.2A.91.91,0,0,1,97.8,233.09Zm-12.11-7.24a7.87,7.87,0,0,1,2,.29c3,.78,5.65,2.83,7.61,4.34a11.37,11.37,0,0,0,2.41,1.6,1.43,1.43,0,0,0,0-.28c0-2.56-6.77-10.47-15.05-10.47-6.63,0-10.06,2.2-10.46,6.73.3.63,1.92,3.68,4.85,2.95a7.18,7.18,0,0,0,3.18-2.26C81.63,227.38,83.13,225.85,85.69,225.85Z" style="fill:#263238"></path><path d="M60.73,318a40.21,40.21,0,0,0-1.36-4.41c-5.25-14-17.51-11.84-18-11.74l-.19-1c.13,0,13.61-2.42,19.16,12.38a41.56,41.56,0,0,1,1.39,4.52Z" style="fill:#263238"></path><path d="M96,287.2s2.74-6.1,13.42-2.13,14.94,10.06,8.23,12.19S96,287.2,96,287.2Z" style="fill:#92E3A9"></path><path d="M115.94,298c-7.36,0-19.65-10-20.22-10.42a.51.51,0,0,1-.14-.59c0-.07,3.07-6.48,14-2.4,7.23,2.68,11.85,6.44,11.78,9.57,0,1.12-.67,2.65-3.57,3.57A6.42,6.42,0,0,1,115.94,298ZM96.68,287.08c2.21,1.74,15,11.57,20.86,9.71,1.29-.41,2.83-1.21,2.87-2.64,0-2.14-3.41-5.75-11.13-8.61C100.56,282.29,97.43,285.91,96.68,287.08Z" style="fill:#263238"></path><path d="M114.28,293.72c-5-6.14-15.67-5.62-15.77-5.62l-.06-1c.46,0,11.32-.55,16.61,6Z" style="fill:#263238"></path><path d="M87.15,288.9l-.4-.92a17.22,17.22,0,0,1,9.38-1.27l-.18,1A16.62,16.62,0,0,0,87.15,288.9Z" style="fill:#263238"></path><path d="M47.89,276.61c-6.23-6.36-12.45-7.41-12.52-7.42s-9.22-2.38-12.64.75l-.67-.73c3.82-3.51,13.13-1.1,13.52-1,.21,0,6.54,1.08,13,7.69Z" style="fill:#263238"></path><rect x="48.76" y="239.9" width="1" height="2.61" transform="translate(-51.52 16.6) rotate(-12.62)" style="fill:#263238"></rect><path d="M64.9,377.3l-1,0c0-.52,1.35-52.66,0-68.4s-7.66-34.32-7.72-34.51l-6.51-29.07,1-.21,6.5,29c0,.14,6.4,18.87,7.76,34.7S64.91,376.77,64.9,377.3Z" style="fill:#263238"></path><rect x="90.7" y="252" width="2.78" height="1" transform="translate(-175.65 228.95) rotate(-64.94)" style="fill:#263238"></rect><path d="M68.09,377.23h-1c0-.48.47-48.08,2.28-61.62s9.06-35,9.13-35.18l11.21-24,.91.43-11.19,24c-.05.17-7.27,21.48-9.07,34.94S68.09,376.75,68.09,377.23Z" style="fill:#263238"></path><path d="M70.82,377.32l-1-.06c1.8-30.64,5-58.19,5-58.47l1,.12C75.8,319.18,72.62,346.71,70.82,377.32Z" style="fill:#263238"></path><path d="M60.34,377.24l-1,0c0-.44.89-43.79-.89-49.56-.61-2-1.44-3.2-2.39-3.48a2.06,2.06,0,0,0-1.68.39l-.12.1-.15,0c-.08,0-8.23,1-11.12,5.65l-.85-.53c3-4.75,10.56-5.94,11.71-6.1a3,3,0,0,1,2.49-.49c1.31.38,2.34,1.78,3.07,4.14C61.23,333.29,60.38,375.45,60.34,377.24Z" style="fill:#263238"></path><path d="M62.62,377.3l-1-.05c0-.43,2.17-42.76-.18-55.9l1-.18C64.79,334.43,62.64,376.87,62.62,377.3Z" style="fill:#263238"></path><path d="M72.1,377.3c0-2.6-.56-63.72,4.87-78.22a19.68,19.68,0,0,1,7.12-9.62l.56.82a18.66,18.66,0,0,0-6.74,9.16c-5.37,14.32-4.82,77.22-4.81,77.85Z" style="fill:#263238"></path><path d="M66.72,377.29l-1-.13c1.29-9.41-1.31-64-8.63-85a42.89,42.89,0,0,0-7.64-13.8l.76-.65A43.87,43.87,0,0,1,58,291.81C65.39,313,68,367.84,66.72,377.29Z" style="fill:#263238"></path><path d="M68.09,377.23h-1c0-.53.32-53.46.75-79.61h1C68.41,323.77,68.09,376.7,68.09,377.23Z" style="fill:#263238"></path><path d="M68.9,294.33l-1,0c.36-21.07.7-35.82,1-43.82.79-20.51,2-22.45,2.45-22.76.5-1.13,2.92-5.35,11.57-4.79l-.07,1c-8.92-.59-10.58,4.16-10.65,4.36L72,229l-.18-.16c-.39,1.07-1.25,5.28-1.88,21.65C69.6,258.52,69.26,273.26,68.9,294.33Z" style="fill:#263238"></path><path d="M56.73,314.3s-7.62-6.8-4.57-10.14,22-5.8,27.44-1.45-6.71,10.47-11.28,11.81S58.26,315.41,56.73,314.3Z" style="fill:#92E3A9"></path><path d="M62.23,315.85c-2.6,0-4.82-.44-5.79-1.15l0,0c-.22-.19-5.27-4.74-5.46-8.39a3.28,3.28,0,0,1,.85-2.46c3.3-3.62,22.39-6,28.12-1.5a3.42,3.42,0,0,1,1.52,3.46c-.8,4.1-9.48,8.2-13,9.22A22.86,22.86,0,0,1,62.23,315.85Zm-5.18-1.94c1.37,1,6.61,1.45,11.13.13,3.82-1.12,11.62-5.11,12.27-8.45a2.48,2.48,0,0,0-1.16-2.49c-5.19-4.11-23.86-1.79-26.76,1.39a2.3,2.3,0,0,0-.59,1.74C52.1,309.37,56.72,313.61,57.05,313.91Z" style="fill:#263238"></path><path d="M64.1,310.76h-1a13.46,13.46,0,0,1,.18-2.11l1,.16A12.65,12.65,0,0,0,64.1,310.76Z" style="fill:#263238"></path><path d="M64.92,306l-1-.29a33.94,33.94,0,0,1,2-5.13l.89.45A34.47,34.47,0,0,0,64.92,306Z" style="fill:#263238"></path><path d="M56.73,358.74S49.11,352,52.16,348.6s22-5.79,27.44-1.45S72.89,357.63,68.32,359,58.26,359.86,56.73,358.74Z" style="fill:#92E3A9"></path><path d="M62.23,360.3c-2.59,0-4.82-.44-5.79-1.15l0,0c-.22-.2-5.27-4.74-5.46-8.39a3.25,3.25,0,0,1,.85-2.46c3.3-3.63,22.4-6,28.12-1.51a3.43,3.43,0,0,1,1.52,3.47c-.8,4.1-9.48,8.2-13,9.22A22.86,22.86,0,0,1,62.23,360.3Zm-5.18-1.95c1.37,1,6.61,1.46,11.13.14C72,357.37,79.8,353.37,80.45,350a2.48,2.48,0,0,0-1.16-2.49c-5.19-4.11-23.86-1.79-26.76,1.39a2.29,2.29,0,0,0-.59,1.73C52.1,353.81,56.72,358.05,57.05,358.35Z" style="fill:#263238"></path><path d="M64.1,355.21h-1c0-4.45,2.73-10,2.85-10.19l.89.44C66.81,345.52,64.1,351,64.1,355.21Z" style="fill:#263238"></path><path d="M62.41,340s-5.18-4.62-3.11-6.89,14.91-3.93,18.63-1-4.55,7.11-7.66,8S63.44,340.7,62.41,340Z" style="fill:#92E3A9"></path><path d="M66.16,341.16a7.89,7.89,0,0,1-4-.81l0,0c-.14-.13-3.62-3.26-3.75-5.81a2.38,2.38,0,0,1,.61-1.79c2.27-2.48,15.38-4.15,19.31-1a2.45,2.45,0,0,1,1.09,2.51c-.58,3-6.83,5.77-8.92,6.38A15.65,15.65,0,0,1,66.16,341.16Zm-3.44-1.6c.89.62,4.45.93,7.41.06,2.57-.75,7.79-3.41,8.22-5.62a1.53,1.53,0,0,0-.73-1.53c-3.48-2.76-16-1.21-18,.93a1.35,1.35,0,0,0-.35,1.06C59.41,336.21,61.78,338.71,62.72,339.56Z" style="fill:#263238"></path><path d="M67.57,337.54h-1c0-3.05,1.87-6.83,2-7l.89.44S67.57,334.72,67.57,337.54Z" style="fill:#263238"></path><rect x="55.25" y="369.67" width="20.64" height="45.76" style="fill:#fff"></rect><path d="M75.88,415.92H55.25a.5.5,0,0,1-.5-.5V369.67a.5.5,0,0,1,.5-.5H75.88a.5.5,0,0,1,.5.5v45.75A.5.5,0,0,1,75.88,415.92Zm-20.13-1H75.38V370.17H55.75Z" style="fill:#263238"></path></g><g id="freepik--character-4--inject-2"><rect x="663.09" y="359.56" width="2.78" height="55.28" style="fill:#fff"></rect><path d="M665.87,415.34h-2.78a.5.5,0,0,1-.5-.5V359.56a.5.5,0,0,1,.5-.5h2.78a.5.5,0,0,1,.5.5v55.28A.51.51,0,0,1,665.87,415.34Zm-2.28-1h1.78V360.06h-1.78Z" style="fill:#263238"></path><rect x="525.66" y="359.56" width="2.78" height="55.28" style="fill:#fff"></rect><path d="M528.44,415.34h-2.78a.5.5,0,0,1-.5-.5V359.56a.5.5,0,0,1,.5-.5h2.78a.5.5,0,0,1,.5.5v55.28A.51.51,0,0,1,528.44,415.34Zm-2.28-1h1.78V360.06h-1.78Z" style="fill:#263238"></path><rect x="532.76" y="265.05" width="122.61" height="81.84" style="fill:#fff"></rect><path d="M655.37,347.39H532.76a.5.5,0,0,1-.5-.5V265.05a.5.5,0,0,1,.5-.5H655.37a.51.51,0,0,1,.5.5v81.84A.5.5,0,0,1,655.37,347.39Zm-122.11-1H654.87V265.55H533.26Z" style="fill:#263238"></path><rect x="543.26" y="337.91" width="104.39" height="24.43" style="fill:#fff"></rect><path d="M647.65,362.84H543.26a.5.5,0,0,1-.5-.5V337.91a.5.5,0,0,1,.5-.5H647.65a.5.5,0,0,1,.5.5v24.43A.51.51,0,0,1,647.65,362.84Zm-103.89-1H647.15V338.41H543.76Z" style="fill:#263238"></path><rect x="521.9" y="300.13" width="21.36" height="62.2" style="fill:#fff"></rect><path d="M543.26,362.84H521.9a.51.51,0,0,1-.5-.5V300.13a.51.51,0,0,1,.5-.5h21.36a.5.5,0,0,1,.5.5v62.21A.5.5,0,0,1,543.26,362.84Zm-20.86-1h20.36V300.63H522.4Z" style="fill:#263238"></path><rect x="647.6" y="300.13" width="21.36" height="62.2" style="fill:#fff"></rect><path d="M669,362.84H647.6a.5.5,0,0,1-.5-.5V300.13a.5.5,0,0,1,.5-.5H669a.51.51,0,0,1,.5.5v62.21A.51.51,0,0,1,669,362.84Zm-20.86-1h20.36V300.63H648.1Z" style="fill:#263238"></path><path d="M540.66,380.47l.46,13.67s-5,8.65-6.38,10.25-9.79,7.74-11.16,9.11-.46,2.73.68,3.41,32.12,0,32.12,0,2-1.13,1.82-4.55-2.5-27.79-2.5-27.79Z" style="fill:#fff"></path><path d="M533.85,417.72c-5.24,0-9.37-.1-9.84-.38a3.06,3.06,0,0,1-1.6-2.15,2.43,2.43,0,0,1,.82-2.05c.61-.61,2.46-2.05,4.61-3.72a75.68,75.68,0,0,0,6.52-5.36c1.24-1.44,5.64-9,6.26-10.05l-.45-13.52a.48.48,0,0,1,.18-.41.49.49,0,0,1,.45-.09l15,4.1a.49.49,0,0,1,.37.43c0,.25,2.28,24.42,2.5,27.81.25,3.69-2,5-2.07,5a.53.53,0,0,1-.24.06C552,417.51,541.69,417.72,533.85,417.72Zm7.34-36.59.43,13a.52.52,0,0,1-.07.27c-.2.35-5,8.71-6.43,10.32a74.11,74.11,0,0,1-6.67,5.5c-2,1.58-4,3.08-4.52,3.64a1.48,1.48,0,0,0-.53,1.22,2.16,2.16,0,0,0,1.12,1.42c1.21.42,19.58.19,31.71-.07.36-.26,1.65-1.37,1.48-4-.21-3.15-2.2-24.45-2.48-27.43Z" style="fill:#263238"></path><path d="M547,394.36a8.17,8.17,0,0,0-5.92-.22s-5,8.65-6.38,10.25-9.79,7.74-11.16,9.11-.46,2.73.68,3.41,32.12,0,32.12,0,2-1.13,1.82-4.55c-.1-1.51-.6-7.13-1.13-12.93l-5.7-1A8.54,8.54,0,0,0,547,394.36Z" style="fill:#fff"></path><path d="M533.85,417.72c-5.24,0-9.37-.1-9.84-.38a3.06,3.06,0,0,1-1.6-2.15,2.43,2.43,0,0,1,.82-2.05c.61-.61,2.46-2.05,4.61-3.72a75.68,75.68,0,0,0,6.52-5.36c1.32-1.54,6.28-10.09,6.33-10.18a.55.55,0,0,1,.24-.21,8.62,8.62,0,0,1,6.31.23h0a9.15,9.15,0,0,1,4.47,4.11l5.45.93a.5.5,0,0,1,.41.45c.68,7.42,1,11.66,1.13,12.94.25,3.69-2,5-2.07,5a.53.53,0,0,1-.24.06C552,417.51,541.69,417.72,533.85,417.72Zm7.61-23.18c-.71,1.22-5,8.66-6.34,10.17a74.11,74.11,0,0,1-6.67,5.5c-2,1.58-4,3.08-4.52,3.64a1.48,1.48,0,0,0-.53,1.22,2.16,2.16,0,0,0,1.12,1.42c1.21.42,19.58.19,31.71-.07.36-.26,1.65-1.37,1.48-4-.09-1.23-.45-5.44-1.1-12.53l-5.32-.9a.53.53,0,0,1-.38-.3,8.09,8.09,0,0,0-4.06-3.84h0A7.92,7.92,0,0,0,541.46,394.54Z" style="fill:#263238"></path><path d="M642.74,380.47l-.45,13.67s5,8.65,6.38,10.25,9.79,7.74,11.16,9.11.45,2.73-.69,3.41-32.11,0-32.11,0-2-1.13-1.83-4.55,2.51-27.79,2.51-27.79Z" style="fill:#fff"></path><path d="M649.55,417.72c-7.83,0-18.16-.21-22.54-.31a.46.46,0,0,1-.23-.06c-.09-.05-2.32-1.33-2.08-5,.23-3.39,2.49-27.56,2.51-27.81a.49.49,0,0,1,.37-.43l15-4.1a.49.49,0,0,1,.44.09.46.46,0,0,1,.19.41L642.79,394c.62,1.06,5,8.61,6.26,10.05a75.68,75.68,0,0,0,6.52,5.36c2.14,1.67,4,3.11,4.61,3.72a2.43,2.43,0,0,1,.82,2.05,3.09,3.09,0,0,1-1.6,2.15C658.93,417.62,654.8,417.72,649.55,417.72Zm-22.37-1.3c12.13.26,30.5.5,31.74.05a2.18,2.18,0,0,0,1.09-1.4,1.49,1.49,0,0,0-.54-1.22c-.56-.56-2.48-2.06-4.52-3.64a73.57,73.57,0,0,1-6.66-5.5c-1.38-1.61-6.23-10-6.44-10.32a.51.51,0,0,1-.06-.27l.43-13L628.17,385c-.27,3-2.26,24.28-2.47,27.43C625.53,415.05,626.81,416.16,627.18,416.42Z" style="fill:#263238"></path><path d="M636.36,394.36a8.2,8.2,0,0,1,5.93-.22s5,8.65,6.38,10.25,9.79,7.74,11.16,9.11.45,2.73-.69,3.41-32.11,0-32.11,0-2-1.13-1.83-4.55c.1-1.51.61-7.13,1.14-12.93l5.7-1A8.55,8.55,0,0,1,636.36,394.36Z" style="fill:#fff"></path><path d="M649.55,417.72c-7.83,0-18.16-.21-22.54-.31a.46.46,0,0,1-.23-.06c-.09-.05-2.32-1.33-2.08-5,.09-1.28.46-5.52,1.14-12.94a.5.5,0,0,1,.41-.45l5.45-.93a9.15,9.15,0,0,1,4.47-4.11h0a8.63,8.63,0,0,1,6.31-.23.55.55,0,0,1,.24.21c0,.09,5,8.64,6.33,10.18a75.68,75.68,0,0,0,6.52,5.36c2.14,1.67,4,3.11,4.61,3.72a2.43,2.43,0,0,1,.82,2.05,3.09,3.09,0,0,1-1.6,2.15C658.93,417.62,654.8,417.72,649.55,417.72Zm-22.37-1.3c12.13.26,30.5.5,31.74.05a2.18,2.18,0,0,0,1.09-1.4,1.49,1.49,0,0,0-.54-1.22c-.56-.56-2.48-2.06-4.52-3.64a73.57,73.57,0,0,1-6.66-5.5c-1.3-1.51-5.63-8.95-6.34-10.17a7.93,7.93,0,0,0-5.39.28,8.09,8.09,0,0,0-4.06,3.84.53.53,0,0,1-.38.3l-5.32.9c-.65,7.09-1,11.3-1.1,12.53C625.53,415.05,626.81,416.16,627.18,416.42Zm4.86-18h0Z" style="fill:#263238"></path><path d="M543.63,296.87a16.19,16.19,0,0,0-12.76,13c-2.28,11.39,4.56,73.58,4.56,73.58l22.77,3.87,1.6-49.08h61.73l3.64,49.54s22.33-6.38,22.1-5.7-.68-36.67-.68-36.67,2.73-32.8,1.36-36.45-3-7.29-4.78-8.43-17.43-.66-19.36-.22-22.55,5.46-29.84,4.55-23.61.84-27-.53S549.09,292.77,543.63,296.87Z" style="fill:#999"></path><path d="M625.17,388.26a.47.47,0,0,1-.28-.09.54.54,0,0,1-.22-.38l-3.61-49.07H560.28l-1.58,48.6a.49.49,0,0,1-.18.37.48.48,0,0,1-.4.1l-22.78-3.87a.49.49,0,0,1-.41-.44c-.28-2.54-6.82-62.39-4.55-73.72a16.78,16.78,0,0,1,13-13.36c4.58-3.25,14.32,2.26,20.15,5.55,1.59.9,2.84,1.61,3.56,1.9,1.72.69,7.43.52,13,.37a108,108,0,0,1,13.95.13c4.34.54,14.66-1,29.06-4.41l.61-.14c1.73-.4,17.65-1,19.73.29s3.65,5.09,5,8.68-1.22,35.32-1.33,36.66c.17,13.84.47,34.69.64,36.43a.5.5,0,0,1,0,.36.51.51,0,0,1-.55.35.32.32,0,0,1-.17-.06c-1.7.14-14.06,3.54-21.71,5.73ZM559.8,337.72h61.73a.5.5,0,0,1,.5.47l3.6,48.92c14.82-4.23,19.54-5.33,21.13-5.51-.17-1.61-.24-6-.42-17.88-.14-9.16-.25-18.33-.25-18.33.76-9.14,2.48-33.37,1.4-36.27-1.22-3.24-2.83-7.09-4.58-8.18-1.59-1-16.86-.65-19-.17l-.6.14c-10.27,2.42-23.72,5.14-29.41,4.43a107.59,107.59,0,0,0-13.8-.12c-6.14.17-11.44.32-13.35-.44-.78-.32-2.06-1-3.68-1.95-5.29-3-15.15-8.57-19.15-5.56a.5.5,0,0,1-.23.09A15.56,15.56,0,0,0,531.36,310c-2.15,10.73,4,67.85,4.52,73.05l21.84,3.71,1.58-48.5A.51.51,0,0,1,559.8,337.72Zm-16.17-40.85h0Z" style="fill:#263238"></path><path d="M559.8,338.72a.5.5,0,0,1-.5-.5V326.33c-.29-1-3.79-12.74-7.81-16.33a.5.5,0,1,1,.67-.75c4.39,3.93,8,16.34,8.12,16.87a.59.59,0,0,1,0,.13v12A.5.5,0,0,1,559.8,338.72Z" style="fill:#263238"></path><path d="M558.89,317.19a.51.51,0,0,1-.49-.39,20.78,20.78,0,0,0-3.55-7.09.5.5,0,0,1,.08-.7.49.49,0,0,1,.7.08,21.34,21.34,0,0,1,3.74,7.48.49.49,0,0,1-.37.6Z" style="fill:#263238"></path><path d="M621.53,338.72a.5.5,0,0,1-.5-.5v-12l-.68-13.41a.49.49,0,0,1,.47-.52.47.47,0,0,1,.53.47l.68,13.44v12A.5.5,0,0,1,621.53,338.72Z" style="fill:#263238"></path><path d="M619,319.69a.49.49,0,0,1-.48-.38l-1.6-6.84a.5.5,0,0,1,1-.22l1.59,6.83a.5.5,0,0,1-.37.6Z" style="fill:#263238"></path><path d="M591.74,324.49a.49.49,0,0,1-.47-.34C590.4,321.53,585,315,585,315a.49.49,0,0,1,.07-.7.49.49,0,0,1,.7.06c.23.27,5.54,6.71,6.47,9.5a.5.5,0,0,1-.32.63A.41.41,0,0,1,591.74,324.49Z" style="fill:#263238"></path><path d="M594,321.6a.52.52,0,0,1-.42-.22.51.51,0,0,1,.13-.69l4.33-3a.5.5,0,0,1,.7.13.51.51,0,0,1-.13.69l-4.33,3A.51.51,0,0,1,594,321.6Z" style="fill:#263238"></path><path d="M645.67,343.38a.5.5,0,0,1-.49-.46l-1.6-23a.5.5,0,0,1,1-.07l1.59,23a.49.49,0,0,1-.46.53Z" style="fill:#263238"></path><path d="M533.83,360h0a.5.5,0,0,1-.48-.52l1.14-31.2a.5.5,0,0,1,.52-.49.52.52,0,0,1,.48.52l-1.14,31.21A.5.5,0,0,1,533.83,360Z" style="fill:#263238"></path><path d="M584.86,225.87s-17.57,4.06-21.08,5.95-5.4,6.49-6.48,8.65-13.52,46.75-13.25,48.64,12.43,5.13,12.43,5.13L565.94,271,567,294.24l-.08,10.07s18.11,10,25.13,11.08,10.49-1.69,15.35-3.85,14.46-10.81,14.46-10.81l23.51-5.68s-4.6-44-5.95-48.64-6.48-14.86-11.35-15.94c-5.34-1.19-16.21-4.6-16.21-4.6Z" style="fill:#92E3A9"></path><path d="M595.08,316.13a19,19,0,0,1-3.08-.25c-7-1.08-24.56-10.72-25.3-11.13a.51.51,0,0,1-.26-.44l.08-10.07-1-20.94L557,294.43a.5.5,0,0,1-.59.29c-3.76-1-12.52-3.54-12.8-5.54s12.33-47,13.29-48.94c.12-.23.24-.5.38-.78,1.14-2.37,3-6.32,6.31-8.08,3.54-1.9,20.49-5.83,21.21-6h27.13a.39.39,0,0,1,.15,0c.11,0,10.91,3.41,16.17,4.58s10.46,12,11.72,16.29c1.35,4.59,5.78,46.93,6,48.73a.51.51,0,0,1-.38.54l-23.39,5.64c-1.07,1-9.82,8.74-14.49,10.82-.91.4-1.77.83-2.62,1.24C602,314.72,599.18,316.13,595.08,316.13ZM567.44,304c2.25,1.22,18.3,9.89,24.71,10.88,5.54.85,8.73-.73,12.42-2.55.86-.43,1.73-.86,2.65-1.27,4.73-2.1,14.23-10.64,14.32-10.72a.53.53,0,0,1,.22-.12l23.09-5.57c-.49-4.6-4.63-43.86-5.89-48.12-1.44-4.91-6.49-14.6-11-15.59-5.08-1.13-15.22-4.28-16.19-4.58H584.92c-1.09.25-17.58,4.09-20.9,5.88-3,1.61-4.8,5.38-5.89,7.63l-.39.8c-1.36,2.72-13.32,46.56-13.19,48.35.17.84,5.45,2.92,11.64,4.6l9.29-22.83a.5.5,0,0,1,1,.17l1.08,23.24Z" style="fill:#263238"></path><path d="M549.47,267.45c-2.94,10.74-5.54,20.78-5.42,21.66.27,1.89,12.43,5.13,12.43,5.13l8.2-20.13Z" style="fill:#d1d1d1"></path><path d="M556.48,294.74a.25.25,0,0,1-.12,0c-3.76-1-12.52-3.54-12.8-5.54C543.4,288,546.89,275,549,267.32a.51.51,0,0,1,.69-.33l15.21,6.67a.49.49,0,0,1,.26.64L557,294.43A.51.51,0,0,1,556.48,294.74Zm-6.68-26.6c-3.94,14.43-5.29,20.28-5.25,20.9.17.84,5.45,2.92,11.64,4.6L564,274.38Z" style="fill:#263238"></path><path d="M642.72,270.72l-15.13,3.57.18,25,17.62-4.25S644.12,282.92,642.72,270.72Z" style="fill:#d1d1d1"></path><path d="M627.77,299.8a.5.5,0,0,1-.31-.1.51.51,0,0,1-.19-.39l-.18-25a.51.51,0,0,1,.39-.49l15.13-3.57a.52.52,0,0,1,.4.08.47.47,0,0,1,.21.35c1.38,12.06,2.65,24.22,2.67,24.34a.51.51,0,0,1-.38.54l-17.62,4.25Zm.32-25.11.18,24,16.58-4c-.24-2.24-1.35-12.75-2.56-23.33Z" style="fill:#263238"></path><path d="M587.83,221.55l-6.48,4.6,3.78,27,16.75-11.62,16.49,11.35s-1.9-21.35-3-25.13a7.56,7.56,0,0,0-4.86-4.87Z" style="fill:#92E3A9"></path><path d="M585.13,253.67a.46.46,0,0,1-.2,0,.49.49,0,0,1-.3-.38l-3.78-27a.47.47,0,0,1,.21-.47l6.48-4.6a.59.59,0,0,1,.32-.09l22.7,1.35.11,0a8,8,0,0,1,5.2,5.21c1.09,3.78,2.92,24.35,3,25.22a.49.49,0,0,1-.24.48.5.5,0,0,1-.54,0l-16.2-11.15-16.47,11.42A.47.47,0,0,1,585.13,253.67Zm-3.25-27.29,3.63,25.91,16.09-11.15a.5.5,0,0,1,.57,0l15.6,10.74c-.4-4.35-1.94-20.76-2.86-24a7.07,7.07,0,0,0-4.47-4.5L588,222.06Z" style="fill:#263238"></path><path d="M590,232.19s3.56,8,5.18,10.71,7,11.35,7,11.35l5.68-17.84,2.16-4Z" style="fill:#d1d1d1"></path><path d="M602.15,254.75a.49.49,0,0,1-.42-.24c-.06-.08-5.43-8.68-7-11.35s-5.06-10.43-5.21-10.76a.51.51,0,0,1,0-.48.52.52,0,0,1,.42-.23h0l20,.17a.5.5,0,0,1,.43.24.52.52,0,0,1,0,.5l-2.16,4.05-5.64,17.75a.5.5,0,0,1-.42.34ZM590.72,232.7c.91,2,3.53,7.77,4.84,9.94s5,8.13,6.44,10.43l5.35-16.81,1.81-3.41Z" style="fill:#263238"></path><path d="M593.6,187.4a13.86,13.86,0,0,0-7.79,8.28c-2.19,6.33-.73,15.58-.73,15.58s-4.14-1.71-4.62,1.7a8.51,8.51,0,0,0,2.43,7.31,5.86,5.86,0,0,0,3.17,1s3.16,9.49,3.89,10.95,6.33,6.33,8.28,6.82,7.79-1.22,7.79-1.22,4.87-6.57,5.11-8,3.65-9.74,4.14-13.15,2.19-16.55.49-20-4.87-8.52-11.2-10A18.06,18.06,0,0,0,593.6,187.4Z" style="fill:#d1d1d1"></path><path d="M599.12,239.6a4.26,4.26,0,0,1-1-.1c-2.2-.55-7.85-5.56-8.61-7.08-.67-1.34-3.24-9-3.81-10.7a5.92,5.92,0,0,1-3.11-1.06,9.06,9.06,0,0,1-2.62-7.77,2.79,2.79,0,0,1,1.33-2.16,4.46,4.46,0,0,1,3.19-.19c-.31-2.4-1-9.66.86-15a14.24,14.24,0,0,1,8.07-8.57,18.49,18.49,0,0,1,11.26-.76c7.25,1.67,10.47,8.13,11.53,10.25,1.77,3.54.11,16.4-.44,20.25a63,63,0,0,1-2.83,9.25c-.66,1.82-1.22,3.4-1.31,3.91-.25,1.54-4.7,7.57-5.2,8.25a.51.51,0,0,1-.26.18A32.55,32.55,0,0,1,599.12,239.6ZM583,211.33a2.33,2.33,0,0,0-1.16.26A1.82,1.82,0,0,0,581,213a8,8,0,0,0,2.25,6.85,5.33,5.33,0,0,0,2.86.86.51.51,0,0,1,.47.34c0,.1,3.16,9.48,3.87,10.89s6.21,6.12,8,6.56c1.44.36,5.66-.68,7.37-1.17,1.86-2.52,4.76-6.72,4.92-7.68a41.15,41.15,0,0,1,1.34-4.09,62.75,62.75,0,0,0,2.79-9.05c1.07-7.44,1.84-17.06.54-19.67-1.75-3.49-4.78-8.31-10.86-9.71a17.74,17.74,0,0,0-10.63.69l-.05,0a13.5,13.5,0,0,0-7.49,8c-2.12,6.14-.72,15.25-.7,15.34a.52.52,0,0,1-.19.47.5.5,0,0,1-.5.07A5.79,5.79,0,0,0,583,211.33ZM593.6,187.4h0Z" style="fill:#263238"></path><path d="M604.56,186.67a18.06,18.06,0,0,0-11,.73,13.86,13.86,0,0,0-7.79,8.28c-2.19,6.33-.73,15.58-.73,15.58a11.62,11.62,0,0,0,2.92,1.22c.73,0,4.14-1,4.38-3.17s1-8.76,1-8.76a72.5,72.5,0,0,0,9.49,2.19c3.9.48,10.47-2,10.47-2l2.19,6.82.55,2.36c.48-5,.78-11.15-.3-13.32C614.05,193.24,610.89,188.13,604.56,186.67Z" style="fill:#263238"></path><path d="M588,213a10.78,10.78,0,0,1-3.16-1.28.49.49,0,0,1-.25-.36c-.06-.39-1.46-9.45.75-15.83a14.2,14.2,0,0,1,8.1-8.58,18.38,18.38,0,0,1,11.23-.75h0c7.25,1.67,10.47,8.13,11.53,10.25.93,1.85,1,6.42.36,13.59a.49.49,0,0,1-.47.45.48.48,0,0,1-.52-.38l-.54-2.37-2-6.29c-1.62.56-6.82,2.23-10.21,1.8a69.06,69.06,0,0,1-9-2l-.91,8.17C592.59,212,588.76,213,588,213Zm-2.46-2a9.59,9.59,0,0,0,2.46,1c.61,0,3.69-.92,3.89-2.72l1-8.77a.51.51,0,0,1,.22-.36.49.49,0,0,1,.42-.06,72.51,72.51,0,0,0,9.42,2.17c3.73.46,10.16-1.9,10.23-1.92a.48.48,0,0,1,.39,0,.51.51,0,0,1,.26.3l2,6.27c.36-5.14.19-8.66-.5-10-1.75-3.49-4.78-8.31-10.86-9.71a17.74,17.74,0,0,0-10.63.69,13.51,13.51,0,0,0-7.54,8C584.35,201.42,585.33,209.45,585.54,210.94Z" style="fill:#263238"></path><path d="M615,219.31a.46.46,0,0,1-.23-.06.5.5,0,0,1-.27-.5l1-8.83a.5.5,0,0,1,.47-.44,3,3,0,0,1,2.29.87,3.1,3.1,0,0,1,.61,2.69c-.51,3.3-3.44,6-3.57,6.13A.47.47,0,0,1,615,219.31Zm1.47-8.81-.8,6.84a9.85,9.85,0,0,0,2.24-4.45,2.19,2.19,0,0,0-.35-1.86A1.8,1.8,0,0,0,616.5,210.5Z" style="fill:#263238"></path><path d="M605,228.56h0l-4.13-.25a.5.5,0,0,1,0-1l3.64.22.46-8.75a.51.51,0,0,1,.53-.47.49.49,0,0,1,.47.52l-.49,9.25a.46.46,0,0,1-.16.35A.51.51,0,0,1,605,228.56Z" style="fill:#263238"></path><path d="M602.11,231.68a9.06,9.06,0,0,1-3.88-1,.5.5,0,1,1,.48-.88,7.2,7.2,0,0,0,4.73.69.5.5,0,0,1,.62.33.51.51,0,0,1-.33.63A5.7,5.7,0,0,1,602.11,231.68Z" style="fill:#263238"></path><path d="M597.49,221.24a6.07,6.07,0,0,1-4-1.59.51.51,0,0,1,0-.71.5.5,0,0,1,.71,0,4.9,4.9,0,0,0,5.29.87.5.5,0,0,1,.66.26.51.51,0,0,1-.26.66A6.1,6.1,0,0,1,597.49,221.24Z" style="fill:#263238"></path><path d="M609.68,221a4,4,0,0,1-2.27-.79.5.5,0,1,1,.62-.78h0a3,3,0,0,0,1.94.55,2.64,2.64,0,0,0,1.73-1.19.5.5,0,1,1,.81.59,3.62,3.62,0,0,1-2.42,1.6Z" style="fill:#263238"></path><path d="M599,217.23a18,18,0,0,1-5-.87.49.49,0,0,1-.31-.63.5.5,0,0,1,.63-.32s3.68,1.21,6.16.69a.49.49,0,0,1,.59.38.5.5,0,0,1-.38.6A8,8,0,0,1,599,217.23Z" style="fill:#263238"></path><path d="M607.41,217a.5.5,0,0,1-.5-.5.5.5,0,0,1,.5-.5,17.22,17.22,0,0,0,5.65-.93.5.5,0,0,1,.67.24.5.5,0,0,1-.24.66A17.8,17.8,0,0,1,607.41,217Z" style="fill:#263238"></path><polygon points="576.61 265.3 572.85 296.31 603.87 303.82 607.78 274.44 576.61 265.3" style="fill:#263238"></polygon><path d="M603.87,304.32h-.12l-31-7.51a.5.5,0,0,1-.38-.55l3.75-31a.51.51,0,0,1,.22-.36.52.52,0,0,1,.42-.06L607.92,274a.5.5,0,0,1,.36.55l-3.92,29.38a.48.48,0,0,1-.21.34A.49.49,0,0,1,603.87,304.32Zm-30.47-8.39,30,7.27,3.79-28.4L577,266Z" style="fill:#263238"></path><polygon points="607.78 274.44 636.51 263.99 630.63 295.01 603.87 303.82 607.78 274.44" style="fill:#263238"></polygon><path d="M603.87,304.32a.5.5,0,0,1-.5-.57l3.92-29.38a.49.49,0,0,1,.32-.4l28.73-10.45a.53.53,0,0,1,.5.09.51.51,0,0,1,.16.48l-5.87,31a.52.52,0,0,1-.34.38L604,304.29Zm4.37-29.51-3.77,28.29,25.73-8.48,5.66-29.86Z" style="fill:#263238"></path><path d="M607.78,274.44A6.19,6.19,0,0,1,612,270.2c3.59-1.15,22.2-7.35,22.2-7.35l1,1.31Z" style="fill:#fff"></path><path d="M607.78,274.94a.49.49,0,0,1-.32-.12.51.51,0,0,1-.17-.48,6.65,6.65,0,0,1,4.59-4.62c3.54-1.13,22-7.28,22.19-7.34a.5.5,0,0,1,.56.17l1,1.31a.46.46,0,0,1,.08.44.46.46,0,0,1-.3.32L608,274.91ZM634,263.44c-2.55.85-18.58,6.19-21.86,7.23a5.85,5.85,0,0,0-3.54,2.91l25.76-9.66Z" style="fill:#263238"></path><path d="M607.78,274.44s-2.12-3.59-3.1-4.24-25.46-6.53-25.46-6.53l-1.69,1.84Z" style="fill:#fff"></path><path d="M607.78,274.94l-.14,0L577.39,266a.5.5,0,0,1-.22-.82l1.68-1.84a.52.52,0,0,1,.49-.15c4.1,1,24.62,5.93,25.62,6.6s3,4,3.25,4.41a.5.5,0,0,1,0,.56A.53.53,0,0,1,607.78,274.94Zm-29.34-9.68,28.23,8.33a14.64,14.64,0,0,0-2.26-3c-.9-.49-15.34-4.06-25-6.39Z" style="fill:#263238"></path><path d="M644.83,289.61s1.53,5.2,1.3,7.45-3.43,3.43-6.15,4.85-8.4,3.43-11.72,3.55-11.12-.71-12.3-.71a133.47,133.47,0,0,1-13.61-3.08,23.78,23.78,0,0,1-5.68-2.48A7.77,7.77,0,0,0,594,298a4.72,4.72,0,0,1-1.18-1.54c-.24-.71,4,.12,4,.12s-4.38-3.2-5.21-3.67a2,2,0,0,1-.82-2c.11-.48,5.2,2.36,5.56,2.36s3.66.24,3.66.24a28.39,28.39,0,0,0-4.58-3.86c-1.89-1.08-1.08-2.43,0-2.43s7.83,4,7.83,4l9.19,1.08-.27-3.51a8.81,8.81,0,0,1-1.89-3c-.54-1.62,1.35-3,3-1.35a58.75,58.75,0,0,0,5.14,4.6c.81.54,1.62,6.75,1.62,6.75s8.15-1.4,9-2.59,8.52-5.44,10.3-5.79a9.63,9.63,0,0,1,3.19-.12" style="fill:#d1d1d1"></path><path d="M627.53,306c-2.33,0-5.94-.29-8.65-.51-1.42-.12-2.55-.21-2.92-.21a129.87,129.87,0,0,1-13.77-3.1,24.35,24.35,0,0,1-5.82-2.57,7.43,7.43,0,0,0-2.52-1.08.46.46,0,0,1-.23-.12,5,5,0,0,1-1.33-1.75.65.65,0,0,1,.13-.63c.12-.14.41-.46,2.38-.24-1.44-1-3-2.16-3.46-2.41a2.41,2.41,0,0,1-1.07-2.56.65.65,0,0,1,.31-.38c.42-.2,1.12.07,4.14,1.58.67.33,1.51.74,1.68.79s1.31.07,2.27.14a21.78,21.78,0,0,0-3.52-2.84c-1.51-.86-1.44-1.84-1.34-2.22a1.6,1.6,0,0,1,1.59-1.14c1.11,0,6.28,3,8,4.06l8.48,1-.21-2.73a9.14,9.14,0,0,1-1.89-3,2.06,2.06,0,0,1,.83-2.44,2.39,2.39,0,0,1,3,.58,57,57,0,0,0,5,4.53c.81.54,1.44,4.15,1.77,6.59,3.7-.67,7.73-1.7,8.15-2.29.94-1.34,8.79-5.64,10.61-6a10.33,10.33,0,0,1,3.37-.13.51.51,0,0,1,.41.58.49.49,0,0,1-.57.41,9.29,9.29,0,0,0-3,.12c-1.71.34-9.27,4.57-10,5.59-.88,1.26-7.35,2.46-9.31,2.8a.52.52,0,0,1-.38-.1.5.5,0,0,1-.2-.33c-.36-2.77-1-6-1.42-6.42a58.59,58.59,0,0,1-5.19-4.64,1.4,1.4,0,0,0-1.74-.44,1.06,1.06,0,0,0-.41,1.28,8.49,8.49,0,0,0,1.77,2.77.5.5,0,0,1,.15.32l.27,3.51a.49.49,0,0,1-.15.4.52.52,0,0,1-.41.14l-9.19-1.09a.42.42,0,0,1-.19-.06c-3.24-1.94-7-4-7.58-4a.61.61,0,0,0-.62.39c-.09.33.24.75.86,1.1a28.69,28.69,0,0,1,4.7,4,.49.49,0,0,1,.1.56.5.5,0,0,1-.49.29c-1.33-.1-3.39-.24-3.63-.24s-.47-.11-2-.89c-.86-.43-2.32-1.15-3-1.42a1.31,1.31,0,0,0,.6,1c.84.49,5.08,3.57,5.26,3.7a.52.52,0,0,1,.16.61.51.51,0,0,1-.56.29,21.06,21.06,0,0,0-3.26-.4,6.37,6.37,0,0,0,.76.87,8.2,8.2,0,0,1,2.79,1.24,22.4,22.4,0,0,0,5.53,2.41A136.36,136.36,0,0,0,616,304.25c.41,0,1.5.09,3,.21,2.83.23,7.11.58,9.28.5,3.2-.11,8.86-2.11,11.5-3.49.43-.23.88-.45,1.32-.66,2.26-1.12,4.4-2.18,4.57-3.8.22-2.13-1.27-7.21-1.28-7.26a.49.49,0,0,1,.33-.62.51.51,0,0,1,.63.33c.06.22,1.56,5.33,1.32,7.65-.23,2.17-2.72,3.4-5.13,4.59l-1.29.65c-2.68,1.4-8.46,3.48-11.93,3.61Z" style="fill:#263238"></path><path d="M604,295.67a.58.58,0,0,1-.19,0l-4-1.66a.5.5,0,0,1-.27-.65.49.49,0,0,1,.65-.27l4,1.65a.5.5,0,0,1-.19,1Z" style="fill:#263238"></path><path d="M602.94,298.74h0a37.73,37.73,0,0,1-6.29-1.68.5.5,0,0,1-.3-.64.51.51,0,0,1,.64-.31,36.3,36.3,0,0,0,6,1.63.5.5,0,0,1,0,1Z" style="fill:#263238"></path><path d="M544.56,285.18c-1.46,1.3-2.93,5.38-2.93,7.67s2.12,4.41,4.4,5.55,7.19,2,12.41,1.47a21.2,21.2,0,0,0,8-2.12,75.15,75.15,0,0,1,8.29-1.47c1.92,0,8.33-2.45,9.14-3.1s.33-2.29.33-2.29a9.51,9.51,0,0,0,2.29-2c.49-.82-1.64-2.12-1.64-2.12a10.22,10.22,0,0,0,1.8-1.47c.33-.49-1.47-1.31-2.29-1s-6.69,1.31-6.69,1.31,4.24-2.45,5.06-2.94.33-1-.33-1.64-5.55,2-6.2,2.13-6,1.3-6,1.3a9.61,9.61,0,0,1,1.3-2.61c.49-.33,2.78-1.63,2.78-1.63a38.44,38.44,0,0,0,.65-4.41c0-1.14-3.26,2.45-3.26,2.45s-4.9,3.43-5.39,3.75-3.27,6.86-3.27,6.86-1.3.49-3.75-1.3a17,17,0,0,0-8.33-3.11" style="fill:#d1d1d1"></path><path d="M555.31,300.52a23.58,23.58,0,0,1-9.5-1.67c-2.16-1.08-4.68-3.3-4.68-6,0-2.33,1.46-6.59,3.1-8.05a.5.5,0,1,1,.67.75c-1.3,1.15-2.77,5-2.77,7.3,0,2.1,2.07,4.08,4.13,5.1s6.75,1.93,12.14,1.42a20.9,20.9,0,0,0,7.83-2.05l.14-.05a73.35,73.35,0,0,1,8.39-1.49c1.82,0,8.11-2.41,8.84-3,.45-.36.26-1.42.16-1.76a.5.5,0,0,1,.21-.56,8.72,8.72,0,0,0,2.13-1.8c.06-.2-.62-.91-1.47-1.44a.52.52,0,0,1-.24-.41.51.51,0,0,1,.23-.43,12,12,0,0,0,1.53-1.18,2.25,2.25,0,0,0-1.56-.39c-.84.34-6.19,1.24-6.8,1.34a.5.5,0,0,1-.55-.33.5.5,0,0,1,.22-.6s4.24-2.44,5-2.93c.16-.1.19-.15.19-.16a3.47,3.47,0,0,0-.61-.69c-.47-.09-3.27,1.17-4.32,1.65a10.43,10.43,0,0,1-1.41.6c-.65.17-5.84,1.27-6.06,1.31a.49.49,0,0,1-.48-.16.48.48,0,0,1-.09-.49c.26-.74.93-2.49,1.5-2.86.41-.28,2-1.21,2.6-1.54.13-.64.47-2.48.57-3.58a22.49,22.49,0,0,0-2.36,2.27l-.08.08c-.2.14-4.91,3.43-5.4,3.76a71.55,71.55,0,0,0-3.09,6.64.5.5,0,0,1-.28.27c-.16.06-1.64.53-4.23-1.37a16.55,16.55,0,0,0-8-3,.5.5,0,0,1-.5-.5.51.51,0,0,1,.5-.5,17.52,17.52,0,0,1,8.62,3.2,5,5,0,0,0,3.11,1.27c1.82-4.27,2.94-6.57,3.34-6.83s4.84-3.37,5.34-3.72c2.8-3.08,3.41-2.85,3.67-2.75a.68.68,0,0,1,.42.68,37.36,37.36,0,0,1-.66,4.51.51.51,0,0,1-.24.33s-2.28,1.3-2.75,1.62a5.88,5.88,0,0,0-.78,1.51c1.56-.33,4.64-1,5.12-1.11.13,0,.72-.3,1.24-.54,3.26-1.5,4.82-2.07,5.44-1.45s1,1,.89,1.54a1.22,1.22,0,0,1-.66.88l-2.64,1.53c1.78-.32,3.46-.65,3.83-.79a3,3,0,0,1,2.8.77.77.77,0,0,1,.08.95,6.37,6.37,0,0,1-1.33,1.18c.76.58,1.7,1.52,1.18,2.39a8.6,8.6,0,0,1-2.14,1.93,2.54,2.54,0,0,1-.58,2.45c-1,.75-7.51,3.17-9.45,3.21a72.42,72.42,0,0,0-8.12,1.45,22.18,22.18,0,0,1-8.17,2.14Q556.86,300.52,555.31,300.52Z" style="fill:#263238"></path><path d="M575.59,289.27a.5.5,0,0,1-.07-1l3.92-.49,5.32-1.45a.5.5,0,1,1,.26,1l-5.38,1.47-4,.5Z" style="fill:#263238"></path><path d="M575.59,292.7a.5.5,0,0,1-.5-.47.49.49,0,0,1,.47-.53l2.77-.17,5.81-1.13a.5.5,0,0,1,.59.39.5.5,0,0,1-.39.59l-5.88,1.14-2.84.18Z" style="fill:#263238"></path><path d="M574.61,286.66a.5.5,0,0,1-.08-1l3.1-.49a.5.5,0,0,1,.57.42.49.49,0,0,1-.41.57l-3.11.49Z" style="fill:#263238"></path></g><g id="freepik--character-3--inject-2"><path d="M442.59,253.06s1.57,24.42,4.58,47.12,5.79,44,8.34,50.26,4.86,29.89,4.86,32.43-.23,10.66-.23,10.66l-1.39,2.32.46,4.16a15.89,15.89,0,0,0,6.49,3A74.65,74.65,0,0,0,474,404s10.19,4.17,11.58,5.1,5.56.69,5.56.69a11.63,11.63,0,0,0,1.16-5.32c-.23-2.55-1.86-5.56-1.86-7.42s7.42-37.52,6.49-44.47-6-24.79-6.25-27.1,9.26-50.5,9.26-50.5l-4.63-27.1-50.47,1.59Z" style="fill:#999"></path><path d="M490,410.27c-1.4,0-3.62-.12-4.66-.81s-7.88-3.57-11.41-5a75.6,75.6,0,0,1-8.32-.93,16.25,16.25,0,0,1-6.72-3.12.51.51,0,0,1-.17-.33l-.47-4.17a.48.48,0,0,1,.07-.31l1.32-2.21c0-1.05.23-8.17.23-10.51,0-2.81-2.38-26.23-4.83-32.24s-5.23-26.76-8.13-48.59l-.24-1.8c-3-22.45-4.57-46.91-4.58-47.15a.53.53,0,0,1,.07-.3l2.3-3.63a.52.52,0,0,1,.41-.24l50.46-1.59a.51.51,0,0,1,.51.41l4.63,27.11a.54.54,0,0,1,0,.18c-3.81,19.34-9.42,48.7-9.26,50.35.09.87,1,4.31,2,8.29,1.65,6.48,3.71,14.56,4.28,18.79.67,5.07-2.93,24.68-5.08,36.39C491.64,393,491,396.53,491,397a12.25,12.25,0,0,0,.82,3.29,19.42,19.42,0,0,1,1,4.08,12.05,12.05,0,0,1-1.21,5.6.49.49,0,0,1-.42.27C491.07,410.25,490.62,410.27,490,410.27Zm-30.31-10.52a15.47,15.47,0,0,0,6.1,2.79,75.39,75.39,0,0,0,8.27.91l.17,0c.42.17,10.25,4.2,11.67,5.14.94.63,3.66.68,5,.63a10.75,10.75,0,0,0,1-4.8,18.2,18.2,0,0,0-1-3.85A13.09,13.09,0,0,1,490,397c0-.54.47-3.08,1.43-8.33,2-10.89,5.72-31.16,5.06-36.07-.55-4.18-2.6-12.23-4.25-18.69-1.06-4.18-1.91-7.48-2-8.43-.23-2.31,8.2-45.2,9.25-50.56l-4.54-26.58-49.77,1.58-2.06,3.27c.14,2.16,1.72,25.46,4.56,46.92l.24,1.8c2.89,21.76,5.61,42.32,8.07,48.35,2.65,6.5,4.9,30.37,4.9,32.61,0,2.53-.23,10.59-.23,10.67a.55.55,0,0,1-.07.25l-1.3,2.17Zm.45-6.22h0Z" style="fill:#263238"></path><polygon points="447.87 164.07 435.98 213.97 421.17 210.65 419.41 227.22 440.85 234.63 448.06 180.64 447.87 164.07" style="fill:#92E3A9"></polygon><path d="M440.85,235.12a.44.44,0,0,1-.16,0l-21.44-7.41a.5.5,0,0,1-.34-.52l1.76-16.57a.49.49,0,0,1,.2-.35.51.51,0,0,1,.41-.09l14.33,3.21L447.38,164a.49.49,0,0,1,.54-.39.52.52,0,0,1,.45.5l.19,16.56-7.22,54.06a.46.46,0,0,1-.23.36A.48.48,0,0,1,440.85,235.12ZM420,226.88,440.43,234l7.14-53.38-.15-12.45-11,46a.49.49,0,0,1-.59.37l-14.27-3.19Z" style="fill:#263238"></path><polygon points="421.17 210.65 414.54 213.58 419.41 227.22 421.17 210.65" style="fill:#fff"></polygon><path d="M419.41,227.72a.5.5,0,0,1-.47-.33l-4.87-13.65a.49.49,0,0,1,.27-.62l6.62-2.93a.5.5,0,0,1,.5.06.5.5,0,0,1,.2.46l-1.75,16.56a.52.52,0,0,1-.44.45Zm-4.24-13.87,4,11.14,1.44-13.53Z" style="fill:#263238"></path><polygon points="399.61 178.07 399.57 173.52 393.17 166.56 392.33 168.51 399.61 178.07" style="fill:#fff"></polygon><path d="M399.61,178.57a.48.48,0,0,1-.4-.2l-7.27-9.56a.48.48,0,0,1-.06-.5l.83-1.95a.51.51,0,0,1,.83-.14l6.4,7a.51.51,0,0,1,.13.34l0,4.54a.51.51,0,0,1-.34.48Zm-6.7-10.13,6.18,8.13,0-2.85-5.74-6.25Z" style="fill:#263238"></path><polygon points="399.57 173.52 415.72 164.61 413.77 169.07 399.61 178.07 399.57 173.52" style="fill:#fff"></polygon><path d="M399.61,178.57a.48.48,0,0,1-.24-.06.51.51,0,0,1-.26-.44l0-4.55a.51.51,0,0,1,.26-.44l16.14-8.91a.51.51,0,0,1,.58.07.49.49,0,0,1,.12.57l-1.94,4.46a.51.51,0,0,1-.19.22l-14.17,9A.5.5,0,0,1,399.61,178.57Zm.46-4.76,0,3.35,13.27-8.43,1.3-3Z" style="fill:#263238"></path><polygon points="399.61 178.07 417.97 164.1 430.05 192.19 414.99 201.92 399.61 178.07" style="fill:#263238"></polygon><path d="M415,202.42h-.1a.51.51,0,0,1-.32-.22l-15.38-23.85a.5.5,0,0,1,.12-.67l18.36-14a.52.52,0,0,1,.77.2L430.51,192a.49.49,0,0,1-.19.62l-15.06,9.73A.48.48,0,0,1,415,202.42Zm-14.7-24.23,14.85,23,14.3-9.23-11.67-27.11Z" style="fill:#263238"></path><polygon points="399.61 178.07 390.5 166.45 401.96 186.86 414.99 201.92 399.61 178.07" style="fill:#263238"></polygon><path d="M415,202.42a.5.5,0,0,1-.38-.17l-13-15.07-.06-.08-11.45-20.4a.5.5,0,0,1,.83-.55l9.1,11.61,0,0,15.38,23.85a.5.5,0,0,1-.13.67A.46.46,0,0,1,415,202.42Zm-12.62-15.85,8.34,9.64L399.2,178.36l-5.07-6.47Z" style="fill:#263238"></path><path d="M419.85,219.34s-13.18-11.61-13.5-12.24-1.88-8.32-1.88-8.32l-3.92-12.55a6.22,6.22,0,0,1,2.35,3.29c.79,2.36,3.77,11.62,3.77,11.62s.63-10.2.94-11.46,1.73-.63,1.88.79.32,11.61.32,11.61l4.39-8.32s1.41-.31.94,1.1-2.35,8.95-2.35,8.95,4.86,3.14,5.49,4.55,0,3.29,0,3.76,2.51,1.57,2.51,1.57Z" style="fill:#fff"></path><path d="M419.85,219.84a.5.5,0,0,1-.33-.12c-4-3.51-13.29-11.75-13.61-12.39s-1.67-7.15-1.93-8.45l-3.91-12.5a.5.5,0,0,1,.73-.58,6.72,6.72,0,0,1,2.57,3.57c.53,1.57,2,6.2,3,9.12.21-3.13.56-8.05.78-8.93a1.23,1.23,0,0,1,1.26-1.05,2,2,0,0,1,1.61,1.9c.12,1.05.23,6.67.28,9.71l3.49-6.59a.54.54,0,0,1,.33-.26,1.55,1.55,0,0,1,1.38.33,1.38,1.38,0,0,1,.15,1.42c-.41,1.21-1.89,7.07-2.26,8.56,1.15.76,4.78,3.23,5.38,4.57a6.06,6.06,0,0,1,.11,3.51c0,.15-.05.27-.06.36a10.45,10.45,0,0,0,2.2,1.22.51.51,0,0,1,.3.54l-1,5.65a.5.5,0,0,1-.32.38A.51.51,0,0,1,419.85,219.84Zm-18.2-31.75,3.3,10.55c.76,3.7,1.66,7.82,1.85,8.24.42.58,7.59,7,12.71,11.49l.73-4.38c-2.46-1.12-2.46-1.64-2.46-1.87a4.93,4.93,0,0,1,.09-.64,5.2,5.2,0,0,0-.05-2.92c-.41-.93-3.47-3.15-5.3-4.33a.51.51,0,0,1-.22-.54c.08-.31,1.9-7.57,2.37-9,.11-.32.06-.43.06-.43a.45.45,0,0,0-.21,0l-4.27,8.08a.5.5,0,0,1-.94-.22c0-.1-.16-10.2-.31-11.57-.07-.63-.45-1-.69-1s-.19.18-.22.29c-.24,1-.75,8.54-.92,11.37a.5.5,0,0,1-1,.12s-3-9.25-3.76-11.61A6.93,6.93,0,0,0,401.65,188.09Z" style="fill:#263238"></path><polygon points="421.17 210.65 419.07 209.46 417.34 218.25 419.85 219.34 421.17 210.65" style="fill:#fff"></polygon><path d="M419.85,219.84a.45.45,0,0,1-.2,0l-2.51-1.1a.48.48,0,0,1-.29-.55l1.72-8.79a.53.53,0,0,1,.29-.36.48.48,0,0,1,.45,0l2.1,1.2a.5.5,0,0,1,.25.51l-1.32,8.69a.47.47,0,0,1-.25.36A.5.5,0,0,1,419.85,219.84ZM417.91,218l1.54.67,1.17-7.7-1.2-.69Z" style="fill:#263238"></path><path d="M457.13,156.25a10.92,10.92,0,0,0-4.79,5.17c-1.33,3.44-7.65,55.86-7.65,55.86l-2.1,35.78,13.58.19,10.91-80.16,1.53-19.71S460.19,151.85,457.13,156.25Z" style="fill:#fff"></path><path d="M456.17,253.75h0l-13.58-.19a.48.48,0,0,1-.36-.16.5.5,0,0,1-.13-.37l2.1-35.78c.26-2.17,6.34-52.55,7.69-56a11.17,11.17,0,0,1,4.91-5.37c3.26-4.49,11.55-3,11.91-3a.49.49,0,0,1,.4.53l-1.53,19.71-10.9,80.19A.51.51,0,0,1,456.17,253.75Zm-13.05-1.18,12.62.17L466.58,173l1.49-19.21c-1.74-.23-8.08-.8-10.53,2.73a.49.49,0,0,1-.19.16,10.51,10.51,0,0,0-4.54,4.9c-1,2.68-5.44,37.63-7.62,55.74Zm14-96.32h0Z" style="fill:#263238"></path><path d="M457.13,156.25s-1.92,1.15-4.21,18.18-8.23,70-8,75-.19,27.36-.19,27.36l-7.08-1.15s-1.34-20.08.58-32.14,5-34.82,5.74-42.85,3.06-37.12,4-39.22,8.61-7.65,8.61-7.65Z" style="fill:#92E3A9"></path><path d="M444.69,277.28h-.08l-7.08-1.15a.51.51,0,0,1-.42-.46c0-.2-1.32-20.29.58-32.26,1.94-12.18,5-35,5.74-42.82.17-1.83.43-4.74.72-8.18,1.35-15.54,2.62-29.62,3.34-31.2,1-2.16,8-7.27,8.77-7.85a.5.5,0,0,1,.78.29l.57,2.49a.49.49,0,0,1-.18.51c-.13.14-1.9,2.17-4,17.85-2.21,16.42-8.22,69.88-8,74.9s-.18,27.17-.19,27.39a.51.51,0,0,1-.18.38A.52.52,0,0,1,444.69,277.28Zm-6.6-2.08,6.11,1c.06-3.55.35-22.3.18-26.76-.19-5.06,5.83-58.63,8-75.08,1.86-13.76,3.48-17.32,4.16-18.24l-.34-1.5c-2.42,1.79-7.16,5.52-7.84,7s-2.3,19.9-3.25,30.86c-.3,3.45-.55,6.37-.73,8.2-.74,7.83-3.8,30.68-5.74,42.88C437,254.5,437.92,272.33,438.09,275.2Z" style="fill:#263238"></path><polygon points="471.29 131.57 476.64 145.73 463.63 156.06 459.04 166.2 454.64 151.85 466.12 142.86 465.35 133.49 471.29 131.57" style="fill:#fff"></polygon><path d="M459,166.7h0a.49.49,0,0,1-.45-.35L454.16,152a.51.51,0,0,1,.17-.54l11.27-8.83-.74-9.1a.5.5,0,0,1,.34-.52l5.93-1.91a.5.5,0,0,1,.62.3l5.36,14.16a.48.48,0,0,1-.16.56L464,156.38l-4.54,10A.51.51,0,0,1,459,166.7ZM455.22,152l3.91,12.75,4.05-8.93a.45.45,0,0,1,.14-.19l12.73-10.1L471,132.2l-5.11,1.64.74,9a.53.53,0,0,1-.19.44Z" style="fill:#263238"></path><path d="M438.38,112.06s-.38,7.46.76,9.76,3.06,5.35,3.06,6.31-2.48,7.85-1.91,8.8,3.64,1.15,3.64,1.15a87.1,87.1,0,0,1,3.63,8.42c.58,2.1,1,6.69,3.25,8.22s6.13-1.34,11.67-4.78,5.93-7.65,5.93-8.8a42.79,42.79,0,0,0-.57-4.4s4-2.1,5.17-5.17a12.25,12.25,0,0,0,.95-5s3.26-1.53,4.21-6.5-3.25-17.41-6.89-19.9S464.59,93.89,455.6,95s-17.6,5.17-18.94,9.76A7.12,7.12,0,0,0,438.38,112.06Z" style="fill:#fff"></path><path d="M452.27,155.65a3,3,0,0,1-1.73-.51c-2-1.32-2.63-4.54-3.1-6.9-.13-.61-.24-1.17-.36-1.61a80.3,80.3,0,0,0-3.48-8.07c-.91-.09-3.14-.38-3.74-1.37-.41-.69,0-2.44,1.15-6.37a25.35,25.35,0,0,0,.7-2.69,17,17,0,0,0-1.79-3.78c-.43-.79-.86-1.59-1.22-2.31-1.09-2.18-.89-8.47-.83-9.78a7.59,7.59,0,0,1-1.69-7.61c1.5-5.15,11.09-9.06,19.35-10.11,7.77-1,11.27,1.66,14.35,4,.57.43,1.12.85,1.69,1.24,3.73,2.55,8.1,15.14,7.09,20.4a9.68,9.68,0,0,1-4.19,6.7,13.78,13.78,0,0,1-1,4.86c-1,2.72-4.07,4.67-5.08,5.25a36.85,36.85,0,0,1,.53,4.14c0,1.27-.45,5.67-6.17,9.23-.73.44-1.42.88-2.09,1.31C457.15,153.9,454.39,155.65,452.27,155.65Zm6.47-60.33a24.9,24.9,0,0,0-3.08.21c-9.34,1.19-17.31,5.23-18.52,9.4a6.62,6.62,0,0,0,1.57,6.75.53.53,0,0,1,.17.41c-.11,2-.18,7.72.71,9.5.36.72.79,1.5,1.21,2.28,1.18,2.15,1.91,3.51,1.91,4.26a17.8,17.8,0,0,1-.74,3c-.51,1.75-1.46,5-1.24,5.59s1.88.81,3.23.89a.5.5,0,0,1,.42.28,88.38,88.38,0,0,1,3.66,8.51c.13.46.25,1,.38,1.68.44,2.18,1,5.17,2.67,6.26s4.79-.79,9-3.48l2.09-1.31c5.29-3.28,5.7-7.24,5.7-8.38s-.57-4.28-.57-4.31a.5.5,0,0,1,.26-.53s3.86-2.06,4.93-4.9a11.78,11.78,0,0,0,.92-4.75.52.52,0,0,1,.29-.5c.12-.06,3-1.51,3.93-6.15.94-4.89-3.24-17-6.68-19.39-.58-.4-1.14-.83-1.72-1.26C466.67,97.36,464,95.32,458.74,95.32Z" style="fill:#263238"></path><path d="M436.66,104.79c1.34-4.59,9.95-8.61,18.94-9.76s12,2.68,15.68,5.17,7.85,14.92,6.89,19.9-4.21,6.5-4.21,6.5c-1.14-5-5.55-5.74-6.88-4.59s.76,14.73.76,14.73a42.79,42.79,0,0,1,.57,4.4c0,1.15-.38,5.36-5.93,8.8s-9.37,6.31-11.67,4.78-2.67-6.12-3.25-8.22a87.1,87.1,0,0,0-3.63-8.42l-.24,0a14.42,14.42,0,0,1,5.21-1.32c6.31-.57,7.27,3.83,8.8,3.64a7.23,7.23,0,0,0,4.78-4.4c.58-2.11.58-12.82.77-14s-.38-1.53-1.34-1.91a75,75,0,0,1-8.23-3.83c-1.72-1.15-1.34-8.42-1.34-8.42l-14,4.21A7.12,7.12,0,0,1,436.66,104.79Z" style="fill:#263238"></path><path d="M452.27,155.65a3,3,0,0,1-1.73-.51c-2-1.32-2.63-4.54-3.1-6.89-.13-.62-.24-1.18-.36-1.62a82.9,82.9,0,0,0-3.48-8.08.5.5,0,0,1-.13-.94,15.15,15.15,0,0,1,5.39-1.37,8.54,8.54,0,0,1,7.64,2.8c.47.47.86.88,1.14.84a6.69,6.69,0,0,0,4.36-4c.35-1.29.49-6.19.58-9.77.07-2.36.11-3.72.18-4.14.12-.74-.06-1-1-1.37a76.84,76.84,0,0,1-8.31-3.87c-1.63-1.09-1.66-6.07-1.59-8.16l-13.3,4a.5.5,0,0,1-.47-.1,7.57,7.57,0,0,1-1.87-7.79h0c1.5-5.15,11.09-9.06,19.35-10.11,7.77-1,11.27,1.66,14.35,4,.57.43,1.12.85,1.69,1.24,3.73,2.55,8.1,15.14,7.09,20.4s-4.34,6.8-4.48,6.86a.49.49,0,0,1-.44,0,.5.5,0,0,1-.26-.34,5.69,5.69,0,0,0-3.64-4.46,2.71,2.71,0,0,0-2.44.14c-.67.74,0,8,.94,14.27a42.71,42.71,0,0,1,.58,4.48c0,1.27-.45,5.67-6.17,9.23-.73.44-1.42.88-2.09,1.31C457.15,153.9,454.39,155.65,452.27,155.65Zm-7.72-17.43a78,78,0,0,1,3.49,8.15c.13.46.25,1,.38,1.68.44,2.18,1,5.17,2.67,6.26s4.79-.79,9-3.48l2.09-1.31c5.29-3.28,5.7-7.24,5.7-8.38s-.57-4.28-.57-4.31c-.65-4.18-2-14-.6-15.2a3.63,3.63,0,0,1,3.41-.33,6.52,6.52,0,0,1,4.11,4.53,8.94,8.94,0,0,0,3.41-5.83c.94-4.89-3.24-17-6.68-19.39-.58-.4-1.14-.83-1.72-1.26-3.07-2.34-6.25-4.76-13.62-3.82-9.34,1.19-17.31,5.23-18.52,9.4a6.7,6.7,0,0,0,1.38,6.57l13.68-4.13a.51.51,0,0,1,.45.09.49.49,0,0,1,.19.42c-.15,2.9.1,7.29,1.12,8a72.28,72.28,0,0,0,8.14,3.78c.93.37,1.9.9,1.64,2.46-.06.38-.11,2.14-.16,4-.1,3.83-.23,8.6-.61,10a7.67,7.67,0,0,1-5.21,4.76c-.76.1-1.32-.47-2-1.13a7.45,7.45,0,0,0-6.84-2.5A14.83,14.83,0,0,0,444.55,138.22Z" style="fill:#263238"></path><path d="M448.27,131.72a4,4,0,0,1-2-.6,6.18,6.18,0,0,1-2.49-2.93,6.28,6.28,0,0,1-.4-3.83,3.62,3.62,0,0,1,2-2.62c2.05-.87,4.65.6,5.79,3.28s.41,5.57-1.64,6.44A3.24,3.24,0,0,1,448.27,131.72Zm-1.6-9.24a2.2,2.2,0,0,0-.88.18,2.68,2.68,0,0,0-1.47,1.93,5.22,5.22,0,0,0,.35,3.2h0a5.21,5.21,0,0,0,2.07,2.47,2.65,2.65,0,0,0,2.41.28c1.54-.66,2-3,1.11-5.13A4.37,4.37,0,0,0,446.67,122.48Z" style="fill:#263238"></path><path d="M441.43,132.09a.45.45,0,0,1-.16,0,5.9,5.9,0,0,1-3.26-3.3c-1-2.26-.62-4.7.82-5.93a.5.5,0,1,1,.65.76c-1.1.94-1.33,3-.55,4.78a5,5,0,0,0,2.67,2.75.51.51,0,0,1,.31.64A.52.52,0,0,1,441.43,132.09Z" style="fill:#263238"></path><path d="M440.29,126.72a.5.5,0,0,1,0-1l2.87-.19a.5.5,0,1,1,.06,1l-2.86.19Z" style="fill:#263238"></path><path d="M450.72,125.71a.5.5,0,0,1-.05-1L466.45,123a.5.5,0,1,1,.1,1l-15.78,1.67Z" style="fill:#263238"></path><polygon points="478.75 142.1 459.81 155.3 463.44 165.06 482.38 152.81 478.75 142.1" style="fill:#92E3A9"></polygon><path d="M463.44,165.55a.44.44,0,0,1-.16,0,.51.51,0,0,1-.31-.3l-3.63-9.76a.49.49,0,0,1,.18-.58l18.94-13.2a.5.5,0,0,1,.44-.07.51.51,0,0,1,.32.32l3.63,10.71a.49.49,0,0,1-.2.58l-18.94,12.24A.43.43,0,0,1,463.44,165.55Zm-3-10.06,3.28,8.81,18.09-11.7-3.29-9.71Z" style="fill:#263238"></path><path d="M463.63,162s-2.87,17.8-4.78,34.82-5,49.36-5.36,50.13-.76,9.18.19,13,7.66,15.88,9.76,16.45,12.24,1,12.24,1l33.48,1.72-6.31-37.31s.58-45.34,1.15-50.7,1.72-24.29-.77-25.82-20.85-12.44-20.85-12.44Z" style="fill:#92E3A9"></path><path d="M509.17,279.58h0l-33.48-1.73c-.41,0-10.22-.39-12.35-1-2.49-.68-9.23-13.29-10.11-16.81-.92-3.69-.66-12.34-.15-13.36.21-.7,1.31-11.53,2.48-23,.93-9.17,2-19.57,2.82-27,1.89-16.85,4.76-34.67,4.79-34.85a.51.51,0,0,1,.27-.37l18.75-9.18a.51.51,0,0,1,.48,0c.18.11,18.39,10.93,20.86,12.44,3.26,2,1,26.07,1,26.31-.57,5.27-1.14,50.19-1.15,50.65L509.66,279a.53.53,0,0,1-.12.42A.5.5,0,0,1,509.17,279.58ZM464.09,162.33c-.36,2.24-3,18.82-4.74,34.54-.83,7.38-1.89,17.77-2.83,26.95-1.8,17.68-2.36,22.89-2.58,23.34-.32.77-.7,8.93.23,12.67,1.05,4.2,7.73,15.63,9.4,16.09,2,.55,12,.93,12.13.94l32.87,1.69-6.21-36.7c0-1.94.57-45.51,1.14-50.83.89-8.28,1.36-24.19-.53-25.35-2.3-1.42-18.47-11-20.61-12.29Z" style="fill:#263238"></path><path d="M503.23,165.25s6.32,25.44,5.74,28.88-2.87,43.24-3.25,45.54S491,273.91,491,273.91l-14.92-7.08s7.65-30.42,7.65-31,2.1-9.37,2.3-10-7.08-34.82-7.08-34.82-1.34-7.65,1.14-10.9,9.76-10.33,9.76-10.33" style="fill:#92E3A9"></path><path d="M491,274.41a.38.38,0,0,1-.21-.05l-14.93-7.07a.52.52,0,0,1-.27-.58c2.09-8.29,7.53-30,7.64-30.91,0-.6,2-9,2.3-10-.1-1.44-4.27-21.42-7.07-34.63-.06-.34-1.35-7.93,1.24-11.32s9.51-10.09,9.8-10.38a.5.5,0,0,1,.7.72c-.07.07-7.27,7.09-9.71,10.27s-1.06,10.44-1.05,10.52c7.29,34.36,7.12,34.89,7.06,35.06-.22.67-2.24,9.19-2.27,9.8s-5.21,21.34-7.57,30.71l14.09,6.68c4.13-9.19,14.19-31.86,14.49-33.66.17-1,.73-9.78,1.34-19.06.74-11.51,1.59-24.55,1.91-26.47.46-2.74-4-21.63-5.73-28.68a.5.5,0,0,1,.36-.61.5.5,0,0,1,.61.37c.26,1,6.33,25.58,5.75,29.09-.31,1.87-1.16,14.88-1.9,26.36-.64,9.72-1.18,18.11-1.36,19.17-.38,2.33-14.18,33.06-14.76,34.37a.53.53,0,0,1-.29.26A.47.47,0,0,1,491,274.41Z" style="fill:#263238"></path><path d="M488.89,228.88a.52.52,0,0,1-.38-.17.51.51,0,0,1,.05-.71c.36-.31,1.39-1.06,3.15-2.3a.51.51,0,0,1,.7.13.5.5,0,0,1-.12.69c-1.71,1.2-2.75,1.95-3.08,2.24A.49.49,0,0,1,488.89,228.88Z" style="fill:#263238"></path><path d="M495.83,224a.5.5,0,0,1-.41-.22.49.49,0,0,1,.13-.69c2.94-2,5.68-3.88,5.68-3.88a.5.5,0,1,1,.56.82s-2.74,1.86-5.67,3.88A.52.52,0,0,1,495.83,224Z" style="fill:#263238"></path><polygon points="487.93 272.57 486.02 276.78 475.3 272.19 477.6 267.22 487.93 272.57" style="fill:#fff"></polygon><path d="M486,277.28a.45.45,0,0,1-.2,0l-10.72-4.59a.45.45,0,0,1-.26-.28.48.48,0,0,1,0-.39l2.29-5a.5.5,0,0,1,.69-.24l10.33,5.36a.49.49,0,0,1,.22.65L486.47,277A.49.49,0,0,1,486,277.28Zm-10-5.35,9.79,4.2,1.52-3.33-9.45-4.9Z" style="fill:#263238"></path><polygon points="475.3 272.19 472.62 277.17 483.34 285.2 484.68 276.21 475.3 272.19" style="fill:#fff"></polygon><path d="M483.34,285.7a.47.47,0,0,1-.3-.1l-10.72-8a.51.51,0,0,1-.14-.63l2.68-5a.51.51,0,0,1,.64-.22l9.37,4a.49.49,0,0,1,.3.53l-1.34,9a.49.49,0,0,1-.3.39A.43.43,0,0,1,483.34,285.7ZM473.27,277l9.7,7.28,1.16-7.78-8.6-3.69Z" style="fill:#263238"></path><path d="M459.21,400s-6.48,6.95-7.87,7.88S440,416.23,440,416.23s-.7,1.39.46,2.08,17.37,1.16,17.37,1.16a16.38,16.38,0,0,0,6.72,1.39c3.94,0,18.53-1.16,20.62-1.62s5.79-.93,6.71-3.24-.69-6.26-.69-6.26A26.71,26.71,0,0,0,487,406.5a78.39,78.39,0,0,0-7.88-4.63c-3.24-1.62-8.1.92-8.1.92Z" style="fill:#fff"></path><path d="M464.54,421.36A17.05,17.05,0,0,1,457.7,420c-3.95-.12-16.34-.53-17.51-1.23a2,2,0,0,1-.65-2.73.65.65,0,0,1,.15-.18c.41-.3,10-7.43,11.37-8.36,1.1-.73,6-5.88,7.79-7.8a.48.48,0,0,1,.48-.14L471,402.27c.93-.45,5.28-2.41,8.4-.85a72.37,72.37,0,0,1,7.08,4.12l.84.54a27.05,27.05,0,0,1,4.25,3.31.42.42,0,0,1,.11.16c.07.17,1.69,4.16.7,6.63-.92,2.29-4,2.92-6.27,3.38l-.8.17C483.14,420.2,468.42,421.36,464.54,421.36Zm-24.15-4.81a1,1,0,0,0,.32,1.33c.8.41,9.43.87,17.13,1.09a.54.54,0,0,1,.21,0,15.84,15.84,0,0,0,6.49,1.34c3.85,0,18.41-1.14,20.51-1.61l.82-.17c2-.41,4.83-1,5.54-2.77s-.43-5.19-.66-5.78a26.11,26.11,0,0,0-4-3.11l-.84-.54a69.51,69.51,0,0,0-7-4.06c-3-1.49-7.6.89-7.65.92a.53.53,0,0,1-.35,0l-11.53-2.71c-1.12,1.19-6.47,6.87-7.76,7.74S441.47,415.75,440.39,416.55Z" style="fill:#263238"></path><path d="M469.41,405.57a21.24,21.24,0,0,1-6.72,6.72c-4.87,3.24-4.87,7.18-4.87,7.18" style="fill:#fff"></path><path d="M457.82,420a.51.51,0,0,1-.5-.5c0-.17.06-4.24,5.09-7.59a20.7,20.7,0,0,0,6.55-6.54.5.5,0,0,1,.68-.21.51.51,0,0,1,.21.68,21.58,21.58,0,0,1-6.88,6.9c-4.56,3-4.65,6.61-4.65,6.76A.5.5,0,0,1,457.82,420Z" style="fill:#263238"></path><path d="M472,399.36a.49.49,0,0,1-.46-.32,6.34,6.34,0,0,1-.26-3,28.81,28.81,0,0,1,.69-3.25c0-.3,0-1.61.09-4.92a.54.54,0,0,1,.51-.49.52.52,0,0,1,.49.52c-.09,3.8-.09,5-.09,5a.59.59,0,0,1,0,.14,25.87,25.87,0,0,0-.68,3.18,5.35,5.35,0,0,0,.2,2.52.51.51,0,0,1-.28.65A.65.65,0,0,1,472,399.36Z" style="fill:#263238"></path><path d="M472.63,383.61h0a.49.49,0,0,1-.48-.51c.06-2.31.14-5.14.25-8.58.34-10.83-1.46-19.16-3.05-26.51-.59-2.73-1.14-5.31-1.58-7.91-1.54-9.27-6.73-44.44-7.15-47.31l-5.19-4.51a.5.5,0,1,1,.66-.75l5.32,4.63a.51.51,0,0,1,.17.3c.06.38,5.58,37.87,7.18,47.48.43,2.57,1,5.14,1.57,7.86,1.6,7.4,3.41,15.8,3.07,26.75-.11,3.44-.19,6.26-.25,8.58A.5.5,0,0,1,472.63,383.61Z" style="fill:#263238"></path><path d="M488.4,358.59a.51.51,0,0,1-.5-.45c-.06-.61-.51-3-1.35-7.14a.5.5,0,0,1,.39-.59.51.51,0,0,1,.59.39c.87,4.28,1.3,6.58,1.37,7.24a.5.5,0,0,1-.45.54Z" style="fill:#263238"></path><path d="M485.85,345.64a.5.5,0,0,1-.49-.39l-1.24-6c-1.07-5.14-1.91-9.2-2-9.85-.25-1.77.71-8.78,1.87-12.5s6.42-34.14,6.48-34.45a.5.5,0,1,1,1,.17c-.22,1.26-5.35,30.88-6.5,34.58s-2.05,10.58-1.84,12.05c.09.62,1,4.87,2,9.79l1.24,6a.49.49,0,0,1-.39.59Z" style="fill:#263238"></path><path d="M484.46,394.49h-.07a.5.5,0,0,1-.42-.57c0-.18,2.79-18.14,3.7-23.64s1.39-9,1.39-9a.51.51,0,0,1,.56-.43.5.5,0,0,1,.43.57s-.47,3.54-1.39,9.05S485,393.89,485,394.07A.5.5,0,0,1,484.46,394.49Z" style="fill:#263238"></path></g><g id="freepik--character-2--inject-2"><path d="M296.8,144.92s-13.64,6.43-13.33,12.07.74,8.09.74,8.09-15.79,4.66-16,10,2.81,12.31,2.28,13.76-7.91,2.7-4.93,9.39,10.13,12.54,22.11,12.65,18.89-9.94,19.16-19,5.32-38.23,5.32-38.23Z" style="fill:#263238"></path><path d="M287.92,211.42h-.22c-15.23-.15-20.85-9.1-22.56-12.94-2.36-5.31,1.34-7.49,3.56-8.79a4.77,4.77,0,0,0,1.36-1c.17-.48-.3-2.32-.76-4.11a36.3,36.3,0,0,1-1.55-9.49c.16-5.23,13.31-9.57,15.9-10.37-.13-.93-.43-3.38-.67-7.71-.34-5.91,13-12.28,13.61-12.55a.47.47,0,0,1,.46,0l15.38,8.78a.5.5,0,0,1,.25.52c-.05.29-5,29.26-5.31,38.16C307.08,201.55,299.73,211.42,287.92,211.42Zm8.86-65.93C295,146.36,283.7,152.11,284,157c.32,5.53.73,8,.73,8a.5.5,0,0,1-.35.56c-4.3,1.27-15.47,5.46-15.6,9.57a35.14,35.14,0,0,0,1.52,9.21c.66,2.58,1,4,.73,4.71-.21.55-.87.95-1.8,1.49-2.17,1.28-5.14,3-3.15,7.52,1.63,3.67,7,12.21,21.66,12.35,11.35.1,18.38-9.31,18.66-18.49.26-8.44,4.7-34.63,5.26-38Z" style="fill:#263238"></path><path d="M343.9,259.84s-.24,24.31-5.42,42.62S330,339.15,330,339.15a147.55,147.55,0,0,1-2.83,20.1c-2.17,9.51-1.95,24.57-2.07,28.67s0,7,0,7-7.38.63-8.74.42a9.76,9.76,0,0,1-2.71-.94s-3.47-32.09-3.23-40,.15-16.41.72-18.28S313,309.38,312,295s-8.55-17-14-23.52a58,58,0,0,1-8.32-13.42S323.33,261.94,343.9,259.84Z" style="fill:#92E3A9"></path><path d="M317.28,395.89a6.69,6.69,0,0,1-1-.05,10,10,0,0,1-2.86-1,.46.46,0,0,1-.26-.38c-.15-1.31-3.48-32.22-3.24-40,.07-2.37.11-4.81.15-7.1.1-5.56.18-9.94.59-11.31.57-1.87,1.81-26.75.89-41-.69-10.65-5-14.63-9.55-18.85a47.23,47.23,0,0,1-4.33-4.38,58.9,58.9,0,0,1-8.4-13.55.49.49,0,0,1,.07-.49.51.51,0,0,1,.45-.2c.34,0,33.8,3.86,54.08,1.8a.5.5,0,0,1,.39.12.55.55,0,0,1,.16.38c0,.24-.3,24.58-5.43,42.75s-8.43,36.45-8.46,36.64a145.83,145.83,0,0,1-2.84,20.12c-1.8,7.91-1.94,19.53-2,25.77,0,1.18,0,2.14,0,2.81-.12,4,0,6.95,0,7a.5.5,0,0,1-.46.51C324.48,395.48,319.63,395.89,317.28,395.89Zm-3.18-1.8a9.41,9.41,0,0,0,2.32.77,79.1,79.1,0,0,0,8.15-.39c0-1-.05-3.44.05-6.56,0-.67,0-1.62,0-2.79.07-6.28.21-18,2-26a148.3,148.3,0,0,0,2.82-20c0-.24,3.36-18.66,8.48-36.79,4.67-16.52,5.31-38.2,5.39-41.93-18.57,1.77-47.5-1.18-52.86-1.76a58.37,58.37,0,0,0,7.88,12.51,47.88,47.88,0,0,0,4.25,4.29c4.5,4.16,9.15,8.47,9.87,19.52.93,14.35-.35,39.47-.93,41.37-.38,1.23-.46,6-.55,11,0,2.29-.08,4.73-.15,7.11C310.67,361.83,313.77,391,314.1,394.09Z" style="fill:#263238"></path><path d="M321.1,273a50,50,0,0,0,8.8-6.51" style="fill:#fff"></path><path d="M321.1,273.45a.5.5,0,0,1-.25-.93,50.14,50.14,0,0,0,8.69-6.43.5.5,0,1,1,.72.7,49.54,49.54,0,0,1-8.91,6.59A.43.43,0,0,1,321.1,273.45Z" style="fill:#263238"></path><path d="M308.78,266.67s8.78,3.69,11.34,9.58.85,28.42-.28,37.62a119.48,119.48,0,0,1-4.79,22.6c-1.88,5.59-11.3,51.14-11.3,51.14l-1.25,7.32s-4.32,1.41-5.85,1.19a18.19,18.19,0,0,1-4.23-1.67s-3.48-43.2-1.88-50.68,10.14-18.51,10.14-18.51a10,10,0,0,0-.05-3.93c-.44-2.41-12.41-25.35-15.66-42s-1.65-21.86-1.65-21.86L295,260.26l9.54,1.32" style="fill:#92E3A9"></path><path d="M297,396.64a2.89,2.89,0,0,1-.43,0,18.29,18.29,0,0,1-4.39-1.72.56.56,0,0,1-.27-.4c-.14-1.77-3.46-43.37-1.87-50.83,1.54-7.23,9.28-17.48,10.16-18.62a10,10,0,0,0-.08-3.63,62.64,62.64,0,0,0-2.6-6.16c-3.74-8.32-10.7-23.8-13-35.88-3.25-16.62-1.7-21.88-1.63-22.1a.5.5,0,0,1,.59-.34l11.63,2.84,9.49,1.3a.5.5,0,0,1,.42.57.48.48,0,0,1-.56.42l-9.54-1.31L283.7,258c-.28,1.58-.91,7.5,1.76,21.15,2.33,12,9.26,27.38,13,35.66a52.19,52.19,0,0,1,2.68,6.39,10.45,10.45,0,0,1,0,4.14.66.66,0,0,1-.09.19c-.08.11-8.49,11-10,18.3-1.5,7,1.58,46.57,1.87,50.27a16.19,16.19,0,0,0,3.82,1.49c1.08.15,4-.66,5.34-1.08l1.2-7c.38-1.88,9.45-45.66,11.31-51.22a119.09,119.09,0,0,0,4.77-22.5c1.15-9.3,2.82-31.61.32-37.36s-11-9.28-11.07-9.32a.5.5,0,1,1,.38-.92c.37.15,9,3.83,11.61,9.84s1,28.11-.25,37.88a120.27,120.27,0,0,1-4.81,22.7c-1.85,5.5-11.19,50.63-11.28,51.09L303,395a.5.5,0,0,1-.34.39A25.55,25.55,0,0,1,297,396.64Zm5.49-1.71h0Z" style="fill:#263238"></path><path d="M292.42,394.45s-1.93,11.62-3.84,16.69.92,9.61,5.22,10.42,9.31,0,10-4.29-.59-16.08-.53-18a16.1,16.1,0,0,0-.75-4.37S296.48,397.35,292.42,394.45Z" style="fill:#fff"></path><path d="M296.73,422.34a16.13,16.13,0,0,1-3-.29,7.62,7.62,0,0,1-5.22-3.74,8.62,8.62,0,0,1-.38-7.35c1.87-5,3.8-16.47,3.82-16.59a.51.51,0,0,1,.3-.38.51.51,0,0,1,.48.06c3.79,2.69,9.55.44,9.6.42a.5.5,0,0,1,.4,0,.53.53,0,0,1,.27.3,16.3,16.3,0,0,1,.77,4.54c0,.55.09,2.06.22,4,.31,4.39.78,11,.31,14.06a5.2,5.2,0,0,1-2.19,3.56A9.3,9.3,0,0,1,296.73,422.34Zm-3.94-27.06c-.46,2.66-2.1,11.66-3.74,16a7.61,7.61,0,0,0,.31,6.5,6.59,6.59,0,0,0,4.53,3.25c3.1.57,5.95.21,7.62-1a4.22,4.22,0,0,0,1.78-2.91c.45-2.92,0-9.48-.32-13.83-.14-2-.24-3.47-.22-4.07a14.09,14.09,0,0,0-.58-3.71C300.68,396.08,296.28,397.25,292.79,395.28Z" style="fill:#263238"></path><path d="M303.78,417.27a40.74,40.74,0,0,0,.12-6.77c-.62.89-2.63,3.16-7.17,3.45a8.43,8.43,0,0,1-7.7-4.14c-.15.48-.3.93-.45,1.33-1.91,5.07.92,9.61,5.22,10.42S303.11,421.57,303.78,417.27Z" style="fill:#fff"></path><path d="M296.73,422.34a16.13,16.13,0,0,1-3-.29,7.62,7.62,0,0,1-5.22-3.74,8.62,8.62,0,0,1-.38-7.35c.15-.39.3-.83.45-1.3a.48.48,0,0,1,.41-.34.5.5,0,0,1,.49.22,7.92,7.92,0,0,0,7.24,3.91c4.29-.27,6.18-2.36,6.79-3.24a.5.5,0,0,1,.91.26,40.77,40.77,0,0,1-.12,6.88,5.2,5.2,0,0,1-2.19,3.56A9.3,9.3,0,0,1,296.73,422.34Zm-7.53-11.43-.15.41a7.61,7.61,0,0,0,.31,6.5,6.59,6.59,0,0,0,4.53,3.25c3.1.57,5.95.21,7.62-1a4.22,4.22,0,0,0,1.78-2.91h0a33.61,33.61,0,0,0,.16-5.4,10.23,10.23,0,0,1-6.69,2.66A8.65,8.65,0,0,1,289.2,410.91Z" style="fill:#263238"></path><path d="M325.08,394.93A52.4,52.4,0,0,0,335.2,405c6.33,4.79,9.82,5.57,9,7.3s-8.57,1.9-14.09,1.59-10.74-2.08-13-2.55-5.41.51-6.14-2.08,2.72-14.84,2.72-14.84S322.07,395.07,325.08,394.93Z" style="fill:#fff"></path><path d="M334.6,414.51c-1.89,0-3.58-.07-4.56-.13a54.07,54.07,0,0,1-10.87-2c-.9-.23-1.65-.43-2.22-.55a11.82,11.82,0,0,0-2-.16c-1.82,0-3.88-.08-4.5-2.27-.75-2.65,2.36-13.85,2.72-15.11a.48.48,0,0,1,.52-.36c.09,0,8.44.64,11.38.51a.46.46,0,0,1,.43.21,52.79,52.79,0,0,0,10,10c2.38,1.8,4.39,3,5.86,4,2.57,1.59,4,2.47,3.24,3.95C343.78,414.16,338.71,414.51,334.6,414.51ZM314,394.94c-1,3.64-3.16,12.24-2.61,14.18.4,1.41,1.61,1.5,3.56,1.54a12.44,12.44,0,0,1,2.21.18c.58.12,1.35.33,2.26.57a53.17,53.17,0,0,0,10.68,2c7.18.4,13-.17,13.61-1.32.3-.61-.45-1.15-2.88-2.65-1.48-.93-3.51-2.19-5.93-4a54.62,54.62,0,0,1-10.07-9.95C322,395.52,315.69,395.07,314,394.94Z" style="fill:#263238"></path><path d="M344.16,412.29c.82-1.65-2.31-2.44-8.07-6.64A20.35,20.35,0,0,1,329.2,407c-3.64-.11-16.4-6.84-16.4-6.84l-.57-.25c-.86,3.62-1.72,7.95-1.32,9.37.73,2.59,3.86,1.6,6.14,2.08s7.49,2.25,13,2.55S343.29,414,344.16,412.29Z" style="fill:#fff"></path><path d="M334.6,414.51c-1.89,0-3.58-.07-4.56-.13a54.07,54.07,0,0,1-10.87-2c-.9-.23-1.65-.43-2.22-.55a11.82,11.82,0,0,0-2-.16c-1.82,0-3.88-.08-4.5-2.27-.35-1.24.09-4.48,1.31-9.63a.51.51,0,0,1,.26-.33.54.54,0,0,1,.43,0l.57.25c.16.09,12.73,6.7,16.21,6.8a19.23,19.23,0,0,0,6.71-1.29.48.48,0,0,1,.46.07c2,1.44,3.64,2.47,5,3.3,2.57,1.6,4,2.48,3.25,4h0C343.78,414.16,338.71,414.51,334.6,414.51Zm-22-13.93c-1.41,6.07-1.36,7.95-1.19,8.54.4,1.41,1.61,1.5,3.56,1.54a12.44,12.44,0,0,1,2.21.18c.58.12,1.35.33,2.26.57a53.17,53.17,0,0,0,10.68,2c7.18.4,13-.17,13.61-1.32.3-.61-.46-1.15-2.89-2.66-1.29-.81-2.89-1.8-4.81-3.19a20.6,20.6,0,0,1-6.83,1.26C325.48,407.36,313.17,400.89,312.58,400.58Zm31.58,11.71h0Z" style="fill:#263238"></path><path d="M339.72,174.69s2.25.57,3.14,4.37,1,43.05,1,43.05l-7.5,2.66-1.45-4.6,5.65-38.54S339.7,175.32,339.72,174.69Z" style="fill:#fff"></path><path d="M336.32,225.27a.46.46,0,0,1-.23-.05.5.5,0,0,1-.25-.3l-1.45-4.6a.6.6,0,0,1,0-.23L340,181.63c-.12-.91-.81-6.32-.79-6.95a.53.53,0,0,1,.2-.39.49.49,0,0,1,.42-.08c.11,0,2.56.69,3.5,4.74.9,3.81,1,41.55,1,43.16a.5.5,0,0,1-.33.47l-7.51,2.67Zm-.94-5.14,1.26,4,6.68-2.37c0-3.93-.13-39.07-.95-42.58a6,6,0,0,0-2.08-3.64c.14,1.4.48,4.18.72,6a.33.33,0,0,1,0,.14Z" style="fill:#263238"></path><path d="M343.58,195.56c-.15-8-.37-15-.72-16.5-.89-3.8-3.14-4.37-3.14-4.37,0,.63.8,6.94.8,6.94l-2.14,14.57Z" style="fill:#d1d1d1"></path><path d="M338.38,196.7a.55.55,0,0,1-.36-.15.49.49,0,0,1-.13-.43L340,181.63c-.12-.91-.81-6.32-.79-6.95a.52.52,0,0,1,.2-.39.49.49,0,0,1,.42-.08c.11,0,2.56.69,3.5,4.74.32,1.35.56,6.78.74,16.6a.51.51,0,0,1-.44.5l-5.2.64Zm1.91-21.16c.14,1.4.48,4.18.72,6a.33.33,0,0,1,0,.14l-2,13.91,4.1-.5c-.22-11.62-.5-15.09-.7-15.94A6,6,0,0,0,340.29,175.54Z" style="fill:#263238"></path><path d="M339.27,191.65l6.39-.66s-1-9.89-2-12.36-4-3.94-4-3.94S340.25,187.8,339.27,191.65Z" style="fill:#fff"></path><path d="M339.27,192.15a.5.5,0,0,1-.38-.17.52.52,0,0,1-.11-.46c1-3.73.45-16.68.44-16.81a.52.52,0,0,1,.22-.44.55.55,0,0,1,.5,0c.13.06,3.24,1.57,4.22,4.21s1.95,12.08,2,12.49a.46.46,0,0,1-.11.37.48.48,0,0,1-.33.18l-6.39.66Zm1-16.58c.1,2.86.32,11.68-.35,15.51l5.2-.53c-.22-2-1.1-9.67-1.87-11.75A7.22,7.22,0,0,0,340.25,175.57Z" style="fill:#263238"></path><polygon points="278.18 186.54 268.4 246.54 271.8 245.97 279.88 186.25 278.18 186.54" style="fill:#999"></polygon><path d="M268.4,247a.5.5,0,0,1-.35-.14.52.52,0,0,1-.15-.44l9.78-60a.52.52,0,0,1,.42-.42l1.7-.28a.5.5,0,0,1,.43.13.52.52,0,0,1,.15.43L272.3,246a.5.5,0,0,1-.41.42l-3.41.58ZM278.61,187l-9.61,59,2.36-.39,7.93-58.68Z" style="fill:#263238"></path><path d="M305.6,153.41s-1.91,11.92-3.74,15-12.3,4.26-12.3,4.26-7.38,1.32-6.21,7.54,8.51,44.29,8.09,45.44-8.12,31.82-8.12,31.82,20.12,5.44,39.07,4.66,21.51-2.25,21.51-2.25-1.79-17.43-4.46-24.86a126.59,126.59,0,0,1-4.57-14.81c0-.58,6.58-38.63,6.28-41.73s-1.59-4.87-5.44-5.38-8.84-1.42-11.67-3.44-4.34-10-4.34-10S311.94,160.75,305.6,153.41Z" style="fill:#d1d1d1"></path><path d="M318.63,262.66c-17.64,0-35.25-4.7-35.44-4.75a.49.49,0,0,1-.35-.6c.31-1.26,7.7-30.71,8.13-31.87.18-1.54-5.24-30-7.27-40.75-.38-2-.68-3.54-.84-4.43a6,6,0,0,1,.88-4.71c1.86-2.69,5.58-3.38,5.74-3.41,2.87-.34,10.56-1.72,11.95-4,1.76-2.92,3.66-14.66,3.67-14.78a.52.52,0,0,1,.36-.4.51.51,0,0,1,.52.16c6.08,7,13.58,6.06,13.65,6a.49.49,0,0,1,.56.4c0,.08,1.5,7.79,4.14,9.67,2.15,1.53,5.9,2.63,11.45,3.36,3.78.49,5.53,2.23,5.87,5.83.2,2.13-2.45,18.59-5.35,36.06-.51,3.08-.91,5.52-.93,5.74a134.61,134.61,0,0,0,4.54,14.62c2.66,7.39,4.42,24.26,4.49,25a.51.51,0,0,1-.25.49c-.11.06-2.88,1.54-21.74,2.31C321.16,262.64,319.89,262.66,318.63,262.66Zm-34.7-5.59c3.15.8,21.39,5.23,38.44,4.52,15.46-.63,19.92-1.72,21-2.07-.27-2.58-2-17.69-4.39-24.37-2.49-6.89-4.63-14.23-4.6-15,0-.15.18-1.25.95-5.86,1.66-10,5.55-33.5,5.34-35.8-.26-2.67-1.18-4.43-5-4.93-5.72-.75-9.61-1.9-11.9-3.53-2.6-1.85-4.08-8.1-4.45-9.85a17.22,17.22,0,0,1-13.38-5.67c-.51,3-2.07,11.53-3.63,14.11-1.9,3.16-11.57,4.38-12.67,4.51,0,0-3.44.65-5.06,3a5.12,5.12,0,0,0-.72,4l.84,4.42c6.36,33.45,7.48,40.6,7.22,41.28C291.58,226.66,286.62,246.35,283.93,257.07Z" style="fill:#263238"></path><path d="M326.35,170.86a12,12,0,0,1-2.31-1.24c-2.84-2-4.34-10-4.34-10s-7.76,1.11-14.1-6.23c0,0-1.91,11.92-3.74,15-.72,1.2-2.8,2.11-5,2.78,2.76,3.88,10.82,14.35,17.27,14.39C319.8,185.58,324.29,176.13,326.35,170.86Z" style="fill:#fff"></path><path d="M314.12,186h0c-6.6,0-14.56-10.22-17.68-14.6a.49.49,0,0,1-.07-.45.55.55,0,0,1,.33-.32c3.24-1,4.38-1.93,4.76-2.56,1.76-2.92,3.66-14.66,3.67-14.78a.52.52,0,0,1,.36-.4.51.51,0,0,1,.52.16c6.08,7,13.58,6.06,13.65,6a.49.49,0,0,1,.56.4c0,.08,1.5,7.79,4.14,9.67a11.49,11.49,0,0,0,2.21,1.19.51.51,0,0,1,.28.64C324.62,176.65,320.06,186,314.12,186Zm-16.49-14.62c2.78,3.83,10.48,13.59,16.46,13.62h0c5.37,0,9.77-9.39,11.59-13.92a10.77,10.77,0,0,1-2-1.09c-2.6-1.85-4.08-8.1-4.45-9.85a17.22,17.22,0,0,1-13.38-5.67c-.51,3-2.07,11.53-3.63,14.11C301.65,169.69,300.12,170.61,297.63,171.42Z" style="fill:#263238"></path><path d="M330.42,137.36s-1,6.35-1.68,11-6.39,13.13-10.08,13.8a11.4,11.4,0,0,1-9.76-2.81c-2.83-2.4-7.28-8.33-7.28-8.33a8.17,8.17,0,0,1-6.83-4.27c-2.38-4.32-.19-6.57,1.38-7.1A23.05,23.05,0,0,1,301,139s2.57-8.23,3.74-8.58,6.41-1.15,9.19-3.58,6.07-9.28,8.19-9,8.79,9.53,8.94,10.89S330.42,137.36,330.42,137.36Z" style="fill:#fff"></path><path d="M316.55,162.81a12.12,12.12,0,0,1-8-3.12,67.62,67.62,0,0,1-7.21-8.22,8.6,8.6,0,0,1-7-4.52c-1.41-2.56-1.22-4.35-.81-5.41a4.14,4.14,0,0,1,2.47-2.41,20.62,20.62,0,0,1,4.63-.63c1-3.2,2.77-8.22,4-8.58l1-.24c1.89-.43,5.81-1.33,8-3.24a26.81,26.81,0,0,0,3.43-4.26c1.93-2.72,3.6-5.07,5.15-4.88,2.45.3,9.22,9.92,9.38,11.33s-.62,8.49-.65,8.79v0s-1,6.34-1.69,11c-.76,4.89-6.62,13.52-10.48,14.21A12.85,12.85,0,0,1,316.55,162.81Zm-14.94-12.33a.51.51,0,0,1,.41.2s4.45,5.91,7.2,8.25a10.94,10.94,0,0,0,9.35,2.69c3.37-.6,9-8.93,9.67-13.38s1.64-10.66,1.69-10.94c.22-2,.76-7.49.64-8.55-.14-1.27-6.76-10.25-8.5-10.46-1-.15-2.77,2.43-4.21,4.47a27.67,27.67,0,0,1-3.59,4.43c-2.38,2.08-6.47,3-8.43,3.46l-.95.23c-.61.35-2.25,4.56-3.4,8.25a.49.49,0,0,1-.46.35,22.6,22.6,0,0,0-4.7.6,3.19,3.19,0,0,0-1.86,1.82c-.47,1.23-.21,2.81.76,4.57a7.61,7.61,0,0,0,6.38,4Zm28.81-13.12h0Z" style="fill:#263238"></path><path d="M314.93,141.19c0,.9-.44,1.61-.94,1.6s-.87-.75-.84-1.65.45-1.61.94-1.59S315,140.3,314.93,141.19Z" style="fill:#263238"></path><path d="M325.06,141.83c0,.89-.45,1.61-.94,1.59s-.87-.75-.85-1.65.45-1.61,1-1.59S325.08,140.93,325.06,141.83Z" style="fill:#263238"></path><path d="M318.62,148.46a.49.49,0,0,1-.47-.35.5.5,0,0,1,.32-.63l3.28-1a.5.5,0,1,1,.3,1l-3.27,1Z" style="fill:#263238"></path><path d="M318,153.31c-4.47,0-5.59-3.39-5.6-3.43a.5.5,0,0,1,1-.3c.05.15,1.15,3.35,6,2.62a.49.49,0,0,1,.57.42.51.51,0,0,1-.42.57A10.44,10.44,0,0,1,318,153.31Z" style="fill:#263238"></path><path d="M310.84,137.51a.48.48,0,0,1-.45-.29.49.49,0,0,1,.24-.66,9.78,9.78,0,0,1,7.22-.13.5.5,0,1,1-.37.93,8.94,8.94,0,0,0-6.43.11A.52.52,0,0,1,310.84,137.51Z" style="fill:#263238"></path><path d="M327.52,138.67a.51.51,0,0,1-.39-.19c-1.46-1.84-4-.85-4.1-.8a.5.5,0,0,1-.37-.93c1.14-.46,3.71-.84,5.25,1.11a.5.5,0,0,1-.08.7A.51.51,0,0,1,327.52,138.67Z" style="fill:#263238"></path><path d="M323,121.68a26.51,26.51,0,0,1-6.07,9.09c-4,3.55-11.73,4.67-11.73,4.67s-1.89,5-2.71,6.48a2.6,2.6,0,0,1-2.55,1.28s-2.46-1.81-7.19-4.86S286,130.8,288,128s8.45-17.51,15.61-17.87,20.61,2,23.42,4.57,8.31,12.81,8.8,15.72.87,3.12-1.1,4.41-4.33,2.57-4.33,2.57l-.23-5Z" style="fill:#263238"></path><path d="M300.19,143.71a1.67,1.67,0,0,1-.34,0,.5.5,0,0,1-.23-.09s-2.5-1.84-7.16-4.83c-3.07-2-5.12-4.58-5.61-7.15a5,5,0,0,1,.76-4c.39-.54,1-1.57,1.69-2.87,3.11-5.58,8.3-14.91,14.3-15.21,7.33-.37,20.86,2,23.79,4.7s8.43,12.92,8.95,16c.07.38.13.72.19,1,.39,2.09.41,2.63-1.51,3.89s-4.34,2.58-4.36,2.59a.51.51,0,0,1-.48,0,.52.52,0,0,1-.26-.41l-.23-4.89-6.61-9.77a25.93,25.93,0,0,1-5.84,8.41c-3.64,3.26-10.22,4.5-11.7,4.75-.41,1.07-1.91,4.93-2.63,6.27A3,3,0,0,1,300.19,143.71Zm-.09-1a2,2,0,0,0,1.93-1c.79-1.48,2.66-6.38,2.68-6.43a.51.51,0,0,1,.4-.32c.07,0,7.65-1.13,11.46-4.54a26.22,26.22,0,0,0,5.94-8.89.49.49,0,0,1,.41-.32.5.5,0,0,1,.47.21l7.21,10.65a.62.62,0,0,1,.09.26l.19,4.22c.85-.47,2.31-1.32,3.6-2.16s1.42-1,1.06-2.86c-.05-.31-.12-.65-.18-1-.49-2.89-5.91-12.91-8.65-15.43s-16.08-4.8-23.06-4.44c-5.44.27-10.67,9.65-13.48,14.69-.74,1.33-1.32,2.38-1.74,3a4,4,0,0,0-.6,3.18c.44,2.27,2.37,4.7,5.17,6.49C297.13,140.58,299.56,142.32,300.1,142.71Z" style="fill:#263238"></path><path d="M265.58,261.36s-4.47,18.84-3.38,21.92,20.93,13.68,26.14,15,10.86-.51,12.44-2.33-1.6-42.4-1.6-42.4l-30.78-7Z" style="fill:#999"></path><path d="M292.05,299.26a15.74,15.74,0,0,1-3.83-.47c-4.94-1.27-25.24-11.83-26.49-15.34-1.1-3.13,2.89-20.2,3.36-22.19l2.82-14.81a.49.49,0,0,1,.22-.33.46.46,0,0,1,.38-.06l30.79,7a.49.49,0,0,1,.38.45c.53,6.81,3.11,40.88,1.48,42.76C299.87,297.78,296.14,299.26,292.05,299.26Zm-23.26-52.11-2.72,14.31v0c-1.23,5.2-4.24,19.22-3.39,21.64.94,2.62,20.26,13.27,25.8,14.7,4.93,1.27,10.45-.47,11.93-2.18,1-1.61-.49-26.25-1.69-41.66Zm-3.21,14.21h0Z" style="fill:#263238"></path><path d="M291.21,254c-.24,2.36.86,16.46.86,16.46s-3.14,25.32-1.86,28.18c4.62.55,9.18-1.08,10.57-2.68,1.58-1.82-1.6-42.4-1.6-42.4l-5.93-1.35C292.05,252.81,291.27,253.43,291.21,254Z" style="fill:#999"></path><path d="M292.07,299.26a15.47,15.47,0,0,1-1.92-.12.49.49,0,0,1-.4-.29c-1.29-2.88,1.46-25.56,1.81-28.39-.08-1.07-1.09-14.17-.85-16.5h0c.08-.75.81-1.44,2.31-2.19a.57.57,0,0,1,.34,0l5.94,1.36a.49.49,0,0,1,.38.45c.53,6.81,3.11,40.88,1.48,42.76C299.79,297.87,296,299.26,292.07,299.26Zm-1.49-1.07c4.51.44,8.65-1.2,9.82-2.55,1-1.61-.49-26.25-1.69-41.66l-5.4-1.23c-1.47.76-1.59,1.22-1.6,1.31h0c-.24,2.29.84,16.23.85,16.37a.17.17,0,0,1,0,.1C291.35,280.3,289.88,295.35,290.58,298.19Z" style="fill:#263238"></path><path d="M274.06,244.34s-8.49.42-8.89,2.61-2.56,11.78-.93,13.7,27.14,10,27.83,9.82-1.1-14.1-.23-14.92,7.34-2,7.34-2Z" style="fill:#999"></path><path d="M292.11,271c-1.76,0-26.71-8.19-28.25-10s-.48-7.58.63-13.15c.08-.39.14-.72.19-1,.45-2.45,7.87-2.94,9.35-3a.69.69,0,0,1,.2,0l25.13,9.23a.5.5,0,0,1,.32.52.51.51,0,0,1-.41.45c-3.11.55-6.61,1.4-7.09,1.85-.27.56.05,5.1.26,8.1.44,6.4.39,6.79-.27,6.94ZM274,244.85c-3.86.2-8.12,1.09-8.32,2.19-.05.25-.11.58-.19,1-.53,2.67-2.14,10.78-.85,12.3s23.78,8.85,27.09,9.59c.07-1-.12-3.62-.27-5.82-.45-6.33-.5-8.38.06-8.9s3.74-1.34,5.82-1.77Z" style="fill:#263238"></path><path d="M289.56,172.63s3-.9,4.43,6.26-.1,76.05-.1,76.05l3.58-.57s-1.73-71.54-1.64-74.58-.82-6.46-2.65-7.54A3.38,3.38,0,0,0,289.56,172.63Z" style="fill:#999"></path><path d="M293.89,255.44a.5.5,0,0,1-.33-.12.52.52,0,0,1-.17-.39c0-.69,1.56-68.92.11-75.94-.76-3.71-1.9-5.1-2.71-5.61a1.56,1.56,0,0,0-1.09-.27.5.5,0,0,1-.45-.87,3.84,3.84,0,0,1,4.18-.42c2.12,1.24,3,5,2.9,8S298,253.64,298,254.36a.51.51,0,0,1-.43.5l-3.57.57Zm-2.75-83,.11.06c1.46.87,2.55,3,3.23,6.29,1.42,6.86.09,68.35-.08,75.57l2.56-.41c-.16-6.54-1.72-71.23-1.63-74.17.08-2.77-.71-6.09-2.4-7.08A2.4,2.4,0,0,0,291.14,172.43Z" style="fill:#263238"></path><path d="M291.68,172.89s-7.88-1.4-10.61-.52-6.32,4.83-6.32,4.83l-1,14.07,19.34-.76-1.94-12.42" style="fill:#d1d1d1"></path><path d="M273.74,191.77a.5.5,0,0,1-.5-.53l1-14.07a.48.48,0,0,1,.13-.3c.15-.17,3.71-4.06,6.54-5s10.52.44,10.85.5a.48.48,0,0,1,.4.57.49.49,0,0,1-.58.41c-.07,0-7.78-1.37-10.36-.53-2.31.74-5.37,3.9-6,4.57l-1,13.33L292.5,190l-1.86-11.87a.5.5,0,1,1,1-.15l1.94,12.42a.47.47,0,0,1-.11.39.52.52,0,0,1-.36.19l-19.34.76Z" style="fill:#263238"></path><path d="M276.84,191s11.42,37.43,12.17,38,3.1-.1,3.68-.27S331,188.37,331,188.37a51.28,51.28,0,0,0,5.33-3.89c1.59-1.5,3.31-7.24,3.31-7.24s5.66-1.76,6.44-1.93a13.5,13.5,0,0,0,2.55-1.28s-5.51-3.06-8-3.33a11.1,11.1,0,0,0-6.23,1.74c-.79.56-8.16,14.44-8.16,14.44l-29.44,21.7-5.64-17.94Z" style="fill:#fff"></path><path d="M290,229.76a2,2,0,0,1-1.3-.36c-.76-.6-8.06-24.24-12.34-38.27a.52.52,0,0,1,.07-.44.5.5,0,0,1,.4-.21l14.3-.34a.52.52,0,0,1,.49.35l5.43,17.27,28.78-21.22c2.26-4.26,7.47-13.95,8.26-14.51a11.45,11.45,0,0,1,6.58-1.83c2.57.28,8,3.27,8.2,3.4a.51.51,0,0,1,.26.42.52.52,0,0,1-.24.44,13.25,13.25,0,0,1-2.71,1.34c-.57.12-4.13,1.21-6.14,1.84-.36,1.16-1.87,5.8-3.36,7.2a49.27,49.27,0,0,1-5.36,3.92C293.55,229,293,229.17,292.84,229.22A10.53,10.53,0,0,1,290,229.76Zm-.63-1.11c.18.1.88.29,3.1-.37,1.62-1.39,28-29.44,38.17-40.25a.34.34,0,0,1,.09-.08,49.39,49.39,0,0,0,5.26-3.84c1.23-1.15,2.71-5.45,3.18-7a.5.5,0,0,1,.33-.33c.23-.07,5.68-1.77,6.47-1.94a8,8,0,0,0,1.64-.77c-1.59-.83-5.22-2.66-7.05-2.85a10.52,10.52,0,0,0-5.89,1.65c-.62.59-5.25,9.06-8,14.26a.61.61,0,0,1-.15.17L297.08,209a.5.5,0,0,1-.78-.25l-5.52-17.58-13.27.31C281.92,205.91,288.53,227.12,289.37,228.65Z" style="fill:#263238"></path><polygon points="346.08 175.31 336.18 208.62 360.96 213.04 370.65 180.3 346.08 175.31" style="fill:#92E3A9"></polygon><path d="M361,213.54h-.09l-24.79-4.42a.51.51,0,0,1-.39-.64l9.9-33.3a.5.5,0,0,1,.58-.35l24.57,5a.49.49,0,0,1,.33.23.51.51,0,0,1,.05.4l-9.69,32.74A.49.49,0,0,1,361,213.54Zm-24.15-5.32,23.79,4.25,9.4-31.79-23.58-4.79Z" style="fill:#263238"></path><polygon points="370.65 180.3 379.24 170.91 365.64 205.26 360.96 213.04 370.65 180.3" style="fill:#92E3A9"></polygon><path d="M361,213.54a.79.79,0,0,1-.2,0,.49.49,0,0,1-.27-.6l9.68-32.74a.56.56,0,0,1,.11-.2l8.59-9.39a.5.5,0,0,1,.83.52l-13.59,34.35-4.72,7.86A.5.5,0,0,1,361,213.54Zm10.14-33-8.54,28.87,2.66-4.42,12.56-31.75Z" style="fill:#263238"></path><path d="M340,235.2l15-14.39c.39-.36,9.62-6.25,9.62-6.25l.77-4.63s1.73-3.09,2-3.71,2.13-12.13,1.23-11.53-1.15.72-1.3,1.59-1.73,9-1.73,9-1.26-5.8-2.1-7.33-1.76.2-1.78.82,1.63,8.36,1.63,8.36-4.91-4.05-5.77-4.58-1.16.84-.68,1.61,3.87,5.15,3.87,5.15l-.31,1.88a50.28,50.28,0,0,0-4.44-2.78c-1-.41-1,.35-.42,1.37a24.16,24.16,0,0,1,1.18,2.43l-2.77,0s-3.66,4.67-3.82,5.67-.45,2.38-.45,2.38l-13.46,4.49Z" style="fill:#fff"></path><path d="M340,235.7h-.12a.51.51,0,0,1-.36-.32l-3.71-10.43a.5.5,0,0,1,0-.38.47.47,0,0,1,.29-.26l13.19-4.41c.1-.45.28-1.36.39-2.07.16-1,3-4.78,3.92-5.9a.49.49,0,0,1,.39-.19l2,0c-.22-.48-.54-1.14-.85-1.68-.52-.89-.61-1.57-.26-2,.19-.23.57-.43,1.3-.13a37.33,37.33,0,0,1,3.88,2.38l.15-.89c-.64-.83-3.33-4.31-3.76-5a2,2,0,0,1,.07-2.22,1,1,0,0,1,1.29-.09c.63.39,3.21,2.48,4.73,3.71-.53-2.48-1.37-6.55-1.35-7.07s.5-1.71,1.32-1.9c.31-.07.91-.06,1.4.85a29.21,29.21,0,0,1,1.62,5.18c.47-2.47,1.18-6.11,1.27-6.67a2.32,2.32,0,0,1,1.36-1.82l.16-.11a.6.6,0,0,1,.72,0c1,.85-1.17,12-1.21,12.12-.26.59-1.7,3.19-2,3.68l-.75,4.55a.54.54,0,0,1-.23.34c-3.63,2.31-9.18,5.88-9.55,6.19l-15,14.38A.49.49,0,0,1,340,235.7ZM337,225.09l3.28,9.21,14.47-13.85c.38-.36,7.14-4.68,9.51-6.19l.73-4.41a.52.52,0,0,1,.06-.16c.47-.85,1.76-3.18,2-3.67a78.83,78.83,0,0,0,1.44-10.56,1.06,1.06,0,0,0-.56.91c-.15.87-1.66,8.65-1.73,9a.48.48,0,0,1-.48.4.51.51,0,0,1-.49-.39c0-.06-1.27-5.75-2.06-7.2-.17-.32-.29-.36-.29-.36-.16,0-.54.62-.55,1s1,5.31,1.62,8.23a.51.51,0,0,1-.23.53.5.5,0,0,1-.58,0c-1.36-1.12-5-4.12-5.71-4.54a.24.24,0,0,0-.1,0,1.25,1.25,0,0,0,.1,1c.37.59,2.68,3.6,3.84,5.1a.5.5,0,0,1,.1.39l-.31,1.88a.5.5,0,0,1-.29.38.51.51,0,0,1-.48,0,47.75,47.75,0,0,0-4.35-2.73l-.11,0a2.89,2.89,0,0,0,.31.69,22.61,22.61,0,0,1,1.21,2.49.47.47,0,0,1,0,.46.49.49,0,0,1-.41.23l-2.53,0c-1.68,2.16-3.49,4.72-3.57,5.25-.16,1-.44,2.34-.46,2.4a.49.49,0,0,1-.33.37Z" style="fill:#263238"></path></g><g id="freepik--character-1--inject-2"><rect x="235.04" y="359.56" width="2.78" height="55.28" style="fill:#fff"></rect><path d="M237.82,415.34H235a.5.5,0,0,1-.5-.5V359.56a.5.5,0,0,1,.5-.5h2.78a.5.5,0,0,1,.5.5v55.28A.5.5,0,0,1,237.82,415.34Zm-2.28-1h1.78V360.06h-1.78Z" style="fill:#263238"></path><rect x="97.61" y="359.56" width="2.78" height="55.28" style="fill:#fff"></rect><path d="M100.39,415.34H97.61a.5.5,0,0,1-.5-.5V359.56a.5.5,0,0,1,.5-.5h2.78a.5.5,0,0,1,.5.5v55.28A.51.51,0,0,1,100.39,415.34Zm-2.28-1h1.78V360.06H98.11Z" style="fill:#263238"></path><rect x="104.71" y="265.05" width="122.61" height="81.84" style="fill:#fff"></rect><path d="M227.32,347.39H104.71a.5.5,0,0,1-.5-.5V265.05a.51.51,0,0,1,.5-.5H227.32a.5.5,0,0,1,.5.5v81.84A.5.5,0,0,1,227.32,347.39Zm-122.11-1H226.82V265.55H105.21Z" style="fill:#263238"></path><rect x="115.21" y="337.91" width="104.39" height="24.43" style="fill:#fff"></rect><path d="M219.6,362.84H115.21a.51.51,0,0,1-.5-.5V337.91a.5.5,0,0,1,.5-.5H219.6a.5.5,0,0,1,.5.5v24.43A.51.51,0,0,1,219.6,362.84Zm-103.89-1H219.1V338.41H115.71Z" style="fill:#263238"></path><rect x="93.86" y="300.13" width="21.36" height="62.2" style="fill:#fff"></rect><path d="M115.21,362.84H93.86a.5.5,0,0,1-.5-.5V300.13a.5.5,0,0,1,.5-.5h21.35a.5.5,0,0,1,.5.5v62.21A.5.5,0,0,1,115.21,362.84Zm-20.85-1h20.35V300.63H94.36Z" style="fill:#263238"></path><rect x="219.55" y="300.13" width="21.36" height="62.2" style="fill:#fff"></rect><path d="M240.91,362.84H219.55a.5.5,0,0,1-.5-.5V300.13a.5.5,0,0,1,.5-.5h21.36a.51.51,0,0,1,.5.5v62.21A.51.51,0,0,1,240.91,362.84Zm-20.86-1h20.36V300.63H220.05Z" style="fill:#263238"></path><path d="M137.34,171.62S125,170,126.23,172s4.19,2.37,4.19,2.37-10,1.09-14,8.2-.73,5.29-.73,5.29-5.65,8-5.47,12.39,3.28,2,3.28,2-.55,10,1.46,12.4,3.46-.73,3.46-.73,4.37,5.83,8.57,7.83,4.92-1.27,4.92-1.27,10.75,5.83,16.76,5.65,12.21-4.92,12.21-4.92S160.67,223,162,223s10-6.92,10-6.92-1.09,2.55,1.64.18,4.56-12,4.56-16.4-2.74-10.21-2.74-10.21,3.28,2.73,3.28.55-4.55-10.94-10.2-13.85-9.11-3.28-9.11-3.28,2.91-1.64.36-2.74-11.48-1.09-11.48-1.09,1.64-2.55-1.82-1.82S137.71,170,137.34,171.62Z" style="fill:#263238"></path><path d="M148.36,226.61c-5.42,0-14-4.3-16.22-5.44a3,3,0,0,1-1.37,1.41,4.64,4.64,0,0,1-4-.39c-3.51-1.68-7.06-5.86-8.3-7.41a2.74,2.74,0,0,1-1.76,1.22,2.38,2.38,0,0,1-2.13-1.05c-1.78-2.1-1.71-9.18-1.62-11.83a2.34,2.34,0,0,1-1.91.09c-.82-.39-1.26-1.38-1.33-3-.15-3.63,3.41-9.46,4.92-11.75a.88.88,0,0,1-.4-.24c-.51-.51-.7-1.62,1.74-5.95,3-5.29,9.07-7.34,12.3-8.08a5.53,5.53,0,0,1-2.45-2,.9.9,0,0,1,0-1c.84-1.31,7.25-.72,11.27-.2,1.17-2,7-3.65,9.32-4.13,1.35-.29,2.2-.14,2.6.44a1.52,1.52,0,0,1,.1,1.37c2.26,0,8.72.19,10.91,1.13.86.37,1.31.87,1.34,1.48a1.93,1.93,0,0,1-.69,1.43,34.55,34.55,0,0,1,8.13,3.12c5.71,3,10.47,11.86,10.47,14.3a1.24,1.24,0,0,1-.64,1.24,2.44,2.44,0,0,1-2-.39,26.46,26.46,0,0,1,2.1,8.81c0,4.35-1.84,14.27-4.73,16.78-1,.88-1.82,1.39-2.37,1a.7.7,0,0,1-.27-.39c-2.74,2.14-8.18,6.26-9.35,6.26a1.44,1.44,0,0,1-1.1-.47,2,2,0,0,1-.44-.92c-1.84,1.27-6.81,4.34-11.75,4.49ZM131.88,220a.46.46,0,0,1,.23.06c.11.06,10.69,5.8,16.52,5.59s11.86-4.77,11.92-4.82a.52.52,0,0,1,.55,0,.51.51,0,0,1,.25.49,1.76,1.76,0,0,0,.24,1.13.42.42,0,0,0,.36.14c.78-.07,5.55-3.52,9.71-6.82a.5.5,0,0,1,.61,0,.49.49,0,0,1,.16.59,2.42,2.42,0,0,0-.12.35,7.25,7.25,0,0,0,1-.74c2.58-2.23,4.39-11.73,4.39-16s-2.66-9.94-2.69-10a.5.5,0,0,1,.15-.61.48.48,0,0,1,.62,0c.95.78,2.11,1.4,2.4,1.26,0,0,.06-.08.06-.33,0-2-4.47-10.59-9.93-13.41a29.11,29.11,0,0,0-8.94-3.23.5.5,0,0,1-.19-.93c.5-.28,1.18-.86,1.16-1.22,0-.2-.29-.42-.75-.62-2.43-1-11.19-1.05-11.28-1.05a.51.51,0,0,1-.44-.26.49.49,0,0,1,0-.51c.19-.31.39-.85.27-1s-.5-.26-1.57,0c-4.33.91-8.49,2.72-8.73,3.81a.49.49,0,0,1-.55.38c-4.51-.59-9.7-.88-10.6-.35a6,6,0,0,0,3.8,2.09.52.52,0,0,1,.44.51.51.51,0,0,1-.45.49c-.1,0-9.82,1.15-13.65,8-2.29,4-1.92,4.74-1.9,4.76a1.3,1.3,0,0,0,.5-.16.49.49,0,0,1,.61.11.51.51,0,0,1,0,.62c-.06.07-5.55,7.93-5.38,12.08,0,1.14.32,1.88.76,2.09s1.45-.26,1.72-.46a.49.49,0,0,1,.53-.05.51.51,0,0,1,.27.47c-.15,2.74-.2,10.23,1.34,12,.44.52.85.76,1.24.71.66-.08,1.23-1,1.39-1.33a.52.52,0,0,1,.4-.28.51.51,0,0,1,.45.2c0,.06,4.35,5.76,8.38,7.68a3.7,3.7,0,0,0,3.15.4,2.15,2.15,0,0,0,1.07-1.33.52.52,0,0,1,.28-.35A.78.78,0,0,1,131.88,220Z" style="fill:#263238"></path><path d="M129.37,311.08s-4,11.54-2.47,18,5.44,8.74,7.26,9.07,30.52,0,30.52,0l16-40.25Z" style="fill:#263238"></path><path d="M143.06,338.78c-4.64,0-8.35,0-9-.16-2-.36-6.12-2.79-7.66-9.45-1.5-6.5,2.33-17.78,2.49-18.26a.51.51,0,0,1,.35-.32l51.31-13.2a.53.53,0,0,1,.5.16.5.5,0,0,1,.09.51l-16,40.26a.51.51,0,0,1-.46.31C163.92,338.64,151.84,338.78,143.06,338.78Zm-13.3-27.29c-.56,1.72-3.69,11.76-2.37,17.46,1.42,6.14,5.11,8.37,6.86,8.69,1.43.26,21.88.09,30.09,0l15.52-39Z" style="fill:#263238"></path><path d="M138.25,218.45s1,5.85,0,9.31-6.1,6.11-11,7.92-14.35,3.13-16,7.59-5.12,46.36-5.12,47.84,4.29,4,7.76,3.63,7.75-7.42,7.75-7.42,3.8,23.1,5.78,24.25,6.26,0,6.26,0l45.7-13.2s10.23,3.47,15,1.49,5.44-5.78,4.12-11.22-10.39-39.43-12.37-46.2-4-10.22-6.6-11.71-13.2-.33-17.32-1-9.08-9.73-9.08-13.36Z" style="fill:#999"></path><path d="M129.92,312.58a5.61,5.61,0,0,1-2.78-.58c-1.89-1.1-4.7-16.77-5.8-23.33-1.4,2.06-4.59,6.3-7.43,6.57a10.76,10.76,0,0,1-7.32-2.44,2.41,2.41,0,0,1-1-1.69c0-.34,3.39-43.26,5.15-48,1.33-3.6,7-5.19,12-6.59,1.58-.44,3.06-.86,4.27-1.3,6.27-2.3,10-4.92,10.74-7.59.95-3.31,0-9,0-9.08a.52.52,0,0,1,.09-.38.5.5,0,0,1,.34-.2l14.87-2.08a.52.52,0,0,1,.4.12.5.5,0,0,1,.17.38c0,3.6,4.94,12.27,8.65,12.87a52.12,52.12,0,0,0,7.16.2c4.25,0,8.65-.1,10.33.85,2.79,1.56,4.83,5.15,6.84,12,2,6.69,11.07,40.83,12.38,46.22,1,4.22,1.44,9.37-4.42,11.8-4.64,1.92-13.88-1-15.22-1.42L133.8,312.05A17,17,0,0,1,129.92,312.58Zm-8.3-25.76h.1a.49.49,0,0,1,.39.41c1.84,11.16,4.41,23.15,5.54,23.9,1.47.86,4.75.25,5.88-.05l45.69-13.2a.51.51,0,0,1,.3,0c.1,0,10.11,3.38,14.67,1.5,4.13-1.72,5.24-4.8,3.83-10.64-1.31-5.39-10.42-39.49-12.37-46.18s-3.83-10-6.37-11.41c-1.45-.82-5.9-.77-9.83-.72a51.15,51.15,0,0,1-7.32-.22c-4.31-.69-9-9.28-9.46-13.28l-13.84,1.93c.22,1.52.78,6.05-.07,9s-4.68,5.8-11.36,8.25c-1.24.45-2.74.88-4.34,1.32-4.55,1.27-10.21,2.86-11.36,6-1.58,4.25-5.09,45.35-5.09,47.67,0,.18.17.52.65.95a9.68,9.68,0,0,0,6.56,2.18c2.63-.25,6.22-5.27,7.37-7.18A.51.51,0,0,1,121.62,286.82Z" style="fill:#263238"></path><path d="M150.49,241.45c7.56-1.64,12.5-7.64,15-11.5a23.62,23.62,0,0,1-3.24-.21c-4.13-.66-9.08-9.73-9.08-13.36l-14.88,2.07s1,5.85,0,9.31c-.9,3.17-5.26,5.65-9.79,7.44C133.17,238.24,142.41,243.21,150.49,241.45Z" style="fill:#fff"></path><path d="M147,242.32c-7.2,0-14.61-4-18.74-6.7a.5.5,0,0,1-.22-.47.51.51,0,0,1,.31-.42c5.59-2.2,8.79-4.59,9.5-7.11.95-3.31,0-9,0-9.08a.52.52,0,0,1,.09-.38.5.5,0,0,1,.34-.2l14.87-2.08a.52.52,0,0,1,.4.12.5.5,0,0,1,.17.38c0,3.6,4.94,12.27,8.65,12.87a23.06,23.06,0,0,0,3.18.2.54.54,0,0,1,.44.27.52.52,0,0,1,0,.5c-2.34,3.65-7.42,10-15.28,11.72h0A17.2,17.2,0,0,1,147,242.32Zm3.54-.87h0Zm-20.92-6.15c4.88,3,13.38,7.28,20.82,5.67h0c7-1.53,11.72-7,14.15-10.54a18.53,18.53,0,0,1-2.41-.2c-4.31-.69-9-9.28-9.46-13.28l-13.84,1.93c.22,1.52.78,6.05-.07,9C138,230.58,134.91,233.06,129.57,235.3Z" style="fill:#263238"></path><path d="M139.9,190.21s.36,3.28,2,2.55,6.74-5.83,6.74-5.83a5.19,5.19,0,0,0,3.1,4.92c3.46,1.82,2.19-.91,2.19-.91l4.37,5.46,1.1,8.57s.72,6.38-1.1,9.84-6.38,7.84-10.2,8.38-7.11-1.27-9.85-4.74a35,35,0,0,1-4-6.19s-3.47-12.39-2-14.76S139.9,190.21,139.9,190.21Z" style="fill:#fff"></path><path d="M146.76,223.79c-3.28,0-6.26-1.69-8.9-5a35.67,35.67,0,0,1-4.07-6.29c-.39-1.37-3.5-12.75-2-15.24s7.51-7.21,7.76-7.42a.52.52,0,0,1,.51-.06.47.47,0,0,1,.3.4c.09.74.41,1.9.87,2.16a.44.44,0,0,0,.44,0c1.27-.57,5.19-4.33,6.59-5.73a.49.49,0,0,1,.57-.09.5.5,0,0,1,.28.5A4.68,4.68,0,0,0,152,191.4c1.36.72,1.68.56,1.69.56a1.71,1.71,0,0,0-.19-.81.51.51,0,0,1,.85-.53l4.37,5.47a.47.47,0,0,1,.11.25l1.09,8.56c0,.28.73,6.58-1.15,10.14-2,3.73-6.67,8.09-10.57,8.65A9.75,9.75,0,0,1,146.76,223.79Zm-12-11.67a35.14,35.14,0,0,0,3.92,6c2.77,3.52,5.93,5.05,9.38,4.56s8-4.69,9.83-8.12,1-9.49,1-9.56l-1.08-8.41-3.31-4.14a.87.87,0,0,1-.17.22c-.51.48-1.38.36-2.83-.4a5.84,5.84,0,0,1-3.3-4.23c-1.54,1.5-4.77,4.56-6.11,5.15a1.42,1.42,0,0,1-1.34,0,3.28,3.28,0,0,1-1.2-2.06c-1.62,1.33-5.77,4.82-6.89,6.64-1,1.59.74,9.65,2.06,14.36Zm0,0h0Z" style="fill:#263238"></path><path d="M132.4,204.1s-4.9-3.32-4.17,1.78,5.29,3.46,5.29,3.46Z" style="fill:#fff"></path><path d="M131.93,210.09a4.14,4.14,0,0,1-2.16-.55,4.66,4.66,0,0,1-2-3.59c-.23-1.6.05-2.66.82-3.14,1.43-.89,3.85.69,4.12.87a.47.47,0,0,1,.2.31l1.13,5.25a.5.5,0,0,1-.32.57A5.7,5.7,0,0,1,131.93,210.09Zm-2.33-6.56a.92.92,0,0,0-.51.13c-.4.25-.53,1-.36,2.15a3.77,3.77,0,0,0,1.55,2.87,3.73,3.73,0,0,0,2.65.3l-1-4.58A5.46,5.46,0,0,0,129.6,203.53Z" style="fill:#263238"></path><path d="M159.21,201.51s2.74-2.19,3.47,0-3.1,5.65-3.1,5.65Z" style="fill:#fff"></path><path d="M159.58,207.66a.58.58,0,0,1-.19,0,.49.49,0,0,1-.31-.43l-.37-5.65a.49.49,0,0,1,.19-.42c.18-.15,1.79-1.39,3.08-1a1.76,1.76,0,0,1,1.17,1.24c.81,2.42-2.82,5.8-3.24,6.18A.51.51,0,0,1,159.58,207.66Zm.15-5.91L160,206c1.12-1.2,2.6-3.15,2.19-4.37-.16-.49-.42-.57-.5-.59C161.12,200.9,160.2,201.42,159.73,201.75Z" style="fill:#263238"></path><path d="M142.79,205.85c0,.69-.39,1.25-.87,1.25s-.87-.56-.87-1.25.39-1.25.87-1.25S142.79,205.16,142.79,205.85Z" style="fill:#263238"></path><path d="M151.78,205.38c0,.69-.39,1.25-.87,1.25s-.86-.56-.86-1.25.38-1.25.86-1.25S151.78,204.69,151.78,205.38Z" style="fill:#263238"></path><path d="M138.68,201.93a.47.47,0,0,1-.27-.08.51.51,0,0,1-.15-.69c.07-.1,1.67-2.49,5.75-1.47a.5.5,0,0,1,.37.6.51.51,0,0,1-.61.37c-3.36-.84-4.62,1-4.67,1.05A.5.5,0,0,1,138.68,201.93Z" style="fill:#263238"></path><path d="M153.52,201.15a.52.52,0,0,1-.37-.16,4.46,4.46,0,0,0-5-1,.49.49,0,0,1-.66-.26.51.51,0,0,1,.25-.66,5.58,5.58,0,0,1,6.09,1.22.5.5,0,0,1,0,.71A.51.51,0,0,1,153.52,201.15Z" style="fill:#263238"></path><path d="M146.59,215.54a10.79,10.79,0,0,1-5.34-1.54.5.5,0,1,1,.55-.83c.23.15,5.71,3.64,10.09-1a.51.51,0,0,1,.71,0,.5.5,0,0,1,0,.71A8,8,0,0,1,146.59,215.54Z" style="fill:#263238"></path><path d="M146.94,210.89a5.8,5.8,0,0,1-2.51-.82.5.5,0,1,1,.5-.86c.69.4,1.89.85,2.37.61a1.19,1.19,0,0,0,.67-1,.53.53,0,0,1,.5-.49.51.51,0,0,1,.5.5,2.21,2.21,0,0,1-1.23,1.87A1.77,1.77,0,0,1,146.94,210.89Z" style="fill:#263238"></path><path d="M112.55,299.86c2.14-.33,5.61-4.29,6.1-5.45.26-.61,1.59-9.15,2.78-17-2.87.6-6.13-1.14-8.35-2.72a72.66,72.66,0,0,1-4.66,7.72c-1.15,1-4.62,7.92-3.46,12.7S110.4,300.19,112.55,299.86Z" style="fill:#fff"></path><path d="M111.29,300.45a6.61,6.61,0,0,1-6.82-5.26c-1.18-4.89,2.26-12,3.63-13.2.16-.15.94-1.18,4.54-7.58a.52.52,0,0,1,.33-.25.52.52,0,0,1,.4.08c2.13,1.52,5.25,3.2,8,2.64a.53.53,0,0,1,.45.13.54.54,0,0,1,.15.44c-2.47,16.34-2.72,16.94-2.82,17.16-.53,1.24-4.12,5.38-6.49,5.74h0A8.33,8.33,0,0,1,111.29,300.45Zm1.26-.59h0Zm.7-24.48c-3.86,6.82-4.31,7.2-4.5,7.37-1,.86-4.43,7.54-3.31,12.21,1.22,5,6.07,4.55,7,4.4h0c1.94-.3,5.28-4.12,5.72-5.14.12-.31.62-2.85,2.65-16.25C118.16,278.2,115.34,276.79,113.25,275.38Z" style="fill:#263238"></path><path d="M120.47,261.25s-2.64-12.87-1.49-13.53,11.22-2,11.71-1.65,1,10.4,1,10.4l-3.62,1.32s.49,2.47-.5,3.63-4.12,2.47-4.12,2.47-4.29,29.37-4.79,30.52-4,5.12-6.1,5.45-6.44,0-7.59-4.79,2.31-11.71,3.46-12.7S120.47,261.25,120.47,261.25Z" style="fill:#fff"></path><path d="M111.29,300.45a6.61,6.61,0,0,1-6.82-5.26c-1.18-4.89,2.26-12,3.63-13.2.81-.73,7.66-13.09,11.84-20.82-1.77-8.66-2.18-13.33-1.21-13.88s11.44-2.16,12.24-1.63c.23.15.71.47,1.21,10.78a.51.51,0,0,1-.32.5l-3.25,1.18c.11.82.21,2.59-.67,3.62a14,14,0,0,1-4,2.5c-.59,4.07-4.29,29.22-4.78,30.37s-4.12,5.38-6.49,5.74A8.33,8.33,0,0,1,111.29,300.45Zm18.93-53.93c-1.82,0-10,1.1-11,1.64-.41.72.54,7.19,1.73,13a.56.56,0,0,1,0,.34c-1.83,3.37-11,20.26-12.16,21.26-1,.86-4.43,7.54-3.31,12.21,1.22,5,6.07,4.55,7,4.4,1.94-.3,5.28-4.12,5.72-5.14s3-18.71,4.75-30.4a.52.52,0,0,1,.3-.39,14.28,14.28,0,0,0,3.94-2.34c.68-.79.51-2.58.38-3.21a.5.5,0,0,1,.32-.56l3.29-1.2a91.61,91.61,0,0,0-.82-9.6Zm.3,0Z" style="fill:#263238"></path><path d="M126.24,246.24a35.47,35.47,0,0,0,1.82-3.63c.49-1.32,1.81-1,2.3.49a7.71,7.71,0,0,1,.33,3Z" style="fill:#fff"></path><path d="M126.24,246.74a.51.51,0,0,1-.43-.24.52.52,0,0,1,0-.51,35.73,35.73,0,0,0,1.78-3.56,1.56,1.56,0,0,1,1.45-1.15,2.16,2.16,0,0,1,1.8,1.67,8.25,8.25,0,0,1,.35,3.18.5.5,0,0,1-.48.44l-4.45.17Zm2.77-4.46c-.27,0-.43.35-.49.51a29,29,0,0,1-1.41,2.92l3.11-.12a7.2,7.2,0,0,0-.33-2.33c-.22-.66-.61-1-.87-1Z" style="fill:#263238"></path><rect x="131.35" y="242.44" width="13.2" height="17.98" style="fill:#fff"></rect><path d="M144.55,260.93h-13.2a.51.51,0,0,1-.5-.5v-18a.51.51,0,0,1,.5-.5h13.2a.5.5,0,0,1,.5.5v18A.5.5,0,0,1,144.55,260.93Zm-12.7-1h12.2v-17h-12.2Z" style="fill:#263238"></path><path d="M182,254.49s1-2.53,2.41-3.4,18.41-6.9,18.41-6.9Z" style="fill:#fff"></path><path d="M182,255a.51.51,0,0,1-.33-.13.48.48,0,0,1-.13-.55c0-.11,1.05-2.7,2.62-3.64s17.8-6.7,18.49-6.95a.5.5,0,0,1,.39.92l-20.82,10.3A.54.54,0,0,1,182,255Zm12.67-7.33c-4.66,1.71-9.32,3.46-10,3.86a5.34,5.34,0,0,0-1.59,1.88Z" style="fill:#263238"></path><path d="M182,254.49s-2.47-3.11-3.62-3.4-24.59-4.85-24.59-4.85Z" style="fill:#fff"></path><path d="M182,255l-.14,0-28.21-8.25a.5.5,0,0,1,.24-1c1,.18,23.46,4.57,24.61,4.86s3.46,3,3.89,3.57a.5.5,0,0,1,0,.59A.51.51,0,0,1,182,255Zm-17.57-6.16,16.1,4.71a7.76,7.76,0,0,0-2.28-2C177.65,251.43,170.76,250.07,164.43,248.83Z" style="fill:#263238"></path><polygon points="153.79 246.24 148.68 278.08 176.72 286.99 182 254.49 153.79 246.24" style="fill:#92E3A9"></polygon><path d="M176.72,287.49a.4.4,0,0,1-.15,0l-28-8.9a.51.51,0,0,1-.35-.56l5.12-31.84a.47.47,0,0,1,.22-.34.5.5,0,0,1,.41-.06L182.14,254a.5.5,0,0,1,.36.56l-5.28,32.5a.51.51,0,0,1-.23.34A.5.5,0,0,1,176.72,287.49Zm-27.48-9.76,27.08,8.61,5.12-31.5-27.24-8Z" style="fill:#263238"></path><polygon points="182 254.49 204.94 243.76 199 278.74 176.72 286.99 182 254.49" style="fill:#92E3A9"></polygon><path d="M176.72,287.49a.47.47,0,0,1-.31-.12.49.49,0,0,1-.18-.46l5.28-32.5a.51.51,0,0,1,.28-.37l22.93-10.73a.51.51,0,0,1,.71.54l-5.94,35a.49.49,0,0,1-.32.39l-22.27,8.25A.57.57,0,0,1,176.72,287.49Zm5.73-32.66-5.09,31.39,21.19-7.85,5.73-33.75Z" style="fill:#263238"></path><path d="M190.25,287.32s-7.42-9.08-8.25-9.24-1.32,1.32-.66,2.47,4.62,6.77,4.62,6.77-6.76-6.27-7.75-6.77-2.15.66-2,1.65,6.27,7.59,6.27,7.59-8.25-5.44-8.91-5.77-1,1.32-.17,2.14a16.33,16.33,0,0,1,1.82,2.48s2.64,3.63,3.13,4.12,2,3,4.29,2.64,7.43-3.46,8.09-5.28A2.51,2.51,0,0,0,190.25,287.32Z" style="fill:#fff"></path><path d="M182.23,295.93c-1.94,0-3.26-1.65-3.93-2.48a4.15,4.15,0,0,0-.28-.33c-.51-.51-2.91-3.81-3.19-4.19a16.08,16.08,0,0,0-1.76-2.41,2.27,2.27,0,0,1-.35-2.66.84.84,0,0,1,1.09-.29c.41.2,3.28,2.08,5.69,3.65-1.8-2-3.65-4.27-3.76-4.93a2.1,2.1,0,0,1,.87-2,1.72,1.72,0,0,1,1.82-.21,47.06,47.06,0,0,1,4.55,3.81c-.91-1.33-1.78-2.62-2.07-3.12a2.59,2.59,0,0,1,0-2.7,1.16,1.16,0,0,1,1.19-.51c.83.16,5.08,5.19,8.52,9.39a3,3,0,0,1,.6,3.31c-.78,2.13-6.18,5.28-8.49,5.61A4.19,4.19,0,0,1,182.23,295.93Zm-8.74-11.4a1.37,1.37,0,0,0,.29,1.28,16.43,16.43,0,0,1,1.89,2.57c1,1.41,2.71,3.69,3.06,4a5.09,5.09,0,0,1,.35.42c.65.81,1.87,2.31,3.51,2.08,2.32-.33,7.13-3.44,7.69-5a2,2,0,0,0-.35-2.25.23.23,0,0,1-.07-.07c-2.9-3.54-7.28-8.68-8-9.07a.31.31,0,0,0-.13.12,1.64,1.64,0,0,0,.05,1.63c.64,1.12,4.55,6.66,4.59,6.72a.49.49,0,0,1-.08.66.5.5,0,0,1-.67,0c-2.59-2.41-7-6.35-7.64-6.69a.74.74,0,0,0-.77.12,1.14,1.14,0,0,0-.49,1c.17.62,3.26,4.21,6.15,7.33a.52.52,0,0,1,0,.67.51.51,0,0,1-.66.09C179.1,288.15,174.4,285.07,173.49,284.53Z" style="fill:#263238"></path><line x1="175.24" y1="288.64" x2="181.18" y2="293.59" style="fill:#fff"></line><path d="M181.18,294.09a.49.49,0,0,1-.32-.12l-5.94-5a.5.5,0,0,1-.07-.7.52.52,0,0,1,.71-.07l5.94,4.95a.51.51,0,0,1,.06.71A.49.49,0,0,1,181.18,294.09Z" style="fill:#263238"></path><path d="M183.82,296.23a52.62,52.62,0,0,1,15.34,14.19c6.11,8.9,6.77,17.81,3.63,22.76s-7.75,5.28-10.89,5.28H179.69s-.33-8.91-2.14-12.21-9.24-4.29-13.53-9.9-2.8-20.62,5.28-22.76A18.26,18.26,0,0,1,183.82,296.23Z" style="fill:#263238"></path><path d="M191.9,339H179.69a.5.5,0,0,1-.5-.48c0-.09-.34-8.83-2.08-12-.75-1.37-2.69-2.37-4.92-3.52-2.75-1.42-6.16-3.17-8.57-6.32-2.64-3.46-3.22-10.52-1.32-16.08,1.37-4,3.81-6.66,6.87-7.48a18.62,18.62,0,0,1,14.92,2.71,53.47,53.47,0,0,1,15.48,14.32c6.61,9.65,6.59,18.66,3.64,23.32C200.14,338.31,195.77,339,191.9,339Zm-11.73-1H191.9c3.6,0,7.65-.6,10.47-5s2.73-12.95-3.62-22.22a52.6,52.6,0,0,0-15.18-14l0,0c-.06-.05-6.35-4.61-14.09-2.56-2.73.72-4.93,3.15-6.19,6.84-1.8,5.27-1.28,11.92,1.18,15.14,2.27,3,5.43,4.6,8.22,6,2.39,1.23,4.45,2.29,5.35,3.92C179.61,329,180.07,336,180.17,338Z" style="fill:#263238"></path><path d="M175.24,317.67s4.12,2.48,5.77,12.54.66,44.22.66,50.32a92.59,92.59,0,0,0,1.16,13L171,395.21s-4.13-15.83-8.41-34.15-5.78-28.54-1.32-37.78S175.24,317.67,175.24,317.67Z" style="fill:#263238"></path><path d="M171,395.71a.48.48,0,0,1-.48-.37c-.05-.16-4.18-16-8.42-34.16-4.45-19-5.69-29-1.28-38.11,4.6-9.54,14.55-5.9,14.65-5.86l.08,0c.17.1,4.34,2.71,6,12.88,1.34,8.19.94,32.53.75,44.23,0,2.83-.09,5-.09,6.17a93.5,93.5,0,0,0,1.15,13,.51.51,0,0,1-.09.38.5.5,0,0,1-.33.2L171,395.71Zm0-78.26c-3,0-6.86,1.1-9.24,6.05-4.27,8.86-3,18.71,1.35,37.45,3.85,16.44,7.61,31.05,8.3,33.71l10.93-1.52a93.3,93.3,0,0,1-1.08-12.61c0-1.16,0-3.35.09-6.19.19-11.67.59-35.94-.74-44-1.52-9.24-5.12-11.91-5.51-12.17A13.06,13.06,0,0,0,170.91,317.45Z" style="fill:#263238"></path><path d="M181.67,306.62a102.26,102.26,0,0,1-11.22,22.11c-7.42,10.89-16.49,20.13-19,23.59s-9.07,13.36-9.07,13.36l-9.9-8.74s9.57-17,13.53-26.4,14.35-35.3,20.29-38.11,9.07-2.14,16.33,3l4,4" style="fill:#263238"></path><path d="M142.41,366.18a.5.5,0,0,1-.33-.12l-9.9-8.75a.5.5,0,0,1-.11-.62c.1-.17,9.6-17.07,13.51-26.34l1.06-2.55c4.84-11.59,13.84-33.16,19.48-35.82,6-2.85,9.34-2.26,16.83,3l4,4a.5.5,0,0,1-.71.71l-4-4c-7.12-5-10.08-5.56-15.77-2.88-5.29,2.5-14.53,24.66-19,35.31l-1.07,2.55c-3.61,8.57-12,23.6-13.36,26.09l9.17,8.1c1.35-2,6.63-9.9,8.77-12.9.85-1.19,2.46-3,4.5-5.39A198.25,198.25,0,0,0,170,328.45a103.16,103.16,0,0,0,11.16-22,.5.5,0,0,1,.63-.31.51.51,0,0,1,.32.63A104.6,104.6,0,0,1,170.87,329a199.46,199.46,0,0,1-14.54,18.28c-2,2.33-3.62,4.17-4.44,5.32-2.44,3.42-9,13.25-9.07,13.35a.49.49,0,0,1-.35.22Z" style="fill:#263238"></path><path d="M132.51,356.94a52.41,52.41,0,0,1-10.06,1.48c-4.13,0-13.86-4.45-15-2S111.72,367,115,370.63s6.44,7.1,8.91,9.74,5.11,3.46,6.76,2.8,11.72-17.49,11.72-17.49Z" style="fill:#fff"></path><path d="M129.49,383.89c-1.83,0-4-1.14-5.92-3.18-2.13-2.27-4.75-5.16-7.53-8.21L114.65,371c-2.83-3.11-9.05-11.77-7.67-14.74.88-1.89,4.68-.85,9.07.36a29.82,29.82,0,0,0,6.4,1.33,51.66,51.66,0,0,0,9.94-1.47.55.55,0,0,1,.45.11l9.9,8.75a.5.5,0,0,1,.1.63c-1.7,2.83-10.24,17-12,17.69A3.58,3.58,0,0,1,129.49,383.89Zm-20.29-27.7c-.68,0-1.16.13-1.31.47-1,2,3.9,9.67,7.5,13.64l1.39,1.53c2.77,3.05,5.39,5.93,7.52,8.19,2.43,2.6,4.87,3.22,6.21,2.69,1-.48,6.51-9,11.26-16.93l-9.4-8.29a51.2,51.2,0,0,1-9.92,1.43,29.65,29.65,0,0,1-6.67-1.37A31.77,31.77,0,0,0,109.2,356.19Z" style="fill:#263238"></path><path d="M127.23,376.74c-2-2.15-8.41-12.05-11.71-16.34a16.62,16.62,0,0,0-5.93-4.69c-1.08,0-1.88.13-2.16.73-1.15,2.48,4.29,10.56,7.59,14.19s6.44,7.1,8.91,9.74,5.11,3.46,6.76,2.8a7.93,7.93,0,0,0,1.87-2.08A42.31,42.31,0,0,1,127.23,376.74Z" style="fill:#fff"></path><path d="M129.49,383.89c-1.83,0-4-1.14-5.92-3.18-2.13-2.27-4.75-5.16-7.53-8.21L114.65,371c-2.83-3.11-9.05-11.77-7.67-14.74.53-1.12,2.12-1,2.64-1a.41.41,0,0,1,.19.05,17.1,17.1,0,0,1,6.1,4.84c1.5,1.94,3.63,5,5.69,8,2.54,3.67,4.93,7.14,6,8.29h0a42.07,42.07,0,0,0,5.25,4.28.5.5,0,0,1,.2.33.49.49,0,0,1-.09.37c-1.31,1.78-1.79,2.14-2.08,2.26A3.77,3.77,0,0,1,129.49,383.89ZM109.26,356.2c-.59,0-1.21.09-1.37.46-1,2,3.9,9.67,7.5,13.64l1.39,1.53c2.77,3.05,5.39,5.93,7.52,8.19,2.43,2.6,4.87,3.22,6.21,2.69a6.44,6.44,0,0,0,1.34-1.52,40.57,40.57,0,0,1-5-4.11h0c-1.11-1.21-3.52-4.7-6.08-8.4-2-3-4.18-6.05-5.66-8a15.92,15.92,0,0,0-5.65-4.5Z" style="fill:#263238"></path><path d="M110.57,359.08c-2.48-3.3-2.81-1.15-2.81-1.15l-.46-.25c.37,3.28,4.85,9.8,7.72,12.95,3.3,3.63,6.44,7.1,8.91,9.74s5.11,3.46,6.76,2.8a70.24,70.24,0,0,1-7.42-6.27C120,373.6,113,362.38,110.57,359.08Z" style="fill:#999"></path><path d="M129.49,383.89c-1.83,0-4-1.14-5.92-3.18-2.13-2.27-4.75-5.16-7.53-8.21L114.65,371c-3-3.26-7.47-9.85-7.84-13.23a.52.52,0,0,1,.21-.47.51.51,0,0,1,.49,0,1.1,1.1,0,0,1,.64-.45c.75-.19,1.65.44,2.82,2h0c.83,1.11,2.15,3.09,3.67,5.38,3,4.55,6.82,10.22,9,12.39a71.34,71.34,0,0,0,7.37,6.22.5.5,0,0,1,.2.46.48.48,0,0,1-.31.4A3.58,3.58,0,0,1,129.49,383.89ZM108,358.39c.85,3.25,4.73,8.92,7.44,11.91l1.39,1.53c2.77,3.05,5.39,5.93,7.52,8.19,1.89,2,3.79,2.85,5.17,2.86a69.63,69.63,0,0,1-6.55-5.62c-2.24-2.24-6-7.95-9.11-12.55-1.52-2.27-2.83-4.24-3.64-5.33h0c-1.3-1.72-1.77-1.63-1.78-1.63s-.11.14-.13.26a.51.51,0,0,1-.28.37Z" style="fill:#263238"></path><path d="M171,395.21a116.86,116.86,0,0,1-1.82,12.38c-1.15,5.11,1.49,8.41,3.3,9.24s12.87.16,14.52-.33,3.63-2,2-7.26-6.1-15.68-6.1-15.68Z" style="fill:#fff"></path><path d="M176.87,417.72a15.26,15.26,0,0,1-4.64-.44c-2-.92-4.8-4.4-3.58-9.8a119.45,119.45,0,0,0,1.8-12.31.5.5,0,0,1,.43-.45l11.88-1.65a.5.5,0,0,1,.53.3c0,.1,4.48,10.48,6.12,15.72.81,2.6.85,4.62.12,6A3.93,3.93,0,0,1,187.1,417,63.13,63.13,0,0,1,176.87,417.72Zm-5.46-22.06a114.93,114.93,0,0,1-1.79,12c-1.13,5,1.55,8,3,8.67s12.41.18,14.17-.35a2.86,2.86,0,0,0,1.83-1.4c.61-1.14.54-2.9-.18-5.23-1.46-4.65-5.15-13.42-5.94-15.28Z" style="fill:#263238"></path><path d="M187,416.5a3.45,3.45,0,0,0,2.59-3.46c-10.4,2.66-17.39,1.5-19.8.91a6.17,6.17,0,0,0,2.69,2.88C174.25,417.65,185.3,417,187,416.5Z" style="fill:#fff"></path><path d="M176.87,417.72a15.26,15.26,0,0,1-4.64-.44,6.67,6.67,0,0,1-2.93-3.1.5.5,0,0,1,0-.54.49.49,0,0,1,.51-.17c2.46.6,9.29,1.72,19.55-.92a.52.52,0,0,1,.45.1.49.49,0,0,1,.18.41A4,4,0,0,1,187.1,417h0A63.13,63.13,0,0,1,176.87,417.72Zm-6.11-3a5.05,5.05,0,0,0,1.88,1.68c1.57.71,12.41.18,14.17-.35A2.85,2.85,0,0,0,189,413.7C180.14,415.85,173.86,415.27,170.76,414.69ZM187,416.5h0Z" style="fill:#263238"></path></g></svg>
